STARTFONT 2.1
COMMENT
COMMENT Converted from OpenType font "Q:\font stuff\winfont\Racer Regular.ttf" by "otf2bdf 3.0".
COMMENT
FONT -FreeType-Racer-Medium-R-Normal--139-1400-72-72-P-722-ISO10646-1
SIZE 140 72 72
FONTBOUNDINGBOX 152 148 0 -23
STARTPROPERTIES 19
FOUNDRY "FreeType"
FAMILY_NAME "Racer"
WEIGHT_NAME "Medium"
SLANT "R"
SETWIDTH_NAME "Normal"
ADD_STYLE_NAME ""
PIXEL_SIZE 139
POINT_SIZE 1400
RESOLUTION_X 72
RESOLUTION_Y 72
SPACING "P"
AVERAGE_WIDTH 722
CHARSET_REGISTRY "ISO10646"
CHARSET_ENCODING "1"
FONT_ASCENT 124
FONT_DESCENT 31
COPYRIGHT "design: onezero/\2512003onezero/contact: onezero@gmx.ch"
_OTF_FONTFILE "Q:\font stuff\winfont\Racer Regular.ttf"
_OTF_PSNAME "Racer"
ENDPROPERTIES
CHARS 120
STARTCHAR 0020
ENCODING 32
SWIDTH 335 0
DWIDTH 47 0
BBX 0 0 0 0
BITMAP
ENDCHAR
STARTCHAR 0021
ENCODING 33
SWIDTH 250 0
DWIDTH 35 0
BBX 21 107 0 -2
BITMAP
01FC00
07FF00
0FFF80
1FFFC0
3FFFE0
7FFFF0
7FFFF0
FFFFF8
FFFFF8
FFFFF8
FFFFF8
FFFFF8
FFFFF8
FFFFF8
FFFFF8
FFFFF8
FFFFF8
FFFFF8
FFFFF8
FFFFF8
FFFFF8
FFFFF8
FFFFF8
FFFFF8
FFFFF8
FFFFF8
FFFFF8
FFFFF8
FFFFF8
FFFFF8
FFFFF8
FFFFF8
FFFFF8
FFFFF8
FFFFF8
FFFFF8
FFFFF8
FFFFF8
FFFFF8
FFFFF8
FFFFF8
FFFFF8
FFFFF8
FFFFF8
FFFFF8
FFFFF8
FFFFF8
FFFFF8
FFFFF8
FFFFF8
FFFFF8
FFFFF8
FFFFF8
FFFFF8
FFFFF8
FFFFF8
FFFFF8
FFFFF8
FFFFF8
FFFFF8
FFFFF8
FFFFF8
FFFFF8
FFFFF8
FFFFF8
FFFFF8
FFFFF8
FFFFF8
FFFFF8
FFFFF8
FFFFF8
FFFFF8
FFFFF8
7FFFF0
7FFFF0
3FFFE0
1FFFC0
0FFF80
07FF00
01FC00
000000
000000
000000
000000
01FC00
07FF00
0FFF80
1FFFC0
3FFFE0
7FFFF0
7FFFF0
FFFFF8
FFFFF8
FFFFF8
FFFFF8
FFFFF8
FFFFF8
FFFFF8
FFFFF8
FFFFF8
7FFFF0
7FFFF0
3FFFE0
1FFFC0
0FFF80
07FF00
01FC00
ENDCHAR
STARTCHAR 0022
ENCODING 34
SWIDTH 435 0
DWIDTH 61 0
BBX 0 0 0 0
BITMAP
ENDCHAR
STARTCHAR 0023
ENCODING 35
SWIDTH 828 0
DWIDTH 116 0
BBX 0 0 0 0
BITMAP
ENDCHAR
STARTCHAR 0024
ENCODING 36
SWIDTH 764 0
DWIDTH 107 0
BBX 0 0 0 0
BITMAP
ENDCHAR
STARTCHAR 0025
ENCODING 37
SWIDTH 1321 0
DWIDTH 185 0
BBX 0 0 0 0
BITMAP
ENDCHAR
STARTCHAR 0026
ENCODING 38
SWIDTH 892 0
DWIDTH 125 0
BBX 109 104 0 0
BITMAP
000000000003FFFFFFFFFFC00000
00000000003FFFFFFFFFFFF80000
0000000001FFFFFFFFFFFFFE0000
0000000007FFFFFFFFFFFFFF8000
000000001FFFFFFFFFFFFFFFE000
000000007FFFFFFFFFFFFFFFF000
00000000FFFFFFFFFFFFFFFFF800
00000001FFFFFFFFFFFFFFFFFC00
00000003FFFFFFFFFFFFFFFFFE00
00000007FFFFFFFFFFFFFFFFFF00
0000000FFFFFFFFFFFFFFFFFFF80
0000001FFFFFFFFFFFFFFFFFFF80
0000003FFFFFFFFFFFFFFFFFFFC0
0000007FFFFFFFFFFFFFFFFFFFE0
0000007FFFFFFFFFFFFFFFFFFFE0
000000FFFFFFFFFFFFFFFFFFFFE0
000001FFFFFFFFFFFFFFFFFFFFF0
000001FFFFFFFFFFFFFFFFFFFFF0
000003FFFFFFFFFFFFFFFFFFFFF0
000003FFFFFFFFFFFFFFFFFFFFF8
000007FFFFFF0000000001FFFFF8
000007FFFFFC0000000000FFFFF8
000007FFFFF000000000007FFFF8
00000FFFFFE000000000007FFFF8
00000FFFFFC000000000007FFFF8
00000FFFFF8000000000007FFFF8
00000FFFFF8000000000007FFFF8
00001FFFFF0000000000003FFFF8
00001FFFFF0000000000003FFFF0
00001FFFFE0000000000003FFFF0
00001FFFFE0000000000001FFFE0
00001FFFFE0000000000000FFFE0
00001FFFFE00000000000007FFC0
00001FFFFE00000000000003FF00
00001FFFFE00000000000000FC00
00001FFFFF000000000000000000
00001FFFFF000000000000000000
00001FFFFF000000000000000000
00000FFFFF800000000000000000
00000FFFFF800000000000000000
00000FFFFFC00000000000000000
00000FFFFFE00000000000000000
000007FFFFF00000000000000000
000007FFFFF80000000000000000
000007FFFFFC0000000000000000
000003FFFFFE000000000000FC00
000003FFFFFE000000000003FF00
000001FFFFFF000000000007FFC0
000001FFFFFF80000000000FFFE0
000000FFFFFFC0000000001FFFE0
000001FFFFFFE0000000003FFFF0
00000FFFFFFFF0000000003FFFF0
00007FFFFFFFF0000000003FFFF8
0001FFFFFFFFF8000000007FFFF8
0007FFFFFFFFFC000000007FFFF8
001FFFFFFFFFFE000000007FFFF8
003FFFFFFFFFFF000000007FFFF8
007FFFFFFFFFFF800000007FFFF8
00FFFFFFFFFFFFC00000007FFFF8
01FFFFFFFFFFFFC00000007FFFF8
03FFFFFFFFFFFFE00000007FFFF8
07FFFFFFFFFFFFF00000007FFFF8
07FFFFFFFFFFFFF80000007FFFF8
0FFFFFFFFFFFFFFC0000007FFFF8
1FFFFFFFFFFFFFFE0000007FFFF8
1FFFFFFFFFFFFFFE0000007FFFF8
3FFFFFFFFFFFFFFF0000007FFFF8
3FFFFFFFFFFFFFFF8000007FFFF8
3FFFFFFFF9FFFFFFC000007FFFF8
7FFFFFFF81FFFFFFE000007FFFF8
7FFFFFFC00FFFFFFF000007FFFF8
7FFFFFE0007FFFFFF800007FFFF8
7FFFFF00003FFFFFF800007FFFF8
FFFFFC00001FFFFFFC00007FFFF8
FFFFF800000FFFFFFE00007FFFF8
FFFFF8000007FFFFFF00007FFFF8
FFFFF0000003FFFFFF8000FFFFF8
FFFFF0000003FFFFFFC000FFFFF8
FFFFF0000001FFFFFFE001FFFFF0
FFFFF0000000FFFFFFE001FFFFF0
FFFFF80000007FFFFFF003FFFFF0
FFFFF80000003FFFFFF807FFFFF0
7FFFFC0000001FFFFFFC1FFFFFE0
7FFFFF0000000FFFFFFE7FFFFFE0
7FFFFFFFFFFFFFFFFFFFFFFFFFE0
7FFFFFFFFFFFFFFFFFFFFFFFFFC0
3FFFFFFFFFFFFFFFFFFFFFFFFFC0
3FFFFFFFFFFFFFFFFFFFFFFFFF80
3FFFFFFFFFFFFFFFFFFFFFFFFF00
1FFFFFFFFFFFFFFFFFFFFFFFFF00
0FFFFFFFFFFFFFFFFFFFFFFFFE00
0FFFFFFFFFFFFFFFFFFFFFFFFC00
07FFFFFFFFFFFFFFFFFFFFFFF800
03FFFFFFFFFFFFFFFFFFFFFFF800
03FFFFFFFFFFFFFFFFFFFFFFF000
01FFFFFFFFFFFFFFFFFFFFFFC000
00FFFFFFFFFFFFFFFFFFFFFF8000
007FFFFFFFFFFFFFFFFFFFFF0000
003FFFFFFFFFFFFFFFFFFFFE0000
000FFFFFFFFFFFFFFFFFFFF80000
0007FFFFFFFFFFFFFFFFFFE00000
0001FFFFFFFFFFFFFFFFFF800000
00003FFFFFFFFFFFFFFFFE000000
000007FFFFFFFFFFFFFFC0000000
ENDCHAR
STARTCHAR 0027
ENCODING 39
SWIDTH 264 0
DWIDTH 37 0
BBX 0 0 0 0
BITMAP
ENDCHAR
STARTCHAR 0028
ENCODING 40
SWIDTH 342 0
DWIDTH 48 0
BBX 36 107 0 -2
BITMAP
00000FF000
00007FFE00
0003FFFF00
000FFFFF80
001FFFFFC0
003FFFFFC0
00FFFFFFE0
01FFFFFFE0
03FFFFFFF0
03FFFFFFF0
07FFFFFFF0
0FFFFFFFF0
1FFFFFFFF0
1FFFFFFFE0
3FFFFFFFE0
3FFFFFFFC0
3FFFFFFFC0
7FFFFFFF80
7FFFFFFF00
7FFFFFFE00
FFFFFFF000
FFFFFE0000
FFFFFC0000
FFFFF80000
FFFFF80000
FFFFF80000
FFFFF80000
FFFFF80000
FFFFF80000
FFFFF80000
FFFFF80000
FFFFF80000
FFFFF80000
FFFFF80000
FFFFF80000
FFFFF80000
FFFFF80000
FFFFF80000
FFFFF80000
FFFFF80000
FFFFF80000
FFFFF80000
FFFFF80000
FFFFF80000
FFFFF80000
FFFFF80000
FFFFF80000
FFFFF80000
FFFFF80000
FFFFF80000
FFFFF80000
FFFFF80000
FFFFF80000
FFFFF80000
FFFFF80000
FFFFF80000
FFFFF80000
FFFFF80000
FFFFF80000
FFFFF80000
FFFFF80000
FFFFF80000
FFFFF80000
FFFFF80000
FFFFF80000
FFFFF80000
FFFFF80000
FFFFF80000
FFFFF80000
FFFFF80000
FFFFF80000
FFFFF80000
FFFFF80000
FFFFF80000
FFFFF80000
FFFFF80000
FFFFF80000
FFFFF80000
FFFFF80000
FFFFF80000
FFFFF80000
FFFFF80000
FFFFF80000
FFFFF80000
FFFFFC0000
FFFFFE0000
FFFFFFF000
7FFFFFFE00
7FFFFFFF00
7FFFFFFF80
7FFFFFFFC0
3FFFFFFFC0
3FFFFFFFE0
1FFFFFFFE0
1FFFFFFFF0
0FFFFFFFF0
07FFFFFFF0
03FFFFFFF0
03FFFFFFF0
01FFFFFFE0
00FFFFFFE0
003FFFFFC0
001FFFFFC0
000FFFFF80
0003FFFF00
0000FFFE00
00000FF000
ENDCHAR
STARTCHAR 0029
ENCODING 41
SWIDTH 342 0
DWIDTH 48 0
BBX 36 107 0 -2
BITMAP
01FF000000
07FFE00000
0FFFFC0000
1FFFFE0000
3FFFFF8000
7FFFFFC000
7FFFFFE000
FFFFFFF800
FFFFFFF800
FFFFFFFC00
FFFFFFFE00
FFFFFFFF00
FFFFFFFF00
FFFFFFFF80
7FFFFFFFC0
7FFFFFFFC0
3FFFFFFFC0
1FFFFFFFE0
0FFFFFFFE0
07FFFFFFE0
01FFFFFFF0
0007FFFFF0
0003FFFFF0
0001FFFFF0
0001FFFFF0
0001FFFFF0
0001FFFFF0
0001FFFFF0
0001FFFFF0
0001FFFFF0
0001FFFFF0
0001FFFFF0
0001FFFFF0
0001FFFFF0
0001FFFFF0
0001FFFFF0
0001FFFFF0
0001FFFFF0
0001FFFFF0
0001FFFFF0
0001FFFFF0
0001FFFFF0
0001FFFFF0
0001FFFFF0
0001FFFFF0
0001FFFFF0
0001FFFFF0
0001FFFFF0
0001FFFFF0
0001FFFFF0
0001FFFFF0
0001FFFFF0
0001FFFFF0
0001FFFFF0
0001FFFFF0
0001FFFFF0
0001FFFFF0
0001FFFFF0
0001FFFFF0
0001FFFFF0
0001FFFFF0
0001FFFFF0
0001FFFFF0
0001FFFFF0
0001FFFFF0
0001FFFFF0
0001FFFFF0
0001FFFFF0
0001FFFFF0
0001FFFFF0
0001FFFFF0
0001FFFFF0
0001FFFFF0
0001FFFFF0
0001FFFFF0
0001FFFFF0
0001FFFFF0
0001FFFFF0
0001FFFFF0
0001FFFFF0
0001FFFFF0
0001FFFFF0
0001FFFFF0
0001FFFFF0
0003FFFFF0
0007FFFFF0
01FFFFFFF0
07FFFFFFE0
0FFFFFFFE0
1FFFFFFFE0
3FFFFFFFC0
7FFFFFFFC0
7FFFFFFFC0
FFFFFFFF80
FFFFFFFF80
FFFFFFFF00
FFFFFFFE00
FFFFFFFC00
FFFFFFFC00
FFFFFFF800
7FFFFFF000
7FFFFFC000
3FFFFF8000
1FFFFF0000
0FFFFC0000
07FFE00000
01FF000000
ENDCHAR
STARTCHAR 002A
ENCODING 42
SWIDTH 935 0
DWIDTH 131 0
BBX 0 0 0 0
BITMAP
ENDCHAR
STARTCHAR 002B
ENCODING 43
SWIDTH 621 0
DWIDTH 87 0
BBX 0 0 0 0
BITMAP
ENDCHAR
STARTCHAR 002C
ENCODING 44
SWIDTH 250 0
DWIDTH 35 0
BBX 24 35 0 -13
BITMAP
003F80
00FFE0
01FFF0
03FFF8
07FFFC
0FFFFE
0FFFFE
0FFFFF
1FFFFF
1FFFFF
1FFFFF
1FFFFF
1FFFFF
3FFFFF
3FFFFE
3FFFFE
3FFFFE
7FFFFE
7FFFFE
7FFFFC
7FFFFC
FFFFFC
FFFFFC
FFFFF8
FFFFF8
FFFFF8
FFFFF8
FFFFF0
7FFFF0
7FFFF0
3FFFE0
1FFFC0
0FFF80
07FF00
01FC00
ENDCHAR
STARTCHAR 002D
ENCODING 45
SWIDTH 564 0
DWIDTH 79 0
BBX 67 21 0 35
BITMAP
01FFFFFFFFFFFFF000
07FFFFFFFFFFFFFC00
1FFFFFFFFFFFFFFE00
1FFFFFFFFFFFFFFF00
3FFFFFFFFFFFFFFF80
7FFFFFFFFFFFFFFFC0
7FFFFFFFFFFFFFFFC0
FFFFFFFFFFFFFFFFE0
FFFFFFFFFFFFFFFFE0
FFFFFFFFFFFFFFFFE0
FFFFFFFFFFFFFFFFE0
FFFFFFFFFFFFFFFFE0
FFFFFFFFFFFFFFFFE0
FFFFFFFFFFFFFFFFE0
7FFFFFFFFFFFFFFFC0
7FFFFFFFFFFFFFFFC0
3FFFFFFFFFFFFFFF80
1FFFFFFFFFFFFFFF00
0FFFFFFFFFFFFFFE00
07FFFFFFFFFFFFFC00
01FFFFFFFFFFFFF000
ENDCHAR
STARTCHAR 002E
ENCODING 46
SWIDTH 250 0
DWIDTH 35 0
BBX 21 23 0 -2
BITMAP
01FC00
07FF00
0FFF80
1FFFC0
3FFFE0
7FFFF0
7FFFF0
FFFFF8
FFFFF8
FFFFF8
FFFFF8
FFFFF8
FFFFF8
FFFFF8
FFFFF8
FFFFF8
7FFFF0
7FFFF0
3FFFE0
1FFFC0
0FFF80
07FF00
01FC00
ENDCHAR
STARTCHAR 002F
ENCODING 47
SWIDTH 378 0
DWIDTH 53 0
BBX 42 108 0 -2
BITMAP
0000000FC000
0000003FF000
000000FFFC00
000001FFFE00
000003FFFF00
000003FFFF00
000007FFFF80
000007FFFF80
000007FFFF80
000007FFFFC0
00000FFFFFC0
00000FFFFF80
00000FFFFF80
00000FFFFF80
00001FFFFF80
00001FFFFF80
00001FFFFF00
00001FFFFF00
00003FFFFF00
00003FFFFF00
00003FFFFE00
00003FFFFE00
00007FFFFE00
00007FFFFE00
00007FFFFE00
00007FFFFC00
00007FFFFC00
0000FFFFFC00
0000FFFFFC00
0000FFFFF800
0000FFFFF800
0001FFFFF800
0001FFFFF800
0001FFFFF000
0001FFFFF000
0003FFFFF000
0003FFFFF000
0003FFFFE000
0003FFFFE000
0007FFFFE000
0007FFFFE000
0007FFFFE000
0007FFFFC000
000FFFFFC000
000FFFFFC000
000FFFFFC000
000FFFFF8000
000FFFFF8000
001FFFFF8000
001FFFFF8000
001FFFFF0000
001FFFFF0000
003FFFFF0000
003FFFFF0000
003FFFFE0000
003FFFFE0000
007FFFFE0000
007FFFFE0000
007FFFFE0000
007FFFFC0000
00FFFFFC0000
00FFFFFC0000
00FFFFFC0000
00FFFFF80000
00FFFFF80000
01FFFFF80000
01FFFFF80000
01FFFFF00000
01FFFFF00000
03FFFFF00000
03FFFFF00000
03FFFFE00000
03FFFFE00000
07FFFFE00000
07FFFFE00000
07FFFFC00000
07FFFFC00000
0FFFFFC00000
0FFFFFC00000
0FFFFFC00000
0FFFFF800000
1FFFFF800000
1FFFFF800000
1FFFFF800000
1FFFFF000000
1FFFFF000000
3FFFFF000000
3FFFFF000000
3FFFFE000000
3FFFFE000000
7FFFFE000000
7FFFFE000000
7FFFFC000000
7FFFFC000000
FFFFFC000000
FFFFFC000000
FFFFFC000000
FFFFF8000000
FFFFF8000000
FFFFF8000000
FFFFF8000000
7FFFF0000000
7FFFF0000000
3FFFE0000000
1FFFC0000000
0FFF80000000
07FF00000000
01FC00000000
ENDCHAR
STARTCHAR 0030
ENCODING 48
SWIDTH 892 0
DWIDTH 125 0
BBX 109 104 0 0
BITMAP
000000001FFFFFFFFFFFFFC00000
00000001FFFFFFFFFFFFFFF80000
0000000FFFFFFFFFFFFFFFFF0000
0000003FFFFFFFFFFFFFFFFF8000
0000007FFFFFFFFFFFFFFFFFE000
000001FFFFFFFFFFFFFFFFFFF000
000003FFFFFFFFFFFFFFFFFFF800
00000FFFFFFFFFFFFFFFFFFFFC00
00001FFFFFFFFFFFFFFFFFFFFE00
00003FFFFFFFFFFFFFFFFFFFFF00
00007FFFFFFFFFFFFFFFFFFFFF80
0000FFFFFFFFFFFFFFFFFFFFFF80
0000FFFFFFFFFFFFFFFFFFFFFFC0
0001FFFFFFFFFFFFFFFFFFFFFFC0
0003FFFFFFFFFFFFFFFFFFFFFFE0
0007FFFFFFFFFFFFFFFFFFFFFFE0
0007FFFFFFFFFFFFFFFFFFFFFFF0
000FFFFFFFFFFFFFFFFFFFFFFFF0
000FFFFFFFFFFFFFFFFFFFFFFFF0
001FFFFFFFFFFFFFFFFFFFFFFFF8
001FFFFFFC000000000001FFFFF8
003FFFFFE0000000000000FFFFF8
003FFFFFC00000000000007FFFF8
003FFFFF800000000000007FFFF8
003FFFFF800000000000007FFFF8
007FFFFF800000000000007FFFF8
007FFFFF800000000000007FFFF8
007FFFFF000000000000007FFFF8
007FFFFF000000000000007FFFF8
00FFFFFF000000000000007FFFF8
00FFFFFF000000000000007FFFF8
00FFFFFE000000000000007FFFF8
00FFFFFE000000000000007FFFF8
00FFFFFE000000000000007FFFF8
01FFFFFE000000000000007FFFF8
01FFFFFC000000000000007FFFF8
01FFFFFC000000000000007FFFF8
01FFFFFC000000000000007FFFF8
01FFFFF8000000000000007FFFF8
03FFFFF8000000000000007FFFF8
03FFFFF8000000000000007FFFF8
03FFFFF8000000000000007FFFF8
03FFFFF0000000000000007FFFF8
07FFFFF0000000000000007FFFF8
07FFFFF0000000000000007FFFF8
07FFFFE0000000000000007FFFF8
07FFFFE0000000000000007FFFF8
07FFFFE0000000000000007FFFF8
0FFFFFE0000000000000007FFFF8
0FFFFFC0000000000000007FFFF8
0FFFFFC0000000000000007FFFF8
0FFFFFC0000000000000007FFFF8
1FFFFF80000000000000007FFFF8
1FFFFF80000000000000007FFFF8
1FFFFF80000000000000007FFFF8
1FFFFF00000000000000007FFFF8
1FFFFF00000000000000007FFFF8
3FFFFF00000000000000007FFFF8
3FFFFF00000000000000007FFFF8
3FFFFE00000000000000007FFFF8
3FFFFE00000000000000007FFFF8
7FFFFE00000000000000007FFFF8
7FFFFC00000000000000007FFFF8
7FFFFC00000000000000007FFFF8
7FFFFC00000000000000007FFFF8
7FFFF800000000000000007FFFF8
FFFFF800000000000000007FFFF8
FFFFF800000000000000007FFFF8
FFFFF000000000000000007FFFF8
FFFFF000000000000000007FFFF8
FFFFF000000000000000007FFFF8
FFFFF000000000000000007FFFF8
FFFFF000000000000000007FFFF8
FFFFF000000000000000007FFFF8
FFFFF000000000000000007FFFF8
FFFFF800000000000000007FFFF8
FFFFF800000000000000007FFFF8
FFFFF800000000000000007FFFF8
7FFFFC00000000000000007FFFF8
7FFFFE00000000000000007FFFF8
7FFFFF00000000000000007FFFF8
7FFFFF80000000000000007FFFF8
3FFFFFC000000000000000FFFFF8
3FFFFFF800000000000001FFFFF8
1FFFFFFFFFFFFFFFFFFFFFFFFFF8
1FFFFFFFFFFFFFFFFFFFFFFFFFF0
0FFFFFFFFFFFFFFFFFFFFFFFFFF0
0FFFFFFFFFFFFFFFFFFFFFFFFFF0
07FFFFFFFFFFFFFFFFFFFFFFFFE0
07FFFFFFFFFFFFFFFFFFFFFFFFE0
03FFFFFFFFFFFFFFFFFFFFFFFFC0
01FFFFFFFFFFFFFFFFFFFFFFFFC0
00FFFFFFFFFFFFFFFFFFFFFFFF80
007FFFFFFFFFFFFFFFFFFFFFFF80
003FFFFFFFFFFFFFFFFFFFFFFF00
001FFFFFFFFFFFFFFFFFFFFFFE00
000FFFFFFFFFFFFFFFFFFFFFFC00
0007FFFFFFFFFFFFFFFFFFFFF800
0003FFFFFFFFFFFFFFFFFFFFF000
0000FFFFFFFFFFFFFFFFFFFFE000
00003FFFFFFFFFFFFFFFFFFF8000
00000FFFFFFFFFFFFFFFFFFF0000
000003FFFFFFFFFFFFFFFFF80000
0000001FFFFFFFFFFFFFFFC00000
ENDCHAR
STARTCHAR 0031
ENCODING 49
SWIDTH 385 0
DWIDTH 54 0
BBX 44 106 0 -2
BITMAP
01FF00000000
07FFF8000000
0FFFFF000000
1FFFFFC00000
3FFFFFF00000
7FFFFFF80000
7FFFFFFC0000
7FFFFFFF0000
FFFFFFFF8000
FFFFFFFFC000
FFFFFFFFE000
FFFFFFFFF000
FFFFFFFFF800
7FFFFFFFFC00
7FFFFFFFFC00
7FFFFFFFFE00
3FFFFFFFFF00
1FFFFFFFFF00
0FFFFFFFFF80
07FFFFFFFF80
01FFFFFFFFC0
0003FFFFFFC0
0000FFFFFFC0
00003FFFFFE0
00001FFFFFE0
00000FFFFFE0
000007FFFFE0
000003FFFFF0
000003FFFFF0
000003FFFFF0
000001FFFFF0
000001FFFFF0
000001FFFFF0
000001FFFFF0
000001FFFFF0
000001FFFFF0
000001FFFFF0
000001FFFFF0
000001FFFFF0
000001FFFFF0
000001FFFFF0
000001FFFFF0
000001FFFFF0
000001FFFFF0
000001FFFFF0
000001FFFFF0
000001FFFFF0
000001FFFFF0
000001FFFFF0
000001FFFFF0
000001FFFFF0
000001FFFFF0
000001FFFFF0
000001FFFFF0
000001FFFFF0
000001FFFFF0
000001FFFFF0
000001FFFFF0
000001FFFFF0
000001FFFFF0
000001FFFFF0
000001FFFFF0
000001FFFFF0
000001FFFFF0
000001FFFFF0
000001FFFFF0
000001FFFFF0
000001FFFFF0
000001FFFFF0
000001FFFFF0
000001FFFFF0
000001FFFFF0
000001FFFFF0
000001FFFFF0
000001FFFFF0
000001FFFFF0
000001FFFFF0
000001FFFFF0
000001FFFFF0
000001FFFFF0
000001FFFFF0
000001FFFFF0
000001FFFFF0
000001FFFFF0
000001FFFFF0
000001FFFFF0
000001FFFFF0
000001FFFFF0
000001FFFFF0
000001FFFFF0
000001FFFFF0
000001FFFFF0
000001FFFFF0
000001FFFFF0
000001FFFFF0
000001FFFFF0
000001FFFFF0
000001FFFFF0
000001FFFFF0
000000FFFFE0
000000FFFFE0
0000007FFFC0
0000003FFF80
0000001FFF00
0000000FFE00
00000003F800
ENDCHAR
STARTCHAR 0032
ENCODING 50
SWIDTH 892 0
DWIDTH 125 0
BBX 109 104 0 0
BITMAP
00001FFFFFFFFFFFFFFFF8000000
0000FFFFFFFFFFFFFFFFFF800000
0003FFFFFFFFFFFFFFFFFFE00000
000FFFFFFFFFFFFFFFFFFFF80000
003FFFFFFFFFFFFFFFFFFFFE0000
007FFFFFFFFFFFFFFFFFFFFF8000
00FFFFFFFFFFFFFFFFFFFFFFC000
01FFFFFFFFFFFFFFFFFFFFFFE000
03FFFFFFFFFFFFFFFFFFFFFFF000
07FFFFFFFFFFFFFFFFFFFFFFF800
07FFFFFFFFFFFFFFFFFFFFFFFC00
0FFFFFFFFFFFFFFFFFFFFFFFFE00
1FFFFFFFFFFFFFFFFFFFFFFFFE00
1FFFFFFFFFFFFFFFFFFFFFFFFF00
3FFFFFFFFFFFFFFFFFFFFFFFFF80
3FFFFFFFFFFFFFFFFFFFFFFFFF80
7FFFFFFFFFFFFFFFFFFFFFFFFFC0
7FFFFFFFFFFFFFFFFFFFFFFFFFC0
7FFFFFFFFFFFFFFFFFFFFFFFFFE0
7FFFFFFFFFFFFFFFFFFFFFFFFFE0
FFFFFFFFFFFFFFFFFFFFFFFFFFF0
FFFFFC000000000000001FFFFFF0
FFFFF80000000000000007FFFFF0
FFFFF00000000000000003FFFFF0
FFFFF00000000000000001FFFFF8
FFFFF00000000000000000FFFFF8
FFFFF00000000000000000FFFFF8
FFFFF000000000000000007FFFF8
7FFFE000000000000000007FFFF8
7FFFE000000000000000007FFFF8
7FFFC000000000000000007FFFF8
3FFFC000000000000000007FFFF8
1FFF8000000000000000007FFFF8
0FFF000000000000000000FFFFF8
03FC000000000000000000FFFFF8
0000000000000000000001FFFFF8
0000000000000000000003FFFFF0
0000000000000000000007FFFFF0
000000000000000000001FFFFFF0
0000001FFFFFFFFFFFFFFFFFFFF0
000001FFFFFFFFFFFFFFFFFFFFE0
00000FFFFFFFFFFFFFFFFFFFFFE0
00003FFFFFFFFFFFFFFFFFFFFFC0
0000FFFFFFFFFFFFFFFFFFFFFFC0
0003FFFFFFFFFFFFFFFFFFFFFF80
0007FFFFFFFFFFFFFFFFFFFFFF80
000FFFFFFFFFFFFFFFFFFFFFFF00
001FFFFFFFFFFFFFFFFFFFFFFF00
003FFFFFFFFFFFFFFFFFFFFFFE00
007FFFFFFFFFFFFFFFFFFFFFFC00
00FFFFFFFFFFFFFFFFFFFFFFF800
01FFFFFFFFFFFFFFFFFFFFFFF000
03FFFFFFFFFFFFFFFFFFFFFFE000
07FFFFFFFFFFFFFFFFFFFFFFC000
07FFFFFFFFFFFFFFFFFFFFFF8000
0FFFFFFFFFFFFFFFFFFFFFFE0000
0FFFFFFFFFFFFFFFFFFFFFFC0000
1FFFFFFFFFFFFFFFFFFFFFF00000
1FFFFFFFFFFFFFFFFFFFFF800000
3FFFFFFFFFFFFFFFFFFFF8000000
3FFFFFF800000000000000000000
7FFFFFC000000000000000000000
7FFFFF8000000000000000000000
7FFFFF0000000000000000000000
7FFFFE0000000000000000000000
7FFFFC0000000000000000000000
FFFFF80000000000000000000000
FFFFF80000000000000000000000
FFFFF00000000000000000000000
FFFFF00000000000000000000000
FFFFF00000000000000000000000
FFFFF00000000000000000000000
FFFFF00000000000000000000000
FFFFF00000000000000000000000
FFFFF00000000000000000000000
FFFFF00000000000000000000000
FFFFF80000000000000000000000
FFFFF80000000000000000000000
7FFFFC0000000000000000000000
7FFFFE0000000000000000000000
7FFFFF0000000000000000000000
7FFFFF8000000000000000000000
3FFFFFC000000000000000000000
3FFFFFF000000000000000000000
1FFFFFFFFFFFFFFFFFFFFFFFF800
1FFFFFFFFFFFFFFFFFFFFFFFFF00
0FFFFFFFFFFFFFFFFFFFFFFFFF80
0FFFFFFFFFFFFFFFFFFFFFFFFFC0
07FFFFFFFFFFFFFFFFFFFFFFFFE0
07FFFFFFFFFFFFFFFFFFFFFFFFE0
03FFFFFFFFFFFFFFFFFFFFFFFFF0
01FFFFFFFFFFFFFFFFFFFFFFFFF0
00FFFFFFFFFFFFFFFFFFFFFFFFF0
007FFFFFFFFFFFFFFFFFFFFFFFF0
003FFFFFFFFFFFFFFFFFFFFFFFF0
001FFFFFFFFFFFFFFFFFFFFFFFF0
000FFFFFFFFFFFFFFFFFFFFFFFF0
0007FFFFFFFFFFFFFFFFFFFFFFF0
0003FFFFFFFFFFFFFFFFFFFFFFE0
0000FFFFFFFFFFFFFFFFFFFFFFE0
00003FFFFFFFFFFFFFFFFFFFFFC0
00000FFFFFFFFFFFFFFFFFFFFF80
000003FFFFFFFFFFFFFFFFFFFF00
0000001FFFFFFFFFFFFFFFFFF800
ENDCHAR
STARTCHAR 0033
ENCODING 51
SWIDTH 892 0
DWIDTH 125 0
BBX 109 104 0 0
BITMAP
00001FFFFFFFFFFFFFFFC0000000
0000FFFFFFFFFFFFFFFFFC000000
0003FFFFFFFFFFFFFFFFFF800000
000FFFFFFFFFFFFFFFFFFFE00000
003FFFFFFFFFFFFFFFFFFFF00000
007FFFFFFFFFFFFFFFFFFFFC0000
00FFFFFFFFFFFFFFFFFFFFFE0000
01FFFFFFFFFFFFFFFFFFFFFF0000
03FFFFFFFFFFFFFFFFFFFFFF8000
07FFFFFFFFFFFFFFFFFFFFFFC000
0FFFFFFFFFFFFFFFFFFFFFFFE000
0FFFFFFFFFFFFFFFFFFFFFFFF000
1FFFFFFFFFFFFFFFFFFFFFFFF800
1FFFFFFFFFFFFFFFFFFFFFFFF800
3FFFFFFFFFFFFFFFFFFFFFFFFC00
3FFFFFFFFFFFFFFFFFFFFFFFFC00
7FFFFFFFFFFFFFFFFFFFFFFFFE00
7FFFFFFFFFFFFFFFFFFFFFFFFE00
7FFFFFFFFFFFFFFFFFFFFFFFFF00
7FFFFFFFFFFFFFFFFFFFFFFFFF00
FFFFFFFFFFFFFFFFFFFFFFFFFF80
FFFFFC00000000000000FFFFFF80
FFFFF8000000000000003FFFFF80
FFFFF0000000000000001FFFFF80
FFFFF0000000000000000FFFFFC0
FFFFF00000000000000007FFFFC0
FFFFF00000000000000007FFFFC0
FFFFF00000000000000003FFFFC0
7FFFE00000000000000003FFFFC0
7FFFE00000000000000003FFFFC0
3FFFC00000000000000003FFFFC0
3FFFC00000000000000003FFFFC0
1FFF800000000000000003FFFFC0
07FF000000000000000007FFFFC0
01FC000000000000000007FFFFC0
000000000000000000000FFFFF80
000000000000000000001FFFFF80
000000000000000000003FFFFF80
00000000000000000000FFFFFF80
000000000000003FFFFFFFFFFF00
00000000000000FFFFFFFFFFFF00
00000000000001FFFFFFFFFFFF00
00000000000003FFFFFFFFFFFE00
00000000000007FFFFFFFFFFFE00
0000000000000FFFFFFFFFFFFC00
0000000000000FFFFFFFFFFFFC00
0000000000000FFFFFFFFFFFF800
0000000000001FFFFFFFFFFFF000
0000000000001FFFFFFFFFFFF000
0000000000001FFFFFFFFFFFF800
0000000000001FFFFFFFFFFFFC00
0000000000001FFFFFFFFFFFFC00
0000000000000FFFFFFFFFFFFE00
0000000000000FFFFFFFFFFFFF00
0000000000000FFFFFFFFFFFFF00
00000000000007FFFFFFFFFFFF80
00000000000003FFFFFFFFFFFFC0
00000000000001FFFFFFFFFFFFC0
00000000000000FFFFFFFFFFFFE0
000000000000003FFFFFFFFFFFE0
00000000000000000000FFFFFFE0
000000000000000000003FFFFFF0
000000000000000000000FFFFFF0
0000000000000000000007FFFFF0
0000000000000000000003FFFFF0
0000000000000000000001FFFFF8
0000000000000000000000FFFFF8
0000000000000000000000FFFFF8
0000000000000000000000FFFFF8
00F00000000000000000007FFFF8
07FE0000000000000000007FFFF8
0FFF0000000000000000007FFFF8
1FFF8000000000000000007FFFF8
3FFFC000000000000000007FFFF8
7FFFE000000000000000007FFFF8
7FFFE00000000000000000FFFFF8
FFFFF00000000000000000FFFFF8
FFFFF00000000000000000FFFFF0
FFFFF00000000000000001FFFFF0
FFFFF00000000000000003FFFFF0
FFFFF00000000000000007FFFFF0
FFFFF0000000000000000FFFFFE0
FFFFF8000000000000001FFFFFE0
FFFFFC000000000000007FFFFFE0
FFFFFFFFFFFFFFFFFFFFFFFFFFC0
7FFFFFFFFFFFFFFFFFFFFFFFFFC0
7FFFFFFFFFFFFFFFFFFFFFFFFF80
7FFFFFFFFFFFFFFFFFFFFFFFFF80
3FFFFFFFFFFFFFFFFFFFFFFFFF00
3FFFFFFFFFFFFFFFFFFFFFFFFF00
1FFFFFFFFFFFFFFFFFFFFFFFFE00
1FFFFFFFFFFFFFFFFFFFFFFFFC00
0FFFFFFFFFFFFFFFFFFFFFFFF800
0FFFFFFFFFFFFFFFFFFFFFFFF000
07FFFFFFFFFFFFFFFFFFFFFFE000
03FFFFFFFFFFFFFFFFFFFFFFC000
01FFFFFFFFFFFFFFFFFFFFFF8000
00FFFFFFFFFFFFFFFFFFFFFF0000
007FFFFFFFFFFFFFFFFFFFFE0000
003FFFFFFFFFFFFFFFFFFFF80000
000FFFFFFFFFFFFFFFFFFFE00000
0003FFFFFFFFFFFFFFFFFF800000
0000FFFFFFFFFFFFFFFFFE000000
00001FFFFFFFFFFFFFFFC0000000
ENDCHAR
STARTCHAR 0034
ENCODING 52
SWIDTH 892 0
DWIDTH 125 0
BBX 112 108 0 -2
BITMAP
01FC000000000000000000003F80
07FF00000000000000000000FFE0
0FFF80000000000000000001FFF0
1FFFC0000000000000000007FFF8
3FFFE0000000000000000007FFFC
7FFFF000000000000000000FFFFE
7FFFF000000000000000000FFFFE
FFFFF000000000000000001FFFFE
FFFFF800000000000000001FFFFF
FFFFF800000000000000001FFFFF
FFFFF800000000000000001FFFFF
FFFFF800000000000000001FFFFF
FFFFF800000000000000001FFFFF
FFFFF800000000000000001FFFFF
FFFFF800000000000000001FFFFF
FFFFF800000000000000001FFFFF
FFFFF800000000000000001FFFFF
FFFFF800000000000000001FFFFF
FFFFF800000000000000001FFFFF
FFFFF800000000000000001FFFFF
FFFFF800000000000000001FFFFF
FFFFF800000000000000001FFFFF
FFFFF800000000000000001FFFFF
FFFFF800000000000000001FFFFF
FFFFF800000000000000001FFFFF
FFFFF800000000000000001FFFFF
FFFFF800000000000000001FFFFF
FFFFF800000000000000001FFFFF
FFFFF800000000000000001FFFFF
FFFFF800000000000000001FFFFF
FFFFF800000000000000001FFFFF
FFFFF800000000000000001FFFFF
FFFFF800000000000000001FFFFF
FFFFF800000000000000001FFFFF
FFFFF800000000000000001FFFFF
FFFFF800000000000000001FFFFF
FFFFF800000000000000001FFFFF
FFFFF800000000000000001FFFFF
FFFFF800000000000000001FFFFF
FFFFF800000000000000001FFFFF
FFFFF800000000000000001FFFFF
FFFFF800000000000000001FFFFF
FFFFF800000000000000001FFFFF
FFFFF800000000000000001FFFFF
FFFFF800000000000000001FFFFF
FFFFF800000000000000001FFFFF
FFFFF800000000000000001FFFFF
FFFFF800000000000000001FFFFF
FFFFF800000000000000001FFFFF
FFFFF800000000000000001FFFFF
FFFFF800000000000000001FFFFF
FFFFFC00000000000000001FFFFF
FFFFFC00000000000000001FFFFF
FFFFFE00000000000000001FFFFF
7FFFFE00000000000000001FFFFF
7FFFFF00000000000000001FFFFF
7FFFFF80000000000000001FFFFF
7FFFFFE0000000000000001FFFFF
3FFFFFF8000000000000001FFFFF
3FFFFFFFFFFFFFFFFFFFFFFFFFFF
3FFFFFFFFFFFFFFFFFFFFFFFFFFF
1FFFFFFFFFFFFFFFFFFFFFFFFFFF
1FFFFFFFFFFFFFFFFFFFFFFFFFFF
0FFFFFFFFFFFFFFFFFFFFFFFFFFF
0FFFFFFFFFFFFFFFFFFFFFFFFFFF
07FFFFFFFFFFFFFFFFFFFFFFFFFF
03FFFFFFFFFFFFFFFFFFFFFFFFFF
03FFFFFFFFFFFFFFFFFFFFFFFFFF
01FFFFFFFFFFFFFFFFFFFFFFFFFF
00FFFFFFFFFFFFFFFFFFFFFFFFFF
007FFFFFFFFFFFFFFFFFFFFFFFFF
003FFFFFFFFFFFFFFFFFFFFFFFFF
001FFFFFFFFFFFFFFFFFFFFFFFFF
000FFFFFFFFFFFFFFFFFFFFFFFFF
0007FFFFFFFFFFFFFFFFFFFFFFFF
0001FFFFFFFFFFFFFFFFFFFFFFFF
0000FFFFFFFFFFFFFFFFFFFFFFFF
00003FFFFFFFFFFFFFFFFFFFFFFF
00000FFFFFFFFFFFFFFFFFFFFFFF
000001FFFFFFFFFFFFFFFFFFFFFF
0000001FFFFFFFFFFFFFFFFFFFFF
00000000000000000000001FFFFF
00000000000000000000001FFFFF
00000000000000000000001FFFFF
00000000000000000000001FFFFF
00000000000000000000001FFFFF
00000000000000000000001FFFFF
00000000000000000000001FFFFF
00000000000000000000001FFFFF
00000000000000000000001FFFFF
00000000000000000000001FFFFF
00000000000000000000001FFFFF
00000000000000000000001FFFFF
00000000000000000000001FFFFF
00000000000000000000001FFFFF
00000000000000000000001FFFFF
00000000000000000000001FFFFF
00000000000000000000001FFFFF
00000000000000000000001FFFFF
00000000000000000000001FFFFF
00000000000000000000001FFFFE
00000000000000000000000FFFFE
00000000000000000000000FFFFE
000000000000000000000007FFFC
000000000000000000000007FFF8
000000000000000000000003FFF0
000000000000000000000000FFE0
0000000000000000000000003F80
ENDCHAR
STARTCHAR 0035
ENCODING 53
SWIDTH 892 0
DWIDTH 125 0
BBX 109 104 0 0
BITMAP
000000FFFFFFFFFFFFFFFFFFF800
00000FFFFFFFFFFFFFFFFFFFFE00
00007FFFFFFFFFFFFFFFFFFFFF80
0001FFFFFFFFFFFFFFFFFFFFFFC0
0003FFFFFFFFFFFFFFFFFFFFFFE0
000FFFFFFFFFFFFFFFFFFFFFFFE0
001FFFFFFFFFFFFFFFFFFFFFFFF0
003FFFFFFFFFFFFFFFFFFFFFFFF0
007FFFFFFFFFFFFFFFFFFFFFFFF0
00FFFFFFFFFFFFFFFFFFFFFFFFF0
01FFFFFFFFFFFFFFFFFFFFFFFFF0
03FFFFFFFFFFFFFFFFFFFFFFFFF0
07FFFFFFFFFFFFFFFFFFFFFFFFF0
07FFFFFFFFFFFFFFFFFFFFFFFFF0
0FFFFFFFFFFFFFFFFFFFFFFFFFF0
1FFFFFFFFFFFFFFFFFFFFFFFFFE0
1FFFFFFFFFFFFFFFFFFFFFFFFFC0
3FFFFFFFFFFFFFFFFFFFFFFFFFC0
3FFFFFFFFFFFFFFFFFFFFFFFFF80
3FFFFFFFFFFFFFFFFFFFFFFFFE00
7FFFFFFFFFFFFFFFFFFFFFFFF800
7FFFFFC000000000000000000000
7FFFFF0000000000000000000000
FFFFFE0000000000000000000000
FFFFFC0000000000000000000000
FFFFF80000000000000000000000
FFFFF80000000000000000000000
FFFFF00000000000000000000000
FFFFF00000000000000000000000
FFFFF00000000000000000000000
FFFFF00000000000000000000000
FFFFF00000000000000000000000
FFFFF00000000000000000000000
FFFFF80000000000000000000000
FFFFF80000000000000000000000
FFFFFC0000000000000000000000
FFFFFE0000000000000000000000
7FFFFF0000000000000000000000
7FFFFFC000000000000000000000
7FFFFFFFFFFFFFFFFFFFC0000000
3FFFFFFFFFFFFFFFFFFFFC000000
3FFFFFFFFFFFFFFFFFFFFF800000
3FFFFFFFFFFFFFFFFFFFFFE00000
1FFFFFFFFFFFFFFFFFFFFFF80000
1FFFFFFFFFFFFFFFFFFFFFFC0000
0FFFFFFFFFFFFFFFFFFFFFFF0000
07FFFFFFFFFFFFFFFFFFFFFF8000
07FFFFFFFFFFFFFFFFFFFFFFC000
03FFFFFFFFFFFFFFFFFFFFFFE000
01FFFFFFFFFFFFFFFFFFFFFFF000
00FFFFFFFFFFFFFFFFFFFFFFF800
007FFFFFFFFFFFFFFFFFFFFFFC00
003FFFFFFFFFFFFFFFFFFFFFFE00
001FFFFFFFFFFFFFFFFFFFFFFE00
000FFFFFFFFFFFFFFFFFFFFFFF00
0003FFFFFFFFFFFFFFFFFFFFFF80
0001FFFFFFFFFFFFFFFFFFFFFF80
00007FFFFFFFFFFFFFFFFFFFFFC0
00000FFFFFFFFFFFFFFFFFFFFFC0
000000FFFFFFFFFFFFFFFFFFFFE0
00000000000000000000FFFFFFE0
000000000000000000001FFFFFE0
000000000000000000000FFFFFF0
0000000000000000000007FFFFF0
0000000000000000000003FFFFF0
0000000000000000000001FFFFF0
0000000000000000000001FFFFF8
0000000000000000000000FFFFF8
0000000000000000000000FFFFF8
00F00000000000000000007FFFF8
07FC0000000000000000007FFFF8
0FFF0000000000000000007FFFF8
1FFF8000000000000000007FFFF8
3FFFC000000000000000007FFFF8
7FFFC000000000000000007FFFF8
7FFFE00000000000000000FFFFF8
FFFFE00000000000000000FFFFF0
FFFFF00000000000000000FFFFF0
FFFFF00000000000000001FFFFF0
FFFFF00000000000000003FFFFF0
FFFFF00000000000000007FFFFF0
FFFFF0000000000000000FFFFFE0
FFFFF8000000000000001FFFFFE0
FFFFFC00000000000000FFFFFFE0
FFFFFFFFFFFFFFFFFFFFFFFFFFC0
7FFFFFFFFFFFFFFFFFFFFFFFFFC0
7FFFFFFFFFFFFFFFFFFFFFFFFF80
7FFFFFFFFFFFFFFFFFFFFFFFFF80
7FFFFFFFFFFFFFFFFFFFFFFFFF00
3FFFFFFFFFFFFFFFFFFFFFFFFE00
3FFFFFFFFFFFFFFFFFFFFFFFFE00
1FFFFFFFFFFFFFFFFFFFFFFFFC00
0FFFFFFFFFFFFFFFFFFFFFFFF800
0FFFFFFFFFFFFFFFFFFFFFFFF000
07FFFFFFFFFFFFFFFFFFFFFFE000
03FFFFFFFFFFFFFFFFFFFFFFC000
01FFFFFFFFFFFFFFFFFFFFFF8000
00FFFFFFFFFFFFFFFFFFFFFF0000
007FFFFFFFFFFFFFFFFFFFFE0000
003FFFFFFFFFFFFFFFFFFFF80000
000FFFFFFFFFFFFFFFFFFFE00000
0007FFFFFFFFFFFFFFFFFF800000
0000FFFFFFFFFFFFFFFFFE000000
00001FFFFFFFFFFFFFFFC0000000
ENDCHAR
STARTCHAR 0036
ENCODING 54
SWIDTH 892 0
DWIDTH 125 0
BBX 109 105 0 -1
BITMAP
0000001FFFFFFFFFFFFFFFC00000
000003FFFFFFFFFFFFFFFFF80000
00000FFFFFFFFFFFFFFFFFFE0000
00003FFFFFFFFFFFFFFFFFFF8000
0000FFFFFFFFFFFFFFFFFFFFE000
0003FFFFFFFFFFFFFFFFFFFFF000
0007FFFFFFFFFFFFFFFFFFFFF800
000FFFFFFFFFFFFFFFFFFFFFFC00
001FFFFFFFFFFFFFFFFFFFFFFE00
003FFFFFFFFFFFFFFFFFFFFFFF00
007FFFFFFFFFFFFFFFFFFFFFFF00
00FFFFFFFFFFFFFFFFFFFFFFFF80
01FFFFFFFFFFFFFFFFFFFFFFFFC0
03FFFFFFFFFFFFFFFFFFFFFFFFC0
07FFFFFFFFFFFFFFFFFFFFFFFFE0
07FFFFFFFFFFFFFFFFFFFFFFFFE0
0FFFFFFFFFFFFFFFFFFFFFFFFFF0
0FFFFFFFFFFFFFFFFFFFFFFFFFF0
1FFFFFFFFFFFFFFFFFFFFFFFFFF0
1FFFFFFFFFFFFFFFFFFFFFFFFFF0
3FFFFFFFFFFFFFFFFFFFFFFFFFF8
3FFFFFF800000000000001FFFFF8
3FFFFFC000000000000000FFFFF8
7FFFFF80000000000000007FFFF8
7FFFFE00000000000000007FFFF8
7FFFFE00000000000000007FFFF8
7FFFFC00000000000000007FFFF8
FFFFF800000000000000007FFFF8
FFFFF800000000000000003FFFF0
FFFFF000000000000000003FFFF0
FFFFF000000000000000003FFFE0
FFFFF000000000000000001FFFE0
FFFFF000000000000000000FFFC0
FFFFF0000000000000000007FF80
FFFFF0000000000000000001FE00
FFFFF00000000000000000000000
FFFFF00000000000000000000000
FFFFF00000000000000000000000
FFFFF00000000000000000000000
FFFFFFFFFFFFFFFFFFFFC0000000
FFFFFFFFFFFFFFFFFFFFFC000000
FFFFFFFFFFFFFFFFFFFFFF800000
FFFFFFFFFFFFFFFFFFFFFFE00000
FFFFFFFFFFFFFFFFFFFFFFF80000
FFFFFFFFFFFFFFFFFFFFFFFE0000
FFFFFFFFFFFFFFFFFFFFFFFF0000
FFFFFFFFFFFFFFFFFFFFFFFF8000
FFFFFFFFFFFFFFFFFFFFFFFFC000
FFFFFFFFFFFFFFFFFFFFFFFFE000
FFFFFFFFFFFFFFFFFFFFFFFFF000
FFFFFFFFFFFFFFFFFFFFFFFFF800
FFFFFFFFFFFFFFFFFFFFFFFFFC00
FFFFFFFFFFFFFFFFFFFFFFFFFE00
FFFFFFFFFFFFFFFFFFFFFFFFFE00
FFFFFFFFFFFFFFFFFFFFFFFFFF00
FFFFFFFFFFFFFFFFFFFFFFFFFF80
FFFFFFFFFFFFFFFFFFFFFFFFFF80
FFFFFFFFFFFFFFFFFFFFFFFFFFC0
FFFFFFFFFFFFFFFFFFFFFFFFFFC0
FFFFFFFFFFFFFFFFFFFFFFFFFFE0
FFFFF000000000000000FFFFFFE0
FFFFF0000000000000001FFFFFE0
FFFFF0000000000000000FFFFFF0
FFFFF00000000000000007FFFFF0
FFFFF00000000000000003FFFFF0
FFFFF00000000000000001FFFFF0
FFFFF00000000000000000FFFFF8
FFFFF00000000000000000FFFFF8
FFFFF00000000000000000FFFFF8
FFFFF000000000000000007FFFF8
FFFFF000000000000000007FFFF8
FFFFF000000000000000007FFFF8
FFFFF000000000000000007FFFF8
FFFFF000000000000000007FFFF8
FFFFF000000000000000007FFFF8
FFFFF00000000000000000FFFFF8
FFFFF80000000000000000FFFFF8
FFFFF80000000000000000FFFFF8
7FFFFC0000000000000001FFFFF0
7FFFFE0000000000000003FFFFF0
7FFFFF0000000000000007FFFFF0
7FFFFF800000000000000FFFFFF0
3FFFFFC00000000000001FFFFFE0
3FFFFFF0000000000000FFFFFFE0
3FFFFFFFFFFFFFFFFFFFFFFFFFE0
1FFFFFFFFFFFFFFFFFFFFFFFFFC0
1FFFFFFFFFFFFFFFFFFFFFFFFFC0
0FFFFFFFFFFFFFFFFFFFFFFFFF80
0FFFFFFFFFFFFFFFFFFFFFFFFF80
07FFFFFFFFFFFFFFFFFFFFFFFF00
07FFFFFFFFFFFFFFFFFFFFFFFF00
03FFFFFFFFFFFFFFFFFFFFFFFE00
01FFFFFFFFFFFFFFFFFFFFFFFC00
00FFFFFFFFFFFFFFFFFFFFFFF800
007FFFFFFFFFFFFFFFFFFFFFF000
003FFFFFFFFFFFFFFFFFFFFFE000
001FFFFFFFFFFFFFFFFFFFFFC000
000FFFFFFFFFFFFFFFFFFFFF8000
0007FFFFFFFFFFFFFFFFFFFF0000
0003FFFFFFFFFFFFFFFFFFFE0000
0000FFFFFFFFFFFFFFFFFFF80000
00003FFFFFFFFFFFFFFFFFE00000
00000FFFFFFFFFFFFFFFFF800000
000003FFFFFFFFFFFFFFFE000000
0000001FFFFFFFFFFFFFE0000000
ENDCHAR
STARTCHAR 0037
ENCODING 55
SWIDTH 892 0
DWIDTH 125 0
BBX 111 106 0 -2
BITMAP
00000FFFFFFFFFFFFFFFF0000000
0000FFFFFFFFFFFFFFFFFF000000
0003FFFFFFFFFFFFFFFFFFE00000
000FFFFFFFFFFFFFFFFFFFF80000
003FFFFFFFFFFFFFFFFFFFFE0000
007FFFFFFFFFFFFFFFFFFFFF0000
00FFFFFFFFFFFFFFFFFFFFFFC000
01FFFFFFFFFFFFFFFFFFFFFFE000
03FFFFFFFFFFFFFFFFFFFFFFF000
07FFFFFFFFFFFFFFFFFFFFFFF800
0FFFFFFFFFFFFFFFFFFFFFFFFC00
0FFFFFFFFFFFFFFFFFFFFFFFFE00
1FFFFFFFFFFFFFFFFFFFFFFFFF00
1FFFFFFFFFFFFFFFFFFFFFFFFF00
3FFFFFFFFFFFFFFFFFFFFFFFFF80
3FFFFFFFFFFFFFFFFFFFFFFFFFC0
7FFFFFFFFFFFFFFFFFFFFFFFFFC0
7FFFFFFFFFFFFFFFFFFFFFFFFFE0
7FFFFFFFFFFFFFFFFFFFFFFFFFF0
FFFFFFFFFFFFFFFFFFFFFFFFFFF0
FFFFFFFFFFFFFFFFFFFFFFFFFFF0
FFFFFE000000000000007FFFFFF8
FFFFFC000000000000001FFFFFF8
FFFFF80000000000000007FFFFFC
FFFFF80000000000000003FFFFFC
FFFFF80000000000000001FFFFFC
FFFFF80000000000000000FFFFFC
FFFFF80000000000000000FFFFFC
FFFFF000000000000000007FFFFE
7FFFF000000000000000007FFFFE
7FFFE000000000000000003FFFFE
3FFFE000000000000000003FFFFE
1FFFC000000000000000003FFFFE
0FFF0000000000000000003FFFFE
03FE0000000000000000003FFFFE
00000000000000000000003FFFFE
00000000000000000000007FFFFE
00000000000000000000007FFFFE
00000000000000000000007FFFFC
0000000000000000000000FFFFFC
0000000000000000000000FFFFFC
0000000000000000000001FFFFFC
0000000000000000000003FFFFFC
0000000000000000000007FFFFF8
000000000000000000000FFFFFF8
000000000000000000000FFFFFF0
000000000000000000001FFFFFF0
000000000000000000003FFFFFF0
000000000000000000007FFFFFE0
00000000000000000000FFFFFFE0
00000000000000000001FFFFFFC0
00000000000000000001FFFFFF80
00000000000000000003FFFFFF80
00000000000000000007FFFFFF00
0000000000000000000FFFFFFE00
0000000000000000001FFFFFFC00
0000000000000000003FFFFFF800
0000000000000000003FFFFFF800
0000000000000000007FFFFFF000
000000000000000000FFFFFFE000
000000000000000001FFFFFFC000
000000000000000003FFFFFF8000
000000000000000007FFFFFF0000
000000000000000007FFFFFF0000
00000000000000000FFFFFFE0000
00000000000000001FFFFFFC0000
00000000000000003FFFFFF80000
00000000000000007FFFFFF00000
0000000000000000FFFFFFF00000
0000000000000000FFFFFFE00000
0000000000000001FFFFFFC00000
0000000000000003FFFFFF800000
0000000000000007FFFFFF000000
000000000000000FFFFFFE000000
000000000000001FFFFFFE000000
000000000000001FFFFFFC000000
000000000000003FFFFFF8000000
000000000000007FFFFFF0000000
00000000000000FFFFFFE0000000
00000000000001FFFFFFC0000000
00000000000001FFFFFFC0000000
00000000000003FFFFFF80000000
00000000000007FFFFFF00000000
0000000000000FFFFFFE00000000
0000000000001FFFFFFC00000000
0000000000003FFFFFF800000000
0000000000003FFFFFF800000000
0000000000007FFFFFF000000000
000000000000FFFFFFE000000000
000000000001FFFFFFC000000000
000000000003FFFFFF8000000000
000000000003FFFFFF0000000000
000000000003FFFFFF0000000000
000000000007FFFFFE0000000000
000000000007FFFFFC0000000000
000000000007FFFFF80000000000
000000000007FFFFF00000000000
000000000007FFFFE00000000000
000000000003FFFFE00000000000
000000000003FFFFC00000000000
000000000003FFFF800000000000
000000000001FFFF000000000000
000000000000FFFE000000000000
0000000000007FFC000000000000
0000000000003FF8000000000000
0000000000000FE0000000000000
ENDCHAR
STARTCHAR 0038
ENCODING 56
SWIDTH 892 0
DWIDTH 125 0
BBX 109 104 0 0
BITMAP
0000001FFFFFFFFFFFFFC0000000
000001FFFFFFFFFFFFFFFC000000
00000FFFFFFFFFFFFFFFFF800000
00003FFFFFFFFFFFFFFFFFE00000
00007FFFFFFFFFFFFFFFFFF00000
0001FFFFFFFFFFFFFFFFFFFC0000
0003FFFFFFFFFFFFFFFFFFFE0000
0007FFFFFFFFFFFFFFFFFFFF0000
000FFFFFFFFFFFFFFFFFFFFF8000
001FFFFFFFFFFFFFFFFFFFFFC000
003FFFFFFFFFFFFFFFFFFFFFE000
007FFFFFFFFFFFFFFFFFFFFFF000
00FFFFFFFFFFFFFFFFFFFFFFF800
00FFFFFFFFFFFFFFFFFFFFFFF800
01FFFFFFFFFFFFFFFFFFFFFFFC00
01FFFFFFFFFFFFFFFFFFFFFFFC00
03FFFFFFFFFFFFFFFFFFFFFFFE00
03FFFFFFFFFFFFFFFFFFFFFFFE00
07FFFFFFFFFFFFFFFFFFFFFFFF00
07FFFFFFFFFFFFFFFFFFFFFFFF00
0FFFFFFFFFFFFFFFFFFFFFFFFF80
0FFFFFF8000000000000FFFFFF80
0FFFFFE00000000000003FFFFF80
0FFFFFC00000000000001FFFFF80
1FFFFF800000000000000FFFFFC0
1FFFFF0000000000000007FFFFC0
1FFFFF0000000000000007FFFFC0
1FFFFE0000000000000003FFFFC0
1FFFFE0000000000000003FFFFC0
1FFFFE0000000000000003FFFFC0
1FFFFE0000000000000003FFFFC0
1FFFFE0000000000000003FFFFC0
1FFFFE0000000000000003FFFFC0
1FFFFF0000000000000007FFFFC0
1FFFFF0000000000000007FFFFC0
0FFFFF800000000000000FFFFF80
0FFFFFC00000000000001FFFFF80
0FFFFFE00000000000003FFFFF80
0FFFFFF8000000000000FFFFFF80
07FFFFFFFFFFFFFFFFFFFFFFFF00
07FFFFFFFFFFFFFFFFFFFFFFFF00
07FFFFFFFFFFFFFFFFFFFFFFFF00
03FFFFFFFFFFFFFFFFFFFFFFFE00
03FFFFFFFFFFFFFFFFFFFFFFFE00
01FFFFFFFFFFFFFFFFFFFFFFFC00
01FFFFFFFFFFFFFFFFFFFFFFFC00
00FFFFFFFFFFFFFFFFFFFFFFF800
007FFFFFFFFFFFFFFFFFFFFFF000
007FFFFFFFFFFFFFFFFFFFFFF000
00FFFFFFFFFFFFFFFFFFFFFFF800
00FFFFFFFFFFFFFFFFFFFFFFFC00
01FFFFFFFFFFFFFFFFFFFFFFFC00
03FFFFFFFFFFFFFFFFFFFFFFFE00
07FFFFFFFFFFFFFFFFFFFFFFFF00
07FFFFFFFFFFFFFFFFFFFFFFFF00
0FFFFFFFFFFFFFFFFFFFFFFFFF80
0FFFFFFFFFFFFFFFFFFFFFFFFFC0
1FFFFFFFFFFFFFFFFFFFFFFFFFC0
1FFFFFFFFFFFFFFFFFFFFFFFFFE0
3FFFFFFFFFFFFFFFFFFFFFFFFFE0
3FFFFFF8000000000000FFFFFFE0
7FFFFFC00000000000003FFFFFF0
7FFFFF800000000000000FFFFFF0
7FFFFF0000000000000007FFFFF0
7FFFFE0000000000000003FFFFF0
FFFFFC0000000000000001FFFFF8
FFFFF80000000000000000FFFFF8
FFFFF80000000000000000FFFFF8
FFFFF00000000000000000FFFFF8
FFFFF000000000000000007FFFF8
FFFFF000000000000000007FFFF8
FFFFF000000000000000007FFFF8
FFFFF000000000000000007FFFF8
FFFFF000000000000000007FFFF8
FFFFF000000000000000007FFFF8
FFFFF00000000000000000FFFFF8
FFFFF80000000000000000FFFFF8
FFFFF80000000000000000FFFFF0
7FFFFC0000000000000001FFFFF0
7FFFFE0000000000000003FFFFF0
7FFFFF0000000000000007FFFFF0
7FFFFF800000000000000FFFFFE0
3FFFFFC00000000000001FFFFFE0
3FFFFFF00000000000007FFFFFE0
1FFFFFFFFFFFFFFFFFFFFFFFFFC0
1FFFFFFFFFFFFFFFFFFFFFFFFFC0
0FFFFFFFFFFFFFFFFFFFFFFFFF80
0FFFFFFFFFFFFFFFFFFFFFFFFF80
07FFFFFFFFFFFFFFFFFFFFFFFF00
07FFFFFFFFFFFFFFFFFFFFFFFF00
03FFFFFFFFFFFFFFFFFFFFFFFE00
01FFFFFFFFFFFFFFFFFFFFFFFC00
00FFFFFFFFFFFFFFFFFFFFFFF800
007FFFFFFFFFFFFFFFFFFFFFF000
003FFFFFFFFFFFFFFFFFFFFFE000
001FFFFFFFFFFFFFFFFFFFFFC000
000FFFFFFFFFFFFFFFFFFFFF8000
0007FFFFFFFFFFFFFFFFFFFF0000
0003FFFFFFFFFFFFFFFFFFFE0000
0000FFFFFFFFFFFFFFFFFFF80000
00003FFFFFFFFFFFFFFFFFE00000
00000FFFFFFFFFFFFFFFFF800000
000003FFFFFFFFFFFFFFFE000000
0000001FFFFFFFFFFFFFC0000000
ENDCHAR
STARTCHAR 0039
ENCODING 57
SWIDTH 892 0
DWIDTH 125 0
BBX 109 105 0 -1
BITMAP
0000001FFFFFFFFFFFFFC0000000
000001FFFFFFFFFFFFFFFE000000
00000FFFFFFFFFFFFFFFFF800000
00003FFFFFFFFFFFFFFFFFE00000
0000FFFFFFFFFFFFFFFFFFF80000
0003FFFFFFFFFFFFFFFFFFFE0000
0007FFFFFFFFFFFFFFFFFFFF0000
000FFFFFFFFFFFFFFFFFFFFF8000
001FFFFFFFFFFFFFFFFFFFFFC000
003FFFFFFFFFFFFFFFFFFFFFE000
007FFFFFFFFFFFFFFFFFFFFFF000
00FFFFFFFFFFFFFFFFFFFFFFF800
01FFFFFFFFFFFFFFFFFFFFFFFC00
03FFFFFFFFFFFFFFFFFFFFFFFE00
07FFFFFFFFFFFFFFFFFFFFFFFF00
07FFFFFFFFFFFFFFFFFFFFFFFF00
0FFFFFFFFFFFFFFFFFFFFFFFFF80
0FFFFFFFFFFFFFFFFFFFFFFFFF80
1FFFFFFFFFFFFFFFFFFFFFFFFFC0
1FFFFFFFFFFFFFFFFFFFFFFFFFC0
3FFFFFFFFFFFFFFFFFFFFFFFFFE0
3FFFFFF8000000000000FFFFFFE0
3FFFFFC00000000000001FFFFFE0
7FFFFF800000000000000FFFFFF0
7FFFFF0000000000000007FFFFF0
7FFFFE0000000000000003FFFFF0
7FFFFC0000000000000001FFFFF0
FFFFF80000000000000000FFFFF8
FFFFF80000000000000000FFFFF8
FFFFF00000000000000000FFFFF8
FFFFF000000000000000007FFFF8
FFFFF000000000000000007FFFF8
FFFFF000000000000000007FFFF8
FFFFF000000000000000007FFFF8
FFFFF000000000000000007FFFF8
FFFFF000000000000000007FFFF8
FFFFF000000000000000007FFFF8
FFFFF800000000000000007FFFF8
FFFFF800000000000000007FFFF8
7FFFFC00000000000000007FFFF8
7FFFFE00000000000000007FFFF8
7FFFFF00000000000000007FFFF8
7FFFFF80000000000000007FFFF8
3FFFFFC0000000000000007FFFF8
3FFFFFF0000000000000007FFFF8
3FFFFFFFFFFFFFFFFFFFFFFFFFF8
1FFFFFFFFFFFFFFFFFFFFFFFFFF8
1FFFFFFFFFFFFFFFFFFFFFFFFFF8
0FFFFFFFFFFFFFFFFFFFFFFFFFF8
0FFFFFFFFFFFFFFFFFFFFFFFFFF8
07FFFFFFFFFFFFFFFFFFFFFFFFF8
03FFFFFFFFFFFFFFFFFFFFFFFFF8
03FFFFFFFFFFFFFFFFFFFFFFFFF8
01FFFFFFFFFFFFFFFFFFFFFFFFF8
00FFFFFFFFFFFFFFFFFFFFFFFFF8
007FFFFFFFFFFFFFFFFFFFFFFFF8
003FFFFFFFFFFFFFFFFFFFFFFFF8
001FFFFFFFFFFFFFFFFFFFFFFFF8
000FFFFFFFFFFFFFFFFFFFFFFFF8
0007FFFFFFFFFFFFFFFFFFFFFFF8
0003FFFFFFFFFFFFFFFFFFFFFFF8
0000FFFFFFFFFFFFFFFFFFFFFFF8
00003FFFFFFFFFFFFFFFFFFFFFF8
00000FFFFFFFFFFFFFFFFFFFFFF8
000003FFFFFFFFFFFFFFFFFFFFF8
0000001FFFFFFFFFFFFFFFFFFFF8
00000000000000000000007FFFF8
00000000000000000000007FFFF8
00000000000000000000007FFFF8
00F00000000000000000007FFFF8
07FE0000000000000000007FFFF8
0FFF0000000000000000007FFFF8
1FFF8000000000000000007FFFF8
3FFFC000000000000000007FFFF8
7FFFE000000000000000007FFFF8
7FFFE000000000000000007FFFF8
7FFFF00000000000000000FFFFF8
FFFFF00000000000000000FFFFF8
FFFFF00000000000000001FFFFF0
FFFFF00000000000000003FFFFF0
FFFFF00000000000000003FFFFF0
FFFFF0000000000000000FFFFFF0
FFFFF8000000000000001FFFFFE0
FFFFFC000000000000007FFFFFE0
FFFFFFFFFFFFFFFFFFFFFFFFFFE0
7FFFFFFFFFFFFFFFFFFFFFFFFFC0
7FFFFFFFFFFFFFFFFFFFFFFFFFC0
7FFFFFFFFFFFFFFFFFFFFFFFFF80
7FFFFFFFFFFFFFFFFFFFFFFFFF80
3FFFFFFFFFFFFFFFFFFFFFFFFF00
3FFFFFFFFFFFFFFFFFFFFFFFFE00
1FFFFFFFFFFFFFFFFFFFFFFFFE00
1FFFFFFFFFFFFFFFFFFFFFFFFC00
0FFFFFFFFFFFFFFFFFFFFFFFF800
0FFFFFFFFFFFFFFFFFFFFFFFF000
07FFFFFFFFFFFFFFFFFFFFFFE000
03FFFFFFFFFFFFFFFFFFFFFFC000
01FFFFFFFFFFFFFFFFFFFFFF8000
00FFFFFFFFFFFFFFFFFFFFFF0000
007FFFFFFFFFFFFFFFFFFFFE0000
003FFFFFFFFFFFFFFFFFFFF80000
000FFFFFFFFFFFFFFFFFFFE00000
0003FFFFFFFFFFFFFFFFFF800000
0000FFFFFFFFFFFFFFFFFE000000
00001FFFFFFFFFFFFFFFC0000000
ENDCHAR
STARTCHAR 003A
ENCODING 58
SWIDTH 250 0
DWIDTH 35 0
BBX 21 80 0 -2
BITMAP
01FC00
07FF00
0FFF80
1FFFC0
3FFFE0
7FFFF0
7FFFF0
FFFFF8
FFFFF8
FFFFF8
FFFFF8
FFFFF8
FFFFF8
FFFFF8
FFFFF8
FFFFF8
7FFFF0
7FFFF0
3FFFE0
1FFFC0
0FFF80
07FF00
01FC00
000000
000000
000000
000000
000000
000000
000000
000000
000000
000000
000000
000000
000000
000000
000000
000000
000000
000000
000000
000000
000000
000000
000000
000000
000000
000000
000000
000000
000000
000000
000000
000000
000000
000000
01FC00
07FF00
0FFF80
1FFFC0
3FFFE0
7FFFF0
7FFFF0
FFFFF8
FFFFF8
FFFFF8
FFFFF8
FFFFF8
FFFFF8
FFFFF8
FFFFF8
FFFFF8
7FFFF0
7FFFF0
3FFFE0
1FFFC0
0FFF80
07FF00
01FC00
ENDCHAR
STARTCHAR 003B
ENCODING 59
SWIDTH 250 0
DWIDTH 35 0
BBX 24 89 0 -11
BITMAP
003F80
00FFE0
01FFF0
03FFF8
07FFFC
0FFFFE
0FFFFE
1FFFFF
1FFFFF
1FFFFF
1FFFFF
1FFFFF
1FFFFF
1FFFFF
1FFFFF
1FFFFF
0FFFFE
0FFFFE
07FFFC
03FFF8
01FFF0
00FFE0
003F80
000000
000000
000000
000000
000000
000000
000000
000000
000000
000000
000000
000000
000000
000000
000000
000000
000000
000000
000000
000000
000000
000000
000000
000000
000000
000000
000000
000000
000000
000000
000000
000000
001F80
00FFE0
01FFF0
03FFF8
07FFFC
07FFFE
0FFFFE
0FFFFF
0FFFFF
1FFFFF
1FFFFF
1FFFFF
1FFFFF
3FFFFF
3FFFFF
3FFFFE
3FFFFE
7FFFFE
7FFFFE
7FFFFC
7FFFFC
FFFFFC
FFFFFC
FFFFF8
FFFFF8
FFFFF8
FFFFF8
7FFFF0
7FFFF0
3FFFE0
1FFFC0
0FFF80
07FF00
01FC00
ENDCHAR
STARTCHAR 003C
ENCODING 60
SWIDTH 285 0
DWIDTH 40 0
BBX 0 0 0 0
BITMAP
ENDCHAR
STARTCHAR 003D
ENCODING 61
SWIDTH 607 0
DWIDTH 85 0
BBX 0 0 0 0
BITMAP
ENDCHAR
STARTCHAR 003E
ENCODING 62
SWIDTH 285 0
DWIDTH 40 0
BBX 0 0 0 0
BITMAP
ENDCHAR
STARTCHAR 003F
ENCODING 63
SWIDTH 885 0
DWIDTH 124 0
BBX 111 106 0 -2
BITMAP
00000FFFFFFFFFFFFFFFF0000000
0000FFFFFFFFFFFFFFFFFF000000
0003FFFFFFFFFFFFFFFFFFE00000
000FFFFFFFFFFFFFFFFFFFF80000
001FFFFFFFFFFFFFFFFFFFFE0000
007FFFFFFFFFFFFFFFFFFFFF0000
00FFFFFFFFFFFFFFFFFFFFFFC000
01FFFFFFFFFFFFFFFFFFFFFFE000
03FFFFFFFFFFFFFFFFFFFFFFF000
07FFFFFFFFFFFFFFFFFFFFFFF800
07FFFFFFFFFFFFFFFFFFFFFFFC00
0FFFFFFFFFFFFFFFFFFFFFFFFE00
1FFFFFFFFFFFFFFFFFFFFFFFFF00
1FFFFFFFFFFFFFFFFFFFFFFFFF80
3FFFFFFFFFFFFFFFFFFFFFFFFF80
3FFFFFFFFFFFFFFFFFFFFFFFFFC0
7FFFFFFFFFFFFFFFFFFFFFFFFFE0
7FFFFFFFFFFFFFFFFFFFFFFFFFE0
7FFFFFFFFFFFFFFFFFFFFFFFFFF0
7FFFFFFFFFFFFFFFFFFFFFFFFFF0
FFFFFFFFFFFFFFFFFFFFFFFFFFF8
FFFFFE000000000000007FFFFFF8
FFFFFC000000000000000FFFFFF8
FFFFF80000000000000007FFFFFC
FFFFF80000000000000003FFFFFC
FFFFF80000000000000001FFFFFC
FFFFF80000000000000000FFFFFC
FFFFF800000000000000007FFFFE
7FFFF000000000000000007FFFFE
7FFFF000000000000000007FFFFE
7FFFE000000000000000003FFFFE
3FFFE000000000000000003FFFFE
1FFFC000000000000000003FFFFE
0FFF0000000000000000003FFFFE
03FE0000000000000000003FFFFE
00000000000000000000003FFFFE
00000000000000000000003FFFFE
00000000000000000000007FFFFE
00000000000000000000007FFFFE
0000000000000000000000FFFFFC
0000000000000000000000FFFFFC
0000000000000000000001FFFFFC
0000000000000000000003FFFFFC
000000000000000000000FFFFFF8
000000000000000000001FFFFFF8
00000000000000000001FFFFFFF8
0000000000000000001FFFFFFFF0
000000000000000001FFFFFFFFF0
00000000000000003FFFFFFFFFE0
0000000000000003FFFFFFFFFFE0
000000000000007FFFFFFFFFFFC0
00000000000007FFFFFFFFFFFFC0
0000000000007FFFFFFFFFFFFF80
00000000000FFFFFFFFFFFFFFF00
0000000000FFFFFFFFFFFFFFFE00
000000000FFFFFFFFFFFFFFFFE00
000000007FFFFFFFFFFFFFFFFC00
00000000FFFFFFFFFFFFFFFFF800
00000001FFFFFFFFFFFFFFFFF000
00000003FFFFFFFFFFFFFFFFC000
00000007FFFFFFFFFFFFFFFF8000
00000007FFFFFFFFFFFFFFFF0000
0000000FFFFFFFFFFFFFFFFC0000
0000000FFFFFFFFFFFFFFFF00000
0000000FFFFFFFFFFFFFFFC00000
0000000FFFFFFFFFFFFFFE000000
0000000FFFFFFFFFFFFFC0000000
0000000FFFFFFFFFFFFC00000000
0000000FFFFFFFFFFFC000000000
00000007FFFFFFFFF80000000000
00000007FFFFFFFF800000000000
00000003FFFFFFF0000000000000
00000001FFFFFF00000000000000
00000000FFFFF000000000000000
000000007FFE0000000000000000
000000001FE00000000000000000
0000000000000000000000000000
0000000000000000000000000000
0000000000000000000000000000
0000000000000000000000000000
0000000000000000000000000000
0000000000000000000000000000
0000000000000000000000000000
000000001FC00000000000000000
000000007FF00000000000000000
00000000FFF80000000000000000
00000001FFFC0000000000000000
00000003FFFE0000000000000000
00000007FFFF0000000000000000
00000007FFFF0000000000000000
0000000FFFFF8000000000000000
0000000FFFFF8000000000000000
0000000FFFFF8000000000000000
0000000FFFFF8000000000000000
0000000FFFFF8000000000000000
0000000FFFFF8000000000000000
0000000FFFFF8000000000000000
0000000FFFFF8000000000000000
0000000FFFFF8000000000000000
00000007FFFF0000000000000000
00000007FFFF0000000000000000
00000003FFFE0000000000000000
00000001FFFC0000000000000000
00000000FFF80000000000000000
000000007FF00000000000000000
000000001FC00000000000000000
ENDCHAR
STARTCHAR 0040
ENCODING 64
SWIDTH 892 0
DWIDTH 125 0
BBX 109 105 0 -1
BITMAP
0000001FFFFFFFFFFFFFC0000000
000003FFFFFFFFFFFFFFFE000000
00000FFFFFFFFFFFFFFFFF800000
00003FFFFFFFFFFFFFFFFFE00000
0000FFFFFFFFFFFFFFFFFFF80000
0003FFFFFFFFFFFFFFFFFFFE0000
0007FFFFFFFFFFFFFFFFFFFF0000
000FFFFFFFFFFFFFFFFFFFFF8000
001FFFFFFFFFFFFFFFFFFFFFC000
003FFFFFFFFFFFFFFFFFFFFFE000
007FFFFFFFFFFFFFFFFFFFFFF000
00FFFFFFFFFFFFFFFFFFFFFFF800
01FFFFF00000000000007FFFFC00
03FFFF0000000000000007FFFE00
07FFFC0000000000000001FFFE00
07FFF80000000000000000FFFF00
0FFFE000000000000000003FFF80
0FFFC000000000000000001FFF80
1FFF8000000000000000000FFFC0
1FFF00000000000000000007FFC0
3FFE00000000000000000003FFE0
3FFE00000000000000000003FFE0
3FFC00000000000000000001FFE0
7FF80000000FFFFFC0000000FFF0
7FF80000007FFFFFF8000000FFF0
7FF0000001FFFFFFFE000000FFF0
7FF0000007FFFFFFFF0000007FF0
FFF000000FFFFFFFFF8000007FF8
FFF000001FFFFFFFFFE000007FF8
FFE000003FFFFFFFFFF000003FF8
FFE000007FFFFFFFFFF000003FF8
FFE00000FFFFFFFFFFF800003FF8
FFE00000FFFFFFFFFFFC00003FF8
FFE00001FFFFFFFFFFFC00003FF8
FFE00001FFFFFFFFFFFE00003FF8
FFE00003FFFFFFFFFFFE00003FF8
FFE00003FFFC0000FFFE00003FF8
FFE00003FFF000007FFF00003FF8
FFE00003FFE000003FFF00003FF8
FFE00007FFE000001FFF00003FF8
FFE00007FFE000001FFF00003FF8
FFE00007FFC000001FFF80003FF8
FFE00007FFC000001FFF80003FF8
FFE0000FFFC000000FFF80003FF8
FFE0000FFFC000000FFF80003FF8
FFE0000FFF8000000FFF80003FF8
FFE0000FFF8000000FFFC0003FF8
FFE0000FFF8000000FFFC0003FF8
FFE0001FFF80000007FFC0003FF8
FFE0001FFF80000007FFC0003FF8
FFE0001FFF00000007FFC0003FF8
FFE0001FFF00000007FFE0003FF8
FFE0003FFFFFFFFFFFFFE0003FF8
FFE0003FFFFFFFFFFFFFE0003FF8
FFE0003FFFFFFFFFFFFFE0003FF8
FFE0003FFFFFFFFFFFFFF0003FF8
FFE0003FFFFFFFFFFFFFF0003FF8
FFE0007FFFFFFFFFFFFFF0003FF8
FFE0007FFFFFFFFFFFFFF0003FF8
FFE0007FFFFFFFFFFFFFF0003FF8
FFE0007FFFFFFFFFFFFFF8003FF8
FFE000FFFFFFFFFFFFFFF8003FF8
FFE000FFFFFFFFFFFFFFF8003FF8
FFE000FFFFFFFFFFFFFFF8003FF8
FFE000FFFFFFFFFFFFFFFC003FF8
FFE000FFF800000000FFFC003FF8
FFE001FFF8000000007FFC003FF8
FFE001FFF0000000007FFC003FF8
FFE001FFF0000000007FFC003FF8
FFE001FFF0000000007FFE003FF8
FFE003FFF0000000003FFE003FF8
FFE003FFF0000000003FFE003FF8
FFE003FFE0000000003FFE003FF8
FFE003FFE0000000003FFE003FF8
FFE003FFE0000000003FFF003FF8
FFE003FFE0000000001FFF003FF8
FFE003FFC0000000001FFF003FF8
FFF003FFC0000000001FFF007FF8
7FF001FF80000000001FFE007FF0
7FF000FF00000000000FFE007FF0
7FF0007E000000000007FC007FF0
7FF80000000000000001F000FFF0
3FF800000000000000000000FFE0
3FFC00000000000000000001FFE0
3FFE00000000000000000003FFE0
1FFE00000000000000000003FFC0
1FFF00000000000000000007FFC0
0FFF8000000000000000000FFF80
0FFFC000000000000000001FFF80
07FFE000000000000000003FFF00
07FFF80000000000000000FFFE00
03FFFC0000000000000001FFFE00
01FFFF0000000000000007FFFC00
00FFFFF00000000000003FFFF800
007FFFFFFFFFFFFFFFFFFFFFF000
003FFFFFFFFFFFFFFFFFFFFFE000
001FFFFFFFFFFFFFFFFFFFFFC000
000FFFFFFFFFFFFFFFFFFFFF8000
0007FFFFFFFFFFFFFFFFFFFF0000
0003FFFFFFFFFFFFFFFFFFFE0000
0000FFFFFFFFFFFFFFFFFFF80000
00003FFFFFFFFFFFFFFFFFE00000
00000FFFFFFFFFFFFFFFFF800000
000003FFFFFFFFFFFFFFFE000000
0000001FFFFFFFFFFFFFC0000000
ENDCHAR
STARTCHAR 0041
ENCODING 65
SWIDTH 892 0
DWIDTH 125 0
BBX 119 106 0 -2
BITMAP
00000000003FFFFFFFFC0000000000
0000000007FFFFFFFFFFC000000000
000000001FFFFFFFFFFFF000000000
000000007FFFFFFFFFFFFE00000000
00000001FFFFFFFFFFFFFF00000000
00000007FFFFFFFFFFFFFFC0000000
0000000FFFFFFFFFFFFFFFE0000000
0000001FFFFFFFFFFFFFFFF8000000
0000007FFFFFFFFFFFFFFFFC000000
000000FFFFFFFFFFFFFFFFFE000000
000001FFFFFFFFFFFFFFFFFF000000
000003FFFFFFFFFFFFFFFFFF800000
000003FFFFFFFFFFFFFFFFFFC00000
000007FFFFFFFFFFFFFFFFFFC00000
00000FFFFFFFFFFFFFFFFFFFE00000
00001FFFFFFFFFFFFFFFFFFFF00000
00001FFFFFFFFFFFFFFFFFFFF00000
00003FFFFFFFFFFFFFFFFFFFF80000
00003FFFFFFFFFFFFFFFFFFFF80000
00007FFFFFFFFFFFFFFFFFFFFC0000
00007FFFFFFFFFFFFFFFFFFFFC0000
0000FFFFFFF00000001FFFFFFE0000
0000FFFFFFC000000007FFFFFE0000
0000FFFFFF0000000001FFFFFE0000
0001FFFFFE0000000000FFFFFF0000
0001FFFFFC00000000007FFFFF0000
0001FFFFF800000000003FFFFF0000
0001FFFFF800000000001FFFFF0000
0001FFFFF000000000001FFFFF8000
0003FFFFF000000000001FFFFF8000
0003FFFFE000000000000FFFFF8000
0003FFFFE000000000000FFFFF8000
0003FFFFE000000000000FFFFFC000
0007FFFFE000000000000FFFFFC000
0007FFFFE0000000000007FFFFC000
0007FFFFC0000000000007FFFFC000
0007FFFFC0000000000007FFFFC000
0007FFFFC0000000000007FFFFE000
000FFFFFC0000000000007FFFFE000
000FFFFF80000000000003FFFFE000
000FFFFF80000000000003FFFFE000
000FFFFF80000000000003FFFFF000
001FFFFF80000000000003FFFFF000
001FFFFF80000000000001FFFFF000
001FFFFF00000000000001FFFFF000
001FFFFF00000000000001FFFFF000
001FFFFF00000000000001FFFFF800
003FFFFF00000000000000FFFFF800
003FFFFE00000000000000FFFFF800
003FFFFE00000000000000FFFFF800
003FFFFE00000000000000FFFFFC00
007FFFFE00000000000000FFFFFC00
007FFFFC000000000000007FFFFC00
007FFFFFFFFFFFFFFFFFFFFFFFFC00
007FFFFFFFFFFFFFFFFFFFFFFFFC00
007FFFFFFFFFFFFFFFFFFFFFFFFE00
00FFFFFFFFFFFFFFFFFFFFFFFFFE00
00FFFFFFFFFFFFFFFFFFFFFFFFFE00
00FFFFFFFFFFFFFFFFFFFFFFFFFE00
00FFFFFFFFFFFFFFFFFFFFFFFFFF00
01FFFFFFFFFFFFFFFFFFFFFFFFFF00
01FFFFFFFFFFFFFFFFFFFFFFFFFF00
01FFFFFFFFFFFFFFFFFFFFFFFFFF00
01FFFFFFFFFFFFFFFFFFFFFFFFFF00
01FFFFFFFFFFFFFFFFFFFFFFFFFF80
03FFFFFFFFFFFFFFFFFFFFFFFFFF80
03FFFFFFFFFFFFFFFFFFFFFFFFFF80
03FFFFFFFFFFFFFFFFFFFFFFFFFF80
03FFFFFFFFFFFFFFFFFFFFFFFFFFC0
07FFFFFFFFFFFFFFFFFFFFFFFFFFC0
07FFFFFFFFFFFFFFFFFFFFFFFFFFC0
07FFFFFFFFFFFFFFFFFFFFFFFFFFC0
07FFFFFFFFFFFFFFFFFFFFFFFFFFC0
07FFFFFFFFFFFFFFFFFFFFFFFFFFE0
0FFFFFC00000000000000007FFFFE0
0FFFFF800000000000000003FFFFE0
0FFFFF800000000000000003FFFFE0
0FFFFF800000000000000003FFFFF0
1FFFFF800000000000000003FFFFF0
1FFFFF000000000000000001FFFFF0
1FFFFF000000000000000001FFFFF0
1FFFFF000000000000000001FFFFF0
1FFFFF000000000000000001FFFFF8
3FFFFF000000000000000001FFFFF8
3FFFFE000000000000000000FFFFF8
3FFFFE000000000000000000FFFFF8
3FFFFE000000000000000000FFFFFC
7FFFFE000000000000000000FFFFFC
7FFFFC0000000000000000007FFFFC
7FFFFC0000000000000000007FFFFC
7FFFFC0000000000000000007FFFFC
7FFFFC0000000000000000007FFFFE
FFFFFC0000000000000000007FFFFE
FFFFF80000000000000000003FFFFE
FFFFF80000000000000000003FFFFE
FFFFF80000000000000000003FFFFE
FFFFF80000000000000000003FFFFE
FFFFF80000000000000000001FFFFE
FFFFF00000000000000000001FFFFE
7FFFF00000000000000000001FFFFE
7FFFE00000000000000000000FFFFC
3FFFE00000000000000000000FFFF8
3FFFC000000000000000000007FFF8
1FFF8000000000000000000003FFF0
07FF0000000000000000000001FFC0
01F800000000000000000000003F00
ENDCHAR
STARTCHAR 0042
ENCODING 66
SWIDTH 885 0
DWIDTH 124 0
BBX 109 105 0 -1
BITMAP
00001FFFFFFFFFFFFFFFE0000000
0000FFFFFFFFFFFFFFFFFE000000
0003FFFFFFFFFFFFFFFFFF800000
000FFFFFFFFFFFFFFFFFFFE00000
003FFFFFFFFFFFFFFFFFFFF80000
007FFFFFFFFFFFFFFFFFFFFC0000
00FFFFFFFFFFFFFFFFFFFFFF0000
01FFFFFFFFFFFFFFFFFFFFFF8000
03FFFFFFFFFFFFFFFFFFFFFFC000
07FFFFFFFFFFFFFFFFFFFFFFE000
0FFFFFFFFFFFFFFFFFFFFFFFF000
0FFFFFFFFFFFFFFFFFFFFFFFF800
1FFFFFFFFFFFFFFFFFFFFFFFF800
1FFFFFFFFFFFFFFFFFFFFFFFFC00
3FFFFFFFFFFFFFFFFFFFFFFFFE00
3FFFFFFFFFFFFFFFFFFFFFFFFE00
7FFFFFFFFFFFFFFFFFFFFFFFFF00
7FFFFFFFFFFFFFFFFFFFFFFFFF00
7FFFFFFFFFFFFFFFFFFFFFFFFF80
7FFFFFFFFFFFFFFFFFFFFFFFFF80
FFFFFFFFFFFFFFFFFFFFFFFFFFC0
FFFFFC000000000000007FFFFFC0
FFFFF8000000000000001FFFFFC0
FFFFF0000000000000000FFFFFC0
FFFFF00000000000000007FFFFE0
FFFFF00000000000000003FFFFE0
FFFFF00000000000000003FFFFE0
FFFFF00000000000000001FFFFE0
FFFFF00000000000000001FFFFE0
FFFFF00000000000000001FFFFE0
FFFFF00000000000000001FFFFE0
FFFFF00000000000000001FFFFE0
FFFFF00000000000000001FFFFE0
FFFFF00000000000000003FFFFE0
FFFFF00000000000000003FFFFE0
FFFFF00000000000000007FFFFC0
FFFFF0000000000000000FFFFFC0
FFFFF0000000000000001FFFFFC0
FFFFF0000000000000007FFFFFC0
FFFFFFFFFFFFFFFFFFFFFFFFFF80
FFFFFFFFFFFFFFFFFFFFFFFFFF80
FFFFFFFFFFFFFFFFFFFFFFFFFF80
FFFFFFFFFFFFFFFFFFFFFFFFFF00
FFFFFFFFFFFFFFFFFFFFFFFFFF00
FFFFFFFFFFFFFFFFFFFFFFFFFE00
FFFFFFFFFFFFFFFFFFFFFFFFFC00
FFFFFFFFFFFFFFFFFFFFFFFFFC00
FFFFFFFFFFFFFFFFFFFFFFFFF800
FFFFFFFFFFFFFFFFFFFFFFFFF000
FFFFFFFFFFFFFFFFFFFFFFFFF800
FFFFFFFFFFFFFFFFFFFFFFFFF800
FFFFFFFFFFFFFFFFFFFFFFFFFC00
FFFFFFFFFFFFFFFFFFFFFFFFFE00
FFFFFFFFFFFFFFFFFFFFFFFFFF00
FFFFFFFFFFFFFFFFFFFFFFFFFF00
FFFFFFFFFFFFFFFFFFFFFFFFFF80
FFFFFFFFFFFFFFFFFFFFFFFFFF80
FFFFFFFFFFFFFFFFFFFFFFFFFFC0
FFFFFFFFFFFFFFFFFFFFFFFFFFC0
FFFFFFFFFFFFFFFFFFFFFFFFFFE0
FFFFF000000000000000FFFFFFE0
FFFFF0000000000000001FFFFFE0
FFFFF0000000000000000FFFFFF0
FFFFF00000000000000007FFFFF0
FFFFF00000000000000003FFFFF0
FFFFF00000000000000001FFFFF0
FFFFF00000000000000000FFFFF8
FFFFF00000000000000000FFFFF8
FFFFF00000000000000000FFFFF8
FFFFF000000000000000007FFFF8
FFFFF000000000000000007FFFF8
FFFFF000000000000000007FFFF8
FFFFF000000000000000007FFFF8
FFFFF000000000000000007FFFF8
FFFFF000000000000000007FFFF8
FFFFF00000000000000000FFFFF8
FFFFF00000000000000000FFFFF8
FFFFF00000000000000000FFFFF8
FFFFF00000000000000001FFFFF0
FFFFF00000000000000003FFFFF0
FFFFF00000000000000007FFFFF0
FFFFF0000000000000000FFFFFF0
FFFFF8000000000000001FFFFFE0
FFFFFC000000000000007FFFFFE0
FFFFFFFFFFFFFFFFFFFFFFFFFFE0
FFFFFFFFFFFFFFFFFFFFFFFFFFC0
7FFFFFFFFFFFFFFFFFFFFFFFFFC0
7FFFFFFFFFFFFFFFFFFFFFFFFF80
7FFFFFFFFFFFFFFFFFFFFFFFFF80
3FFFFFFFFFFFFFFFFFFFFFFFFF00
3FFFFFFFFFFFFFFFFFFFFFFFFE00
3FFFFFFFFFFFFFFFFFFFFFFFFE00
1FFFFFFFFFFFFFFFFFFFFFFFFC00
0FFFFFFFFFFFFFFFFFFFFFFFF800
0FFFFFFFFFFFFFFFFFFFFFFFF000
07FFFFFFFFFFFFFFFFFFFFFFE000
03FFFFFFFFFFFFFFFFFFFFFFC000
01FFFFFFFFFFFFFFFFFFFFFF8000
00FFFFFFFFFFFFFFFFFFFFFF0000
007FFFFFFFFFFFFFFFFFFFFE0000
003FFFFFFFFFFFFFFFFFFFF80000
000FFFFFFFFFFFFFFFFFFFE00000
0007FFFFFFFFFFFFFFFFFF800000
0000FFFFFFFFFFFFFFFFFE000000
00001FFFFFFFFFFFFFFFC0000000
ENDCHAR
STARTCHAR 0043
ENCODING 67
SWIDTH 892 0
DWIDTH 125 0
BBX 109 105 0 -1
BITMAP
0000001FFFFFFFFFFFFFFFC00000
000003FFFFFFFFFFFFFFFFF80000
00000FFFFFFFFFFFFFFFFFFF0000
00003FFFFFFFFFFFFFFFFFFF8000
0000FFFFFFFFFFFFFFFFFFFFE000
0003FFFFFFFFFFFFFFFFFFFFF000
0007FFFFFFFFFFFFFFFFFFFFF800
000FFFFFFFFFFFFFFFFFFFFFFC00
001FFFFFFFFFFFFFFFFFFFFFFE00
003FFFFFFFFFFFFFFFFFFFFFFF00
007FFFFFFFFFFFFFFFFFFFFFFF80
00FFFFFFFFFFFFFFFFFFFFFFFFC0
01FFFFFFFFFFFFFFFFFFFFFFFFC0
03FFFFFFFFFFFFFFFFFFFFFFFFE0
03FFFFFFFFFFFFFFFFFFFFFFFFE0
07FFFFFFFFFFFFFFFFFFFFFFFFF0
0FFFFFFFFFFFFFFFFFFFFFFFFFF0
0FFFFFFFFFFFFFFFFFFFFFFFFFF0
1FFFFFFFFFFFFFFFFFFFFFFFFFF0
1FFFFFFFFFFFFFFFFFFFFFFFFFF8
3FFFFFF800000000000001FFFFF8
3FFFFFC000000000000000FFFFF8
3FFFFF80000000000000007FFFF8
7FFFFF00000000000000007FFFF8
7FFFFE00000000000000007FFFF8
7FFFFC00000000000000007FFFF8
7FFFF800000000000000007FFFF8
FFFFF800000000000000003FFFF0
FFFFF800000000000000003FFFF0
FFFFF000000000000000003FFFE0
FFFFF000000000000000001FFFE0
FFFFF000000000000000000FFFC0
FFFFF0000000000000000007FF00
FFFFF0000000000000000001FE00
FFFFF00000000000000000000000
FFFFF00000000000000000000000
FFFFF00000000000000000000000
FFFFF00000000000000000000000
FFFFF00000000000000000000000
FFFFF00000000000000000000000
FFFFF00000000000000000000000
FFFFF00000000000000000000000
FFFFF00000000000000000000000
FFFFF00000000000000000000000
FFFFF00000000000000000000000
FFFFF00000000000000000000000
FFFFF00000000000000000000000
FFFFF00000000000000000000000
FFFFF00000000000000000000000
FFFFF00000000000000000000000
FFFFF00000000000000000000000
FFFFF00000000000000000000000
FFFFF00000000000000000000000
FFFFF00000000000000000000000
FFFFF00000000000000000000000
FFFFF00000000000000000000000
FFFFF00000000000000000000000
FFFFF00000000000000000000000
FFFFF00000000000000000000000
FFFFF00000000000000000000000
FFFFF00000000000000000000000
FFFFF00000000000000000000000
FFFFF00000000000000000000000
FFFFF00000000000000000000000
FFFFF00000000000000000000000
FFFFF00000000000000000000000
FFFFF00000000000000000000000
FFFFF00000000000000000000000
FFFFF00000000000000000000000
FFFFF00000000000000000003000
FFFFF0000000000000000001FE00
FFFFF0000000000000000007FF80
FFFFF000000000000000000FFFC0
FFFFF000000000000000001FFFE0
FFFFF000000000000000001FFFF0
FFFFF000000000000000003FFFF0
FFFFF800000000000000003FFFF0
FFFFF800000000000000007FFFF8
7FFFF800000000000000007FFFF8
7FFFFC00000000000000007FFFF8
7FFFFE00000000000000007FFFF8
7FFFFF00000000000000007FFFF8
3FFFFF80000000000000007FFFF8
3FFFFFC000000000000000FFFFF8
3FFFFFF800000000000001FFFFF8
1FFFFFFFFFFFFFFFFFFFFFFFFFF0
1FFFFFFFFFFFFFFFFFFFFFFFFFF0
0FFFFFFFFFFFFFFFFFFFFFFFFFF0
0FFFFFFFFFFFFFFFFFFFFFFFFFF0
07FFFFFFFFFFFFFFFFFFFFFFFFE0
07FFFFFFFFFFFFFFFFFFFFFFFFE0
03FFFFFFFFFFFFFFFFFFFFFFFFC0
01FFFFFFFFFFFFFFFFFFFFFFFFC0
00FFFFFFFFFFFFFFFFFFFFFFFF80
007FFFFFFFFFFFFFFFFFFFFFFF00
003FFFFFFFFFFFFFFFFFFFFFFF00
001FFFFFFFFFFFFFFFFFFFFFFE00
000FFFFFFFFFFFFFFFFFFFFFFC00
0007FFFFFFFFFFFFFFFFFFFFF800
0003FFFFFFFFFFFFFFFFFFFFF000
0000FFFFFFFFFFFFFFFFFFFFE000
00003FFFFFFFFFFFFFFFFFFF8000
00000FFFFFFFFFFFFFFFFFFE0000
000003FFFFFFFFFFFFFFFFF80000
0000001FFFFFFFFFFFFFFFC00000
ENDCHAR
STARTCHAR 0044
ENCODING 68
SWIDTH 892 0
DWIDTH 125 0
BBX 109 105 0 -1
BITMAP
00001FFFFFFFFFFFFFC000000000
0000FFFFFFFFFFFFFFFC00000000
0003FFFFFFFFFFFFFFFF00000000
000FFFFFFFFFFFFFFFFFE0000000
003FFFFFFFFFFFFFFFFFF0000000
007FFFFFFFFFFFFFFFFFFC000000
00FFFFFFFFFFFFFFFFFFFE000000
01FFFFFFFFFFFFFFFFFFFF800000
03FFFFFFFFFFFFFFFFFFFFC00000
07FFFFFFFFFFFFFFFFFFFFE00000
0FFFFFFFFFFFFFFFFFFFFFF00000
0FFFFFFFFFFFFFFFFFFFFFF80000
1FFFFFFFFFFFFFFFFFFFFFF80000
1FFFFFFFFFFFFFFFFFFFFFFC0000
3FFFFFFFFFFFFFFFFFFFFFFE0000
3FFFFFFFFFFFFFFFFFFFFFFF0000
7FFFFFFFFFFFFFFFFFFFFFFF0000
7FFFFFFFFFFFFFFFFFFFFFFF8000
7FFFFFFFFFFFFFFFFFFFFFFF8000
7FFFFFFFFFFFFFFFFFFFFFFFC000
FFFFFC000000000000FFFFFFC000
FFFFF80000000000003FFFFFC000
FFFFF00000000000000FFFFFE000
FFFFF000000000000007FFFFE000
FFFFF000000000000003FFFFE000
FFFFF000000000000003FFFFF000
FFFFF000000000000001FFFFF000
FFFFF000000000000000FFFFF000
FFFFF000000000000000FFFFF000
FFFFF000000000000000FFFFF000
FFFFF000000000000000FFFFF800
FFFFF0000000000000007FFFF800
FFFFF0000000000000007FFFF800
FFFFF0000000000000007FFFF800
FFFFF0000000000000007FFFFC00
FFFFF0000000000000007FFFFC00
FFFFF0000000000000003FFFFC00
FFFFF0000000000000003FFFFC00
FFFFF0000000000000003FFFFC00
FFFFF0000000000000003FFFFE00
FFFFF0000000000000001FFFFE00
FFFFF0000000000000001FFFFE00
FFFFF0000000000000001FFFFE00
FFFFF0000000000000001FFFFF00
FFFFF0000000000000001FFFFF00
FFFFF0000000000000000FFFFF00
FFFFF0000000000000000FFFFF00
FFFFF0000000000000000FFFFF00
FFFFF0000000000000000FFFFF80
FFFFF00000000000000007FFFF80
FFFFF00000000000000007FFFF80
FFFFF00000000000000007FFFF80
FFFFF00000000000000007FFFFC0
FFFFF00000000000000007FFFFC0
FFFFF00000000000000003FFFFC0
FFFFF00000000000000003FFFFC0
FFFFF00000000000000003FFFFC0
FFFFF00000000000000003FFFFE0
FFFFF00000000000000003FFFFE0
FFFFF00000000000000001FFFFE0
FFFFF00000000000000001FFFFE0
FFFFF00000000000000001FFFFF0
FFFFF00000000000000001FFFFF0
FFFFF00000000000000000FFFFF0
FFFFF00000000000000000FFFFF0
FFFFF00000000000000000FFFFF0
FFFFF00000000000000000FFFFF8
FFFFF00000000000000000FFFFF8
FFFFF000000000000000007FFFF8
FFFFF000000000000000007FFFF8
FFFFF000000000000000007FFFF8
FFFFF000000000000000007FFFF8
FFFFF000000000000000007FFFF8
FFFFF000000000000000007FFFF8
FFFFF000000000000000007FFFF8
FFFFF000000000000000007FFFF8
FFFFF00000000000000000FFFFF8
FFFFF00000000000000000FFFFF8
FFFFF00000000000000000FFFFF0
FFFFF00000000000000001FFFFF0
FFFFF00000000000000003FFFFF0
FFFFF00000000000000007FFFFF0
FFFFF0000000000000000FFFFFE0
FFFFF8000000000000001FFFFFE0
FFFFFC00000000000000FFFFFFE0
7FFFFFFFFFFFFFFFFFFFFFFFFFC0
7FFFFFFFFFFFFFFFFFFFFFFFFFC0
7FFFFFFFFFFFFFFFFFFFFFFFFF80
7FFFFFFFFFFFFFFFFFFFFFFFFF80
3FFFFFFFFFFFFFFFFFFFFFFFFF00
3FFFFFFFFFFFFFFFFFFFFFFFFE00
1FFFFFFFFFFFFFFFFFFFFFFFFE00
1FFFFFFFFFFFFFFFFFFFFFFFFC00
0FFFFFFFFFFFFFFFFFFFFFFFF800
0FFFFFFFFFFFFFFFFFFFFFFFF000
07FFFFFFFFFFFFFFFFFFFFFFE000
03FFFFFFFFFFFFFFFFFFFFFFC000
01FFFFFFFFFFFFFFFFFFFFFF8000
00FFFFFFFFFFFFFFFFFFFFFF0000
007FFFFFFFFFFFFFFFFFFFFE0000
003FFFFFFFFFFFFFFFFFFFF80000
000FFFFFFFFFFFFFFFFFFFE00000
0003FFFFFFFFFFFFFFFFFF800000
0000FFFFFFFFFFFFFFFFFE000000
00001FFFFFFFFFFFFFFFC0000000
ENDCHAR
STARTCHAR 0045
ENCODING 69
SWIDTH 885 0
DWIDTH 124 0
BBX 109 104 0 0
BITMAP
0000001FFFFFFFFFFFFFFFC00000
000003FFFFFFFFFFFFFFFFF80000
00000FFFFFFFFFFFFFFFFFFE0000
00003FFFFFFFFFFFFFFFFFFF8000
0000FFFFFFFFFFFFFFFFFFFFC000
0003FFFFFFFFFFFFFFFFFFFFF000
0007FFFFFFFFFFFFFFFFFFFFF800
000FFFFFFFFFFFFFFFFFFFFFFC00
003FFFFFFFFFFFFFFFFFFFFFFE00
007FFFFFFFFFFFFFFFFFFFFFFF00
00FFFFFFFFFFFFFFFFFFFFFFFF00
00FFFFFFFFFFFFFFFFFFFFFFFF80
01FFFFFFFFFFFFFFFFFFFFFFFFC0
03FFFFFFFFFFFFFFFFFFFFFFFFC0
07FFFFFFFFFFFFFFFFFFFFFFFFE0
07FFFFFFFFFFFFFFFFFFFFFFFFE0
0FFFFFFFFFFFFFFFFFFFFFFFFFE0
1FFFFFFFFFFFFFFFFFFFFFFFFFF0
1FFFFFFFFFFFFFFFFFFFFFFFFFF0
3FFFFFFFFFFFFFFFFFFFFFFFFFF0
3FFFFFFFFFFFFFFFFFFFFFFFFFF0
3FFFFFF000000000000001FFFFF8
7FFFFFC000000000000000FFFFF8
7FFFFF00000000000000007FFFF8
7FFFFE00000000000000007FFFF8
7FFFFC00000000000000007FFFF8
FFFFFC00000000000000007FFFF8
FFFFF800000000000000007FFFF8
FFFFF800000000000000007FFFF0
FFFFF000000000000000003FFFF0
FFFFF000000000000000003FFFE0
FFFFF000000000000000001FFFE0
FFFFF000000000000000000FFFC0
FFFFF0000000000000000007FF00
FFFFF0000000000000000001FE00
FFFFF00000000000000000000000
FFFFF00000000000000000000000
FFFFF00000000000000000000000
FFFFF00000000000000000000000
FFFFFFFFFFFF8000000000000000
FFFFFFFFFFFFE000000000000000
FFFFFFFFFFFFF000000000000000
FFFFFFFFFFFFF800000000000000
FFFFFFFFFFFFFC00000000000000
FFFFFFFFFFFFFE00000000000000
FFFFFFFFFFFFFE00000000000000
FFFFFFFFFFFFFE00000000000000
FFFFFFFFFFFFFF00000000000000
FFFFFFFFFFFFFF00000000000000
FFFFFFFFFFFFFF00000000000000
FFFFFFFFFFFFFF00000000000000
FFFFFFFFFFFFFF00000000000000
FFFFFFFFFFFFFE00000000000000
FFFFFFFFFFFFFE00000000000000
FFFFFFFFFFFFFE00000000000000
FFFFFFFFFFFFFC00000000000000
FFFFFFFFFFFFF800000000000000
FFFFFFFFFFFFF000000000000000
FFFFFFFFFFFFE000000000000000
FFFFFFFFFFFF8000000000000000
FFFFF00000000000000000000000
FFFFF00000000000000000000000
FFFFF00000000000000000000000
FFFFF00000000000000000000000
FFFFF00000000000000000000000
FFFFF00000000000000000000000
FFFFF00000000000000000000000
FFFFF00000000000000000000000
FFFFF00000000000000000000000
FFFFF0000000000000000000FC00
FFFFF0000000000000000003FF00
FFFFF0000000000000000007FF80
FFFFF000000000000000000FFFC0
FFFFF000000000000000001FFFE0
FFFFF000000000000000003FFFF0
FFFFF000000000000000003FFFF0
FFFFF800000000000000007FFFF0
FFFFF800000000000000007FFFF8
7FFFFC00000000000000007FFFF8
7FFFFC00000000000000007FFFF8
7FFFFE00000000000000007FFFF8
7FFFFF00000000000000007FFFF8
3FFFFFC000000000000000FFFFF8
3FFFFFF000000000000001FFFFF8
3FFFFFFFFFFFFFFFFFFFFFFFFFF0
1FFFFFFFFFFFFFFFFFFFFFFFFFF0
1FFFFFFFFFFFFFFFFFFFFFFFFFF0
0FFFFFFFFFFFFFFFFFFFFFFFFFF0
07FFFFFFFFFFFFFFFFFFFFFFFFE0
07FFFFFFFFFFFFFFFFFFFFFFFFE0
03FFFFFFFFFFFFFFFFFFFFFFFFC0
01FFFFFFFFFFFFFFFFFFFFFFFFC0
00FFFFFFFFFFFFFFFFFFFFFFFF80
00FFFFFFFFFFFFFFFFFFFFFFFF80
007FFFFFFFFFFFFFFFFFFFFFFF00
003FFFFFFFFFFFFFFFFFFFFFFE00
000FFFFFFFFFFFFFFFFFFFFFFC00
0007FFFFFFFFFFFFFFFFFFFFF800
0003FFFFFFFFFFFFFFFFFFFFF000
0000FFFFFFFFFFFFFFFFFFFFE000
00007FFFFFFFFFFFFFFFFFFF8000
00000FFFFFFFFFFFFFFFFFFE0000
000003FFFFFFFFFFFFFFFFF80000
0000003FFFFFFFFFFFFFFFC00000
ENDCHAR
STARTCHAR 0046
ENCODING 70
SWIDTH 892 0
DWIDTH 125 0
BBX 111 106 0 -2
BITMAP
0000001FFFFFFFFFFFFFFFE00000
000001FFFFFFFFFFFFFFFFFE0000
00000FFFFFFFFFFFFFFFFFFF8000
00003FFFFFFFFFFFFFFFFFFFE000
0000FFFFFFFFFFFFFFFFFFFFF000
0001FFFFFFFFFFFFFFFFFFFFFC00
0007FFFFFFFFFFFFFFFFFFFFFE00
000FFFFFFFFFFFFFFFFFFFFFFF00
001FFFFFFFFFFFFFFFFFFFFFFF80
003FFFFFFFFFFFFFFFFFFFFFFF80
007FFFFFFFFFFFFFFFFFFFFFFFC0
00FFFFFFFFFFFFFFFFFFFFFFFFE0
01FFFFFFFFFFFFFFFFFFFFFFFFF0
03FFFFFFFFFFFFFFFFFFFFFFFFF0
03FFFFFFFFFFFFFFFFFFFFFFFFF8
07FFFFFFFFFFFFFFFFFFFFFFFFF8
0FFFFFFFFFFFFFFFFFFFFFFFFFF8
0FFFFFFFFFFFFFFFFFFFFFFFFFFC
1FFFFFFFFFFFFFFFFFFFFFFFFFFC
1FFFFFFFFFFFFFFFFFFFFFFFFFFC
1FFFFFFFFFFFFFFFFFFFFFFFFFFE
3FFFFFFFFFFFFFFFFFFFFFFFFFFE
3FFFFFFC00000000000000FFFFFE
7FFFFFE0000000000000007FFFFE
7FFFFFC0000000000000003FFFFE
7FFFFF80000000000000003FFFFE
7FFFFF00000000000000003FFFFE
7FFFFE00000000000000003FFFFE
FFFFFC00000000000000003FFFFE
FFFFFC00000000000000001FFFFE
FFFFFC00000000000000001FFFFC
FFFFF800000000000000000FFFFC
FFFFF800000000000000000FFFF8
FFFFF8000000000000000007FFF0
FFFFF8000000000000000003FFE0
FFFFF8000000000000000000FF80
FFFFF80000000000000000000000
FFFFF80000000000000000000000
FFFFF80000000000000000000000
FFFFF80000000000000000000000
FFFFF80000000000000000000000
FFFFF80000000000000000000000
FFFFF80000000000000000000000
FFFFF80000000000000000000000
FFFFF80000000000000000000000
FFFFF80000000000000000000000
FFFFFFFFFFFFFFFFE00000000000
FFFFFFFFFFFFFFFFF80000000000
FFFFFFFFFFFFFFFFFC0000000000
FFFFFFFFFFFFFFFFFE0000000000
FFFFFFFFFFFFFFFFFF0000000000
FFFFFFFFFFFFFFFFFF8000000000
FFFFFFFFFFFFFFFFFF8000000000
FFFFFFFFFFFFFFFFFFC000000000
FFFFFFFFFFFFFFFFFFC000000000
FFFFFFFFFFFFFFFFFFC000000000
FFFFFFFFFFFFFFFFFFC000000000
FFFFFFFFFFFFFFFFFFC000000000
FFFFFFFFFFFFFFFFFFC000000000
FFFFFFFFFFFFFFFFFF8000000000
FFFFFFFFFFFFFFFFFF8000000000
FFFFFFFFFFFFFFFFFF8000000000
FFFFFFFFFFFFFFFFFF0000000000
FFFFFFFFFFFFFFFFFE0000000000
FFFFFFFFFFFFFFFFFC0000000000
FFFFFFFFFFFFFFFFF00000000000
FFFFFFFFFFFFFFFFC00000000000
FFFFF80000000000000000000000
FFFFF80000000000000000000000
FFFFF80000000000000000000000
FFFFF80000000000000000000000
FFFFF80000000000000000000000
FFFFF80000000000000000000000
FFFFF80000000000000000000000
FFFFF80000000000000000000000
FFFFF80000000000000000000000
FFFFF80000000000000000000000
FFFFF80000000000000000000000
FFFFF80000000000000000000000
FFFFF80000000000000000000000
FFFFF80000000000000000000000
FFFFF80000000000000000000000
FFFFF80000000000000000000000
FFFFF80000000000000000000000
FFFFF80000000000000000000000
FFFFF80000000000000000000000
FFFFF80000000000000000000000
FFFFF80000000000000000000000
FFFFF80000000000000000000000
FFFFF80000000000000000000000
FFFFF80000000000000000000000
FFFFF80000000000000000000000
FFFFF80000000000000000000000
FFFFF80000000000000000000000
FFFFF80000000000000000000000
FFFFF80000000000000000000000
FFFFF80000000000000000000000
FFFFF80000000000000000000000
FFFFF80000000000000000000000
7FFFF00000000000000000000000
7FFFF00000000000000000000000
3FFFE00000000000000000000000
1FFFE00000000000000000000000
0FFFC00000000000000000000000
07FF000000000000000000000000
01FC000000000000000000000000
ENDCHAR
STARTCHAR 0047
ENCODING 71
SWIDTH 892 0
DWIDTH 125 0
BBX 109 104 0 0
BITMAP
0000001FFFFFFFFFFFFFFFC00000
000003FFFFFFFFFFFFFFFFF80000
00000FFFFFFFFFFFFFFFFFFE0000
00003FFFFFFFFFFFFFFFFFFF8000
0000FFFFFFFFFFFFFFFFFFFFE000
0003FFFFFFFFFFFFFFFFFFFFF000
0007FFFFFFFFFFFFFFFFFFFFF800
000FFFFFFFFFFFFFFFFFFFFFFC00
003FFFFFFFFFFFFFFFFFFFFFFE00
007FFFFFFFFFFFFFFFFFFFFFFF00
00FFFFFFFFFFFFFFFFFFFFFFFF80
00FFFFFFFFFFFFFFFFFFFFFFFF80
01FFFFFFFFFFFFFFFFFFFFFFFFC0
03FFFFFFFFFFFFFFFFFFFFFFFFC0
07FFFFFFFFFFFFFFFFFFFFFFFFE0
07FFFFFFFFFFFFFFFFFFFFFFFFE0
0FFFFFFFFFFFFFFFFFFFFFFFFFF0
1FFFFFFFFFFFFFFFFFFFFFFFFFF0
1FFFFFFFFFFFFFFFFFFFFFFFFFF0
3FFFFFFFFFFFFFFFFFFFFFFFFFF0
3FFFFFF000000000000001FFFFF8
3FFFFFC000000000000000FFFFF8
7FFFFF80000000000000007FFFF8
7FFFFE00000000000000007FFFF8
7FFFFE00000000000000007FFFF8
7FFFFC00000000000000007FFFF8
FFFFF800000000000000007FFFF8
FFFFF800000000000000007FFFF0
FFFFF000000000000000003FFFF0
FFFFF000000000000000003FFFE0
FFFFF000000000000000001FFFE0
FFFFF000000000000000000FFFC0
FFFFF0000000000000000007FF00
FFFFF0000000000000000001FE00
FFFFF00000000000000000000000
FFFFF00000000000000000000000
FFFFF00000000000000000000000
FFFFF00000000000000000000000
FFFFF00000000000000000000000
FFFFF00000000000000000000000
FFFFF00000000000000000000000
FFFFF00000000000000000000000
FFFFF00000000000000000000000
FFFFF00000000000000000000000
FFFFF00000000000000000000000
FFFFF00000000000000000000000
FFFFF00000000000000000000000
FFFFF00000000000000000000000
FFFFF00000000000000000000000
FFFFF00000000000000000000000
FFFFF00000000000000000000000
FFFFF00000000000000000000000
FFFFF0000000000000007FE00000
FFFFF000000000000000FFFC0000
FFFFF000000000000003FFFE0000
FFFFF000000000000007FFFF8000
FFFFF000000000000007FFFFC000
FFFFF00000000000000FFFFFE000
FFFFF00000000000000FFFFFF000
FFFFF00000000000001FFFFFF800
FFFFF00000000000001FFFFFFC00
FFFFF00000000000001FFFFFFE00
FFFFF00000000000001FFFFFFF00
FFFFF00000000000001FFFFFFF00
FFFFF00000000000000FFFFFFF80
FFFFF00000000000000FFFFFFFC0
FFFFF00000000000000FFFFFFFC0
FFFFF000000000000007FFFFFFE0
FFFFF000000000000003FFFFFFE0
FFFFF000000000000001FFFFFFE0
FFFFF000000000000000FFFFFFF0
FFFFF0000000000000001FFFFFF0
FFFFF00000000000000003FFFFF0
FFFFF00000000000000001FFFFF0
FFFFF00000000000000000FFFFF8
FFFFF000000000000000007FFFF8
FFFFF800000000000000007FFFF8
FFFFF800000000000000007FFFF8
7FFFFC00000000000000007FFFF8
7FFFFE00000000000000007FFFF8
7FFFFF0000000000000000FFFFF8
7FFFFF8000000000000000FFFFF8
3FFFFFC000000000000001FFFFF0
3FFFFFF000000000000007FFFFF0
3FFFFFFFFFFFFFFFFFFFFFFFFFF0
1FFFFFFFFFFFFFFFFFFFFFFFFFF0
1FFFFFFFFFFFFFFFFFFFFFFFFFE0
0FFFFFFFFFFFFFFFFFFFFFFFFFE0
07FFFFFFFFFFFFFFFFFFFFFFFFE0
07FFFFFFFFFFFFFFFFFFFFFFFFC0
03FFFFFFFFFFFFFFFFFFFFFFFFC0
01FFFFFFFFFFFFFFFFFFFFFFFF80
00FFFFFFFFFFFFFFFFFFFFFFFF00
00FFFFFFFFFFFFFFFFFFFFFFFF00
007FFFFFFFFFFFFFFFFFFFFFFE00
003FFFFFFFFFFFFFFFFFFFFFFC00
000FFFFFFFFFFFFFFFFFFFFFF800
0007FFFFFFFFFFFFFFFFFFFFF000
0003FFFFFFFFFFFFFFFFFFFFE000
0000FFFFFFFFFFFFFFFFFFFF8000
00003FFFFFFFFFFFFFFFFFFF0000
00000FFFFFFFFFFFFFFFFFFC0000
000003FFFFFFFFFFFFFFFFE00000
0000001FFFFFFFFFFFFFFF000000
ENDCHAR
STARTCHAR 0048
ENCODING 72
SWIDTH 892 0
DWIDTH 125 0
BBX 112 107 0 -2
BITMAP
01FC000000000000000000003F80
07FF00000000000000000000FFE0
0FFF80000000000000000001FFF0
1FFFC0000000000000000003FFF8
3FFFE0000000000000000007FFFC
7FFFF000000000000000000FFFFE
7FFFF000000000000000000FFFFE
FFFFF800000000000000001FFFFF
FFFFF800000000000000001FFFFF
FFFFF800000000000000001FFFFF
FFFFF800000000000000001FFFFF
FFFFF800000000000000001FFFFF
FFFFF800000000000000001FFFFF
FFFFF800000000000000001FFFFF
FFFFF800000000000000001FFFFF
FFFFF800000000000000001FFFFF
FFFFF800000000000000001FFFFF
FFFFF800000000000000001FFFFF
FFFFF800000000000000001FFFFF
FFFFF800000000000000001FFFFF
FFFFF800000000000000001FFFFF
FFFFF800000000000000001FFFFF
FFFFF800000000000000001FFFFF
FFFFF800000000000000001FFFFF
FFFFF800000000000000001FFFFF
FFFFF800000000000000001FFFFF
FFFFF800000000000000001FFFFF
FFFFF800000000000000001FFFFF
FFFFF800000000000000001FFFFF
FFFFF800000000000000001FFFFF
FFFFF800000000000000001FFFFF
FFFFF800000000000000001FFFFF
FFFFF800000000000000001FFFFF
FFFFF800000000000000001FFFFF
FFFFF800000000000000001FFFFF
FFFFF800000000000000001FFFFF
FFFFF800000000000000001FFFFF
FFFFF800000000000000001FFFFF
FFFFF800000000000000001FFFFF
FFFFF800000000000000001FFFFF
FFFFF800000000000000001FFFFF
FFFFF800000000000000001FFFFF
FFFFF800000000000000001FFFFF
FFFFF800000000000000001FFFFF
FFFFF800000000000000001FFFFF
FFFFF800000000000000001FFFFF
FFFFF800000000000000001FFFFF
FFFFFFFFFFFFFFFFFFFFFFFFFFFF
FFFFFFFFFFFFFFFFFFFFFFFFFFFF
FFFFFFFFFFFFFFFFFFFFFFFFFFFF
FFFFFFFFFFFFFFFFFFFFFFFFFFFF
FFFFFFFFFFFFFFFFFFFFFFFFFFFF
FFFFFFFFFFFFFFFFFFFFFFFFFFFF
FFFFFFFFFFFFFFFFFFFFFFFFFFFF
FFFFFFFFFFFFFFFFFFFFFFFFFFFF
FFFFFFFFFFFFFFFFFFFFFFFFFFFF
FFFFFFFFFFFFFFFFFFFFFFFFFFFF
FFFFFFFFFFFFFFFFFFFFFFFFFFFF
FFFFFFFFFFFFFFFFFFFFFFFFFFFF
FFFFFFFFFFFFFFFFFFFFFFFFFFFF
FFFFFFFFFFFFFFFFFFFFFFFFFFFF
FFFFFFFFFFFFFFFFFFFFFFFFFFFF
FFFFFFFFFFFFFFFFFFFFFFFFFFFF
FFFFFFFFFFFFFFFFFFFFFFFFFFFF
FFFFFFFFFFFFFFFFFFFFFFFFFFFF
FFFFFFFFFFFFFFFFFFFFFFFFFFFF
FFFFFFFFFFFFFFFFFFFFFFFFFFFF
FFFFFFFFFFFFFFFFFFFFFFFFFFFF
FFFFF800000000000000001FFFFF
FFFFF800000000000000001FFFFF
FFFFF800000000000000001FFFFF
FFFFF800000000000000001FFFFF
FFFFF800000000000000001FFFFF
FFFFF800000000000000001FFFFF
FFFFF800000000000000001FFFFF
FFFFF800000000000000001FFFFF
FFFFF800000000000000001FFFFF
FFFFF800000000000000001FFFFF
FFFFF800000000000000001FFFFF
FFFFF800000000000000001FFFFF
FFFFF800000000000000001FFFFF
FFFFF800000000000000001FFFFF
FFFFF800000000000000001FFFFF
FFFFF800000000000000001FFFFF
FFFFF800000000000000001FFFFF
FFFFF800000000000000001FFFFF
FFFFF800000000000000001FFFFF
FFFFF800000000000000001FFFFF
FFFFF800000000000000001FFFFF
FFFFF800000000000000001FFFFF
FFFFF800000000000000001FFFFF
FFFFF800000000000000001FFFFF
FFFFF800000000000000001FFFFF
FFFFF800000000000000001FFFFF
FFFFF800000000000000001FFFFF
FFFFF800000000000000001FFFFF
FFFFF800000000000000001FFFFF
FFFFF800000000000000001FFFFF
FFFFF800000000000000001FFFFF
FFFFF800000000000000001FFFFF
7FFFF000000000000000000FFFFE
7FFFF000000000000000000FFFFE
3FFFE0000000000000000007FFFC
1FFFC0000000000000000003FFF8
0FFF80000000000000000001FFF0
07FF00000000000000000000FFE0
01FC000000000000000000003F80
ENDCHAR
STARTCHAR 0049
ENCODING 73
SWIDTH 250 0
DWIDTH 35 0
BBX 21 107 0 -2
BITMAP
01FC00
07FF00
0FFF80
1FFFC0
3FFFE0
7FFFF0
7FFFF0
FFFFF8
FFFFF8
FFFFF8
FFFFF8
FFFFF8
FFFFF8
FFFFF8
FFFFF8
FFFFF8
FFFFF8
FFFFF8
FFFFF8
FFFFF8
FFFFF8
FFFFF8
FFFFF8
FFFFF8
FFFFF8
FFFFF8
FFFFF8
FFFFF8
FFFFF8
FFFFF8
FFFFF8
FFFFF8
FFFFF8
FFFFF8
FFFFF8
FFFFF8
FFFFF8
FFFFF8
FFFFF8
FFFFF8
FFFFF8
FFFFF8
FFFFF8
FFFFF8
FFFFF8
FFFFF8
FFFFF8
FFFFF8
FFFFF8
FFFFF8
FFFFF8
FFFFF8
FFFFF8
FFFFF8
FFFFF8
FFFFF8
FFFFF8
FFFFF8
FFFFF8
FFFFF8
FFFFF8
FFFFF8
FFFFF8
FFFFF8
FFFFF8
FFFFF8
FFFFF8
FFFFF8
FFFFF8
FFFFF8
FFFFF8
FFFFF8
FFFFF8
FFFFF8
FFFFF8
FFFFF8
FFFFF8
FFFFF8
FFFFF8
FFFFF8
FFFFF8
FFFFF8
FFFFF8
FFFFF8
FFFFF8
FFFFF8
FFFFF8
FFFFF8
FFFFF8
FFFFF8
FFFFF8
FFFFF8
FFFFF8
FFFFF8
FFFFF8
FFFFF8
FFFFF8
FFFFF8
FFFFF8
FFFFF8
7FFFF0
7FFFF0
3FFFE0
1FFFC0
0FFF80
07FF00
01FC00
ENDCHAR
STARTCHAR 004A
ENCODING 74
SWIDTH 892 0
DWIDTH 125 0
BBX 111 106 0 -1
BITMAP
0000000000000000000000007F00
000000000000000000000001FFC0
000000000000000000000007FFE0
00000000000000000000000FFFF0
00000000000000000000000FFFF8
00000000000000000000001FFFFC
00000000000000000000001FFFFC
00000000000000000000003FFFFC
00000000000000000000003FFFFE
00000000000000000000003FFFFE
00000000000000000000003FFFFE
00000000000000000000003FFFFE
00000000000000000000003FFFFE
00000000000000000000003FFFFE
00000000000000000000003FFFFE
00000000000000000000003FFFFE
00000000000000000000003FFFFE
00000000000000000000003FFFFE
00000000000000000000003FFFFE
00000000000000000000003FFFFE
00000000000000000000003FFFFE
00000000000000000000003FFFFE
00000000000000000000003FFFFE
00000000000000000000003FFFFE
00000000000000000000003FFFFE
00000000000000000000003FFFFE
00000000000000000000003FFFFE
00000000000000000000003FFFFE
00000000000000000000003FFFFE
00000000000000000000003FFFFE
00000000000000000000003FFFFE
00000000000000000000003FFFFE
00000000000000000000003FFFFE
00000000000000000000003FFFFE
00000000000000000000003FFFFE
00000000000000000000003FFFFE
00000000000000000000003FFFFE
00000000000000000000003FFFFE
00000000000000000000003FFFFE
00000000000000000000003FFFFE
00000000000000000000003FFFFE
00000000000000000000003FFFFE
00000000000000000000003FFFFE
00000000000000000000003FFFFE
00000000000000000000003FFFFE
00000000000000000000003FFFFE
00000000000000000000003FFFFE
00000000000000000000003FFFFE
00000000000000000000003FFFFE
00000000000000000000003FFFFE
00000000000000000000003FFFFE
00000000000000000000003FFFFE
00000000000000000000003FFFFE
00000000000000000000003FFFFE
00000000000000000000003FFFFE
00000000000000000000003FFFFE
00000000000000000000003FFFFE
00000000000000000000003FFFFE
00000000000000000000003FFFFE
00000000000000000000003FFFFE
00000000000000000000003FFFFE
00000000000000000000003FFFFE
00000000000000000000003FFFFE
00000000000000000000003FFFFE
00000000000000000000003FFFFE
00000000000000000000003FFFFE
00000000000000000000003FFFFE
00000000000000000000003FFFFE
00000000000000000000003FFFFE
00000000000000000000003FFFFE
03FC0000000000000000003FFFFE
0FFF0000000000000000003FFFFE
1FFF8000000000000000003FFFFE
3FFFC000000000000000003FFFFE
3FFFE000000000000000003FFFFE
7FFFF000000000000000003FFFFE
7FFFF000000000000000007FFFFE
FFFFF000000000000000007FFFFE
FFFFF80000000000000000FFFFFC
FFFFF80000000000000000FFFFFC
FFFFF80000000000000001FFFFFC
FFFFF80000000000000003FFFFFC
FFFFF80000000000000007FFFFFC
FFFFFC000000000000000FFFFFF8
FFFFFE000000000000007FFFFFF8
FFFFFFFFFFFFFFFFFFFFFFFFFFF0
FFFFFFFFFFFFFFFFFFFFFFFFFFF0
7FFFFFFFFFFFFFFFFFFFFFFFFFF0
7FFFFFFFFFFFFFFFFFFFFFFFFFE0
7FFFFFFFFFFFFFFFFFFFFFFFFFC0
3FFFFFFFFFFFFFFFFFFFFFFFFFC0
3FFFFFFFFFFFFFFFFFFFFFFFFF80
1FFFFFFFFFFFFFFFFFFFFFFFFF00
1FFFFFFFFFFFFFFFFFFFFFFFFF00
0FFFFFFFFFFFFFFFFFFFFFFFFE00
07FFFFFFFFFFFFFFFFFFFFFFFC00
07FFFFFFFFFFFFFFFFFFFFFFF800
03FFFFFFFFFFFFFFFFFFFFFFF000
01FFFFFFFFFFFFFFFFFFFFFFE000
00FFFFFFFFFFFFFFFFFFFFFFC000
007FFFFFFFFFFFFFFFFFFFFF0000
003FFFFFFFFFFFFFFFFFFFFE0000
000FFFFFFFFFFFFFFFFFFFF80000
0003FFFFFFFFFFFFFFFFFFE00000
0000FFFFFFFFFFFFFFFFFF000000
00001FFFFFFFFFFFFFFFF0000000
ENDCHAR
STARTCHAR 004B
ENCODING 75
SWIDTH 892 0
DWIDTH 125 0
BBX 116 108 0 -2
BITMAP
01FC00000000000000000007E00000
07FF0000000000000000003FF80000
0FFF8000000000000000007FFE0000
1FFFC00000000000000000FFFF0000
3FFFE00000000000000001FFFF0000
7FFFF00000000000000001FFFF8000
7FFFF00000000000000003FFFF8000
FFFFF80000000000000003FFFFC000
FFFFF80000000000000003FFFFC000
FFFFF80000000000000007FFFFC000
FFFFF80000000000000007FFFFC000
FFFFF80000000000000007FFFFC000
FFFFF80000000000000007FFFFC000
FFFFF8000000000000000FFFFFC000
FFFFF8000000000000000FFFFFC000
FFFFF8000000000000000FFFFF8000
FFFFF8000000000000000FFFFF8000
FFFFF8000000000000000FFFFF8000
FFFFF8000000000000001FFFFF8000
FFFFF8000000000000001FFFFF0000
FFFFF8000000000000001FFFFF0000
FFFFF8000000000000001FFFFF0000
FFFFF8000000000000003FFFFF0000
FFFFF8000000000000003FFFFF0000
FFFFF8000000000000003FFFFE0000
FFFFF8000000000000003FFFFE0000
FFFFF8000000000000007FFFFE0000
FFFFF8000000000000007FFFFE0000
FFFFF8000000000000007FFFFC0000
FFFFF8000000000000007FFFFC0000
FFFFF800000000000000FFFFFC0000
FFFFF800000000000000FFFFFC0000
FFFFF800000000000001FFFFFC0000
FFFFF800000000000003FFFFF80000
FFFFF800000000000007FFFFF80000
FFFFF80000000000000FFFFFF80000
FFFFF80000000000003FFFFFF00000
FFFFF8000000000000FFFFFFF00000
FFFFFFFFFFFFFFFFFFFFFFFFF00000
FFFFFFFFFFFFFFFFFFFFFFFFE00000
FFFFFFFFFFFFFFFFFFFFFFFFE00000
FFFFFFFFFFFFFFFFFFFFFFFFC00000
FFFFFFFFFFFFFFFFFFFFFFFFC00000
FFFFFFFFFFFFFFFFFFFFFFFF800000
FFFFFFFFFFFFFFFFFFFFFFFF000000
FFFFFFFFFFFFFFFFFFFFFFFF800000
FFFFFFFFFFFFFFFFFFFFFFFFC00000
FFFFFFFFFFFFFFFFFFFFFFFFE00000
FFFFFFFFFFFFFFFFFFFFFFFFF00000
FFFFFFFFFFFFFFFFFFFFFFFFF80000
FFFFFFFFFFFFFFFFFFFFFFFFFC0000
FFFFFFFFFFFFFFFFFFFFFFFFFC0000
FFFFFFFFFFFFFFFFFFFFFFFFFE0000
FFFFFFFFFFFFFFFFFFFFFFFFFF0000
FFFFFFFFFFFFFFFFFFFFFFFFFF0000
FFFFFFFFFFFFFFFFFFFFFFFFFF8000
FFFFFFFFFFFFFFFFFFFFFFFFFF8000
FFFFFFFFFFFFFFFFFFFFFFFFFFC000
FFFFFFFFFFFFFFFFFFFFFFFFFFC000
FFFFF800000000000003FFFFFFE000
FFFFF8000000000000007FFFFFE000
FFFFF8000000000000001FFFFFE000
FFFFF8000000000000000FFFFFF000
FFFFF80000000000000007FFFFF000
FFFFF80000000000000003FFFFF000
FFFFF80000000000000001FFFFF800
FFFFF80000000000000001FFFFF800
FFFFF80000000000000001FFFFF800
FFFFF80000000000000000FFFFF800
FFFFF80000000000000000FFFFF800
FFFFF80000000000000000FFFFFC00
FFFFF80000000000000000FFFFFC00
FFFFF800000000000000007FFFFC00
FFFFF800000000000000007FFFFC00
FFFFF800000000000000007FFFFE00
FFFFF800000000000000007FFFFE00
FFFFF800000000000000003FFFFE00
FFFFF800000000000000003FFFFE00
FFFFF800000000000000003FFFFF00
FFFFF800000000000000003FFFFF00
FFFFF800000000000000003FFFFF00
FFFFF800000000000000001FFFFF00
FFFFF800000000000000001FFFFF00
FFFFF800000000000000001FFFFF80
FFFFF800000000000000001FFFFF80
FFFFF800000000000000000FFFFF80
FFFFF800000000000000000FFFFF80
FFFFF800000000000000000FFFFFC0
FFFFF800000000000000000FFFFFC0
FFFFF8000000000000000007FFFFC0
FFFFF8000000000000000007FFFFC0
FFFFF8000000000000000007FFFFE0
FFFFF8000000000000000007FFFFE0
FFFFF8000000000000000007FFFFE0
FFFFF8000000000000000003FFFFE0
FFFFF8000000000000000003FFFFE0
FFFFF8000000000000000003FFFFF0
FFFFF8000000000000000003FFFFF0
FFFFF8000000000000000001FFFFF0
FFFFF8000000000000000001FFFFE0
FFFFF8000000000000000001FFFFE0
7FFFF0000000000000000001FFFFE0
7FFFF0000000000000000000FFFFC0
3FFFE0000000000000000000FFFFC0
1FFFC00000000000000000007FFF80
0FFF800000000000000000003FFF00
07FF000000000000000000000FFE00
01FC0000000000000000000003F000
ENDCHAR
STARTCHAR 004C
ENCODING 76
SWIDTH 892 0
DWIDTH 125 0
BBX 111 106 0 -1
BITMAP
01FC000000000000000000000000
07FF000000000000000000000000
0FFF800000000000000000000000
1FFFC00000000000000000000000
3FFFE00000000000000000000000
7FFFF00000000000000000000000
7FFFF00000000000000000000000
7FFFF80000000000000000000000
FFFFF80000000000000000000000
FFFFF80000000000000000000000
FFFFF80000000000000000000000
FFFFF80000000000000000000000
FFFFF80000000000000000000000
FFFFF80000000000000000000000
FFFFF80000000000000000000000
FFFFF80000000000000000000000
FFFFF80000000000000000000000
FFFFF80000000000000000000000
FFFFF80000000000000000000000
FFFFF80000000000000000000000
FFFFF80000000000000000000000
FFFFF80000000000000000000000
FFFFF80000000000000000000000
FFFFF80000000000000000000000
FFFFF80000000000000000000000
FFFFF80000000000000000000000
FFFFF80000000000000000000000
FFFFF80000000000000000000000
FFFFF80000000000000000000000
FFFFF80000000000000000000000
FFFFF80000000000000000000000
FFFFF80000000000000000000000
FFFFF80000000000000000000000
FFFFF80000000000000000000000
FFFFF80000000000000000000000
FFFFF80000000000000000000000
FFFFF80000000000000000000000
FFFFF80000000000000000000000
FFFFF80000000000000000000000
FFFFF80000000000000000000000
FFFFF80000000000000000000000
FFFFF80000000000000000000000
FFFFF80000000000000000000000
FFFFF80000000000000000000000
FFFFF80000000000000000000000
FFFFF80000000000000000000000
FFFFF80000000000000000000000
FFFFF80000000000000000000000
FFFFF80000000000000000000000
FFFFF80000000000000000000000
FFFFF80000000000000000000000
FFFFF80000000000000000000000
FFFFF80000000000000000000000
FFFFF80000000000000000000000
FFFFF80000000000000000000000
FFFFF80000000000000000000000
FFFFF80000000000000000000000
FFFFF80000000000000000000000
FFFFF80000000000000000000000
FFFFF80000000000000000000000
FFFFF80000000000000000000000
FFFFF80000000000000000000000
FFFFF80000000000000000000000
FFFFF80000000000000000000000
FFFFF80000000000000000000000
FFFFF80000000000000000000000
FFFFF80000000000000000000000
FFFFF80000000000000000000000
FFFFF80000000000000000000000
FFFFF80000000000000000000000
FFFFF80000000000000000007F80
FFFFF8000000000000000001FFE0
FFFFF8000000000000000003FFF0
FFFFF8000000000000000007FFF8
FFFFF800000000000000000FFFF8
FFFFF800000000000000001FFFFC
FFFFFC00000000000000001FFFFC
FFFFFC00000000000000001FFFFE
7FFFFC00000000000000003FFFFE
7FFFFE00000000000000003FFFFE
7FFFFF00000000000000003FFFFE
7FFFFF80000000000000003FFFFE
7FFFFFC0000000000000003FFFFE
3FFFFFE0000000000000007FFFFE
3FFFFFFC00000000000000FFFFFE
1FFFFFFFFFFFFFFFFFFFFFFFFFFE
1FFFFFFFFFFFFFFFFFFFFFFFFFFC
1FFFFFFFFFFFFFFFFFFFFFFFFFFC
0FFFFFFFFFFFFFFFFFFFFFFFFFFC
0FFFFFFFFFFFFFFFFFFFFFFFFFFC
07FFFFFFFFFFFFFFFFFFFFFFFFF8
03FFFFFFFFFFFFFFFFFFFFFFFFF8
03FFFFFFFFFFFFFFFFFFFFFFFFF0
01FFFFFFFFFFFFFFFFFFFFFFFFF0
00FFFFFFFFFFFFFFFFFFFFFFFFE0
007FFFFFFFFFFFFFFFFFFFFFFFC0
003FFFFFFFFFFFFFFFFFFFFFFFC0
001FFFFFFFFFFFFFFFFFFFFFFF80
000FFFFFFFFFFFFFFFFFFFFFFF00
0007FFFFFFFFFFFFFFFFFFFFFE00
0001FFFFFFFFFFFFFFFFFFFFFC00
0000FFFFFFFFFFFFFFFFFFFFF000
00003FFFFFFFFFFFFFFFFFFFE000
00000FFFFFFFFFFFFFFFFFFF8000
000001FFFFFFFFFFFFFFFFFE0000
0000001FFFFFFFFFFFFFFFE00000
ENDCHAR
STARTCHAR 004D
ENCODING 77
SWIDTH 1142 0
DWIDTH 160 0
BBX 152 106 0 -2
BITMAP
0000001FFFFFFFFFFFFFFFFFFFFE0000000000
000001FFFFFFFFFFFFFFFFFFFFFFE000000000
00000FFFFFFFFFFFFFFFFFFFFFFFF800000000
00003FFFFFFFFFFFFFFFFFFFFFFFFF00000000
0000FFFFFFFFFFFFFFFFFFFFFFFFFF80000000
0001FFFFFFFFFFFFFFFFFFFFFFFFFFE0000000
0007FFFFFFFFFFFFFFFFFFFFFFFFFFF0000000
000FFFFFFFFFFFFFFFFFFFFFFFFFFFFC000000
001FFFFFFFFFFFFFFFFFFFFFFFFFFFFE000000
003FFFFFFFFFFFFFFFFFFFFFFFFFFFFF000000
007FFFFFFFFFFFFFFFFFFFFFFFFFFFFF800000
00FFFFFFFFFFFFFFFFFFFFFFFFFFFFFFC00000
01FFFFFFFFFFFFFFFFFFFFFFFFFFFFFFE00000
03FFFFFFFFFFFFFFFFFFFFFFFFFFFFFFE00000
03FFFFFFFFFFFFFFFFFFFFFFFFFFFFFFF00000
07FFFFFFFFFFFFFFFFFFFFFFFFFFFFFFF80000
0FFFFFFFFFFFFFFFFFFFFFFFFFFFFFFFF80000
0FFFFFFFFFFFFFFFFFFFFFFFFFFFFFFFFC0000
1FFFFFFFFFFFFFFFFFFFFFFFFFFFFFFFFC0000
1FFFFFFFFFFFFFFFFFFFFFFFFFFFFFFFFE0000
3FFFFFFFFFFFFFFFFFFFFFFFFFFFFFFFFE0000
3FFFFFF800000007FFFFC000000FFFFFFF0000
7FFFFFE000000007FFFFC0000003FFFFFF0000
7FFFFFC000000007FFFFC0000000FFFFFF0000
7FFFFF0000000007FFFFC00000007FFFFF8000
7FFFFF0000000007FFFFC00000003FFFFF8000
FFFFFE0000000007FFFFC00000001FFFFF8000
FFFFFC0000000007FFFFC00000000FFFFF8000
FFFFFC0000000007FFFFC00000000FFFFFC000
FFFFF80000000007FFFFC00000000FFFFFC000
FFFFF80000000007FFFFC000000007FFFFC000
FFFFF80000000007FFFFC000000007FFFFC000
FFFFF80000000007FFFFC000000007FFFFE000
FFFFF80000000007FFFFC000000007FFFFE000
FFFFF80000000007FFFFC000000007FFFFE000
FFFFF80000000007FFFFC000000003FFFFE000
FFFFF80000000007FFFFC000000003FFFFE000
FFFFF80000000007FFFFC000000003FFFFF000
FFFFF80000000007FFFFC000000003FFFFF000
FFFFF80000000007FFFFC000000001FFFFF000
FFFFF80000000007FFFFC000000001FFFFF000
FFFFF80000000007FFFFC000000001FFFFF800
FFFFF80000000007FFFFC000000001FFFFF800
FFFFF80000000007FFFFC000000000FFFFF800
FFFFF80000000007FFFFC000000000FFFFF800
FFFFF80000000007FFFFC000000000FFFFF800
FFFFF80000000007FFFFC000000000FFFFFC00
FFFFF80000000007FFFFC000000000FFFFFC00
FFFFF80000000007FFFFC0000000007FFFFC00
FFFFF80000000007FFFFC0000000007FFFFC00
FFFFF80000000007FFFFC0000000007FFFFE00
FFFFF80000000007FFFFC0000000007FFFFE00
FFFFF80000000007FFFFC0000000003FFFFE00
FFFFF80000000007FFFFC0000000003FFFFE00
FFFFF80000000007FFFFC0000000003FFFFE00
FFFFF80000000007FFFFC0000000003FFFFF00
FFFFF80000000007FFFFC0000000003FFFFF00
FFFFF80000000007FFFFC0000000001FFFFF00
FFFFF80000000007FFFFC0000000001FFFFF00
FFFFF80000000007FFFFC0000000001FFFFF80
FFFFF80000000007FFFFC0000000001FFFFF80
FFFFF80000000007FFFFC0000000000FFFFF80
FFFFF80000000007FFFFC0000000000FFFFF80
FFFFF80000000007FFFFC0000000000FFFFF80
FFFFF80000000007FFFFC0000000000FFFFFC0
FFFFF80000000007FFFFC0000000000FFFFFC0
FFFFF80000000007FFFFC00000000007FFFFC0
FFFFF80000000007FFFFC00000000007FFFFC0
FFFFF80000000007FFFFC00000000007FFFFE0
FFFFF80000000007FFFFC00000000007FFFFE0
FFFFF80000000007FFFFC00000000003FFFFE0
FFFFF80000000007FFFFC00000000003FFFFE0
FFFFF80000000007FFFFC00000000003FFFFE0
FFFFF80000000007FFFFC00000000003FFFFF0
FFFFF80000000007FFFFC00000000003FFFFF0
FFFFF80000000007FFFFC00000000001FFFFF0
FFFFF80000000007FFFFC00000000001FFFFF0
FFFFF80000000007FFFFC00000000001FFFFF8
FFFFF80000000007FFFFC00000000001FFFFF8
FFFFF80000000007FFFFC00000000000FFFFF8
FFFFF80000000007FFFFC00000000000FFFFF8
FFFFF80000000007FFFFC00000000000FFFFF8
FFFFF80000000007FFFFC00000000000FFFFFC
FFFFF80000000007FFFFC00000000000FFFFFC
FFFFF80000000007FFFFC000000000007FFFFC
FFFFF80000000007FFFFC000000000007FFFFC
FFFFF80000000007FFFFC000000000007FFFFE
FFFFF80000000007FFFFC000000000007FFFFE
FFFFF80000000007FFFFC000000000003FFFFE
FFFFF80000000007FFFFC000000000003FFFFE
FFFFF80000000007FFFFC000000000003FFFFE
FFFFF80000000007FFFFC000000000003FFFFF
FFFFF80000000007FFFFC000000000003FFFFF
FFFFF80000000007FFFFC000000000001FFFFF
FFFFF80000000007FFFFC000000000001FFFFF
FFFFF80000000007FFFFC000000000001FFFFF
FFFFF80000000007FFFFC000000000001FFFFF
FFFFF80000000007FFFFC000000000000FFFFF
FFFFF00000000007FFFF8000000000000FFFFF
7FFFF00000000003FFFF8000000000000FFFFF
7FFFF00000000003FFFF80000000000007FFFE
3FFFE00000000001FFFF00000000000007FFFC
3FFFC00000000001FFFE00000000000003FFFC
1FFF800000000000FFFC00000000000001FFF8
07FF0000000000003FF800000000000000FFE0
01FC0000000000000FE0000000000000001F80
ENDCHAR
STARTCHAR 004E
ENCODING 78
SWIDTH 892 0
DWIDTH 125 0
BBX 118 106 0 -2
BITMAP
0000001FFFFFFFFFFFF80000000000
000001FFFFFFFFFFFFFF8000000000
00000FFFFFFFFFFFFFFFE000000000
00003FFFFFFFFFFFFFFFF800000000
0000FFFFFFFFFFFFFFFFFE00000000
0001FFFFFFFFFFFFFFFFFF80000000
0007FFFFFFFFFFFFFFFFFFC0000000
000FFFFFFFFFFFFFFFFFFFF0000000
001FFFFFFFFFFFFFFFFFFFF8000000
003FFFFFFFFFFFFFFFFFFFFC000000
007FFFFFFFFFFFFFFFFFFFFE000000
00FFFFFFFFFFFFFFFFFFFFFF000000
01FFFFFFFFFFFFFFFFFFFFFF800000
03FFFFFFFFFFFFFFFFFFFFFF800000
03FFFFFFFFFFFFFFFFFFFFFFC00000
07FFFFFFFFFFFFFFFFFFFFFFE00000
0FFFFFFFFFFFFFFFFFFFFFFFE00000
0FFFFFFFFFFFFFFFFFFFFFFFF00000
1FFFFFFFFFFFFFFFFFFFFFFFF00000
1FFFFFFFFFFFFFFFFFFFFFFFF80000
3FFFFFFFFFFFFFFFFFFFFFFFF80000
3FFFFFFC00000000003FFFFFFC0000
3FFFFFE0000000000007FFFFFC0000
7FFFFFC0000000000003FFFFFC0000
7FFFFF80000000000001FFFFFE0000
7FFFFF00000000000000FFFFFE0000
7FFFFE000000000000007FFFFE0000
FFFFFC000000000000003FFFFE0000
FFFFFC000000000000003FFFFF0000
FFFFFC000000000000003FFFFF0000
FFFFF8000000000000001FFFFF0000
FFFFF8000000000000001FFFFF0000
FFFFF8000000000000001FFFFF8000
FFFFF8000000000000001FFFFF8000
FFFFF8000000000000000FFFFF8000
FFFFF8000000000000000FFFFF8000
FFFFF8000000000000000FFFFF8000
FFFFF8000000000000000FFFFFC000
FFFFF8000000000000000FFFFFC000
FFFFF80000000000000007FFFFC000
FFFFF80000000000000007FFFFC000
FFFFF80000000000000007FFFFE000
FFFFF80000000000000007FFFFE000
FFFFF80000000000000003FFFFE000
FFFFF80000000000000003FFFFE000
FFFFF80000000000000003FFFFE000
FFFFF80000000000000003FFFFF000
FFFFF80000000000000001FFFFF000
FFFFF80000000000000001FFFFF000
FFFFF80000000000000001FFFFF000
FFFFF80000000000000001FFFFF800
FFFFF80000000000000001FFFFF800
FFFFF80000000000000000FFFFF800
FFFFF80000000000000000FFFFF800
FFFFF80000000000000000FFFFF800
FFFFF80000000000000000FFFFFC00
FFFFF800000000000000007FFFFC00
FFFFF800000000000000007FFFFC00
FFFFF800000000000000007FFFFC00
FFFFF800000000000000007FFFFE00
FFFFF800000000000000007FFFFE00
FFFFF800000000000000003FFFFE00
FFFFF800000000000000003FFFFE00
FFFFF800000000000000003FFFFE00
FFFFF800000000000000003FFFFF00
FFFFF800000000000000001FFFFF00
FFFFF800000000000000001FFFFF00
FFFFF800000000000000001FFFFF00
FFFFF800000000000000001FFFFF80
FFFFF800000000000000001FFFFF80
FFFFF800000000000000000FFFFF80
FFFFF800000000000000000FFFFF80
FFFFF800000000000000000FFFFF80
FFFFF800000000000000000FFFFFC0
FFFFF8000000000000000007FFFFC0
FFFFF8000000000000000007FFFFC0
FFFFF8000000000000000007FFFFC0
FFFFF8000000000000000007FFFFE0
FFFFF8000000000000000007FFFFE0
FFFFF8000000000000000003FFFFE0
FFFFF8000000000000000003FFFFE0
FFFFF8000000000000000003FFFFE0
FFFFF8000000000000000003FFFFF0
FFFFF8000000000000000001FFFFF0
FFFFF8000000000000000001FFFFF0
FFFFF8000000000000000001FFFFF0
FFFFF8000000000000000001FFFFF8
FFFFF8000000000000000001FFFFF8
FFFFF8000000000000000000FFFFF8
FFFFF8000000000000000000FFFFF8
FFFFF8000000000000000000FFFFF8
FFFFF8000000000000000000FFFFFC
FFFFF80000000000000000007FFFFC
FFFFF80000000000000000007FFFFC
FFFFF80000000000000000007FFFFC
FFFFF80000000000000000007FFFFC
FFFFF80000000000000000007FFFFC
FFFFF80000000000000000003FFFFC
FFFFF80000000000000000003FFFFC
7FFFF00000000000000000003FFFFC
7FFFF00000000000000000001FFFF8
3FFFE00000000000000000001FFFF0
1FFFC00000000000000000000FFFF0
0FFF8000000000000000000007FFE0
07FF0000000000000000000003FF80
01FC00000000000000000000007E00
ENDCHAR
STARTCHAR 004F
ENCODING 79
SWIDTH 892 0
DWIDTH 125 0
BBX 109 104 0 0
BITMAP
0000001FFFFFFFFFFFFFC0000000
000003FFFFFFFFFFFFFFFE000000
00000FFFFFFFFFFFFFFFFF800000
00003FFFFFFFFFFFFFFFFFE00000
0000FFFFFFFFFFFFFFFFFFF80000
0003FFFFFFFFFFFFFFFFFFFE0000
0007FFFFFFFFFFFFFFFFFFFF0000
000FFFFFFFFFFFFFFFFFFFFF8000
001FFFFFFFFFFFFFFFFFFFFFC000
003FFFFFFFFFFFFFFFFFFFFFE000
007FFFFFFFFFFFFFFFFFFFFFF000
00FFFFFFFFFFFFFFFFFFFFFFF800
01FFFFFFFFFFFFFFFFFFFFFFFC00
03FFFFFFFFFFFFFFFFFFFFFFFE00
07FFFFFFFFFFFFFFFFFFFFFFFF00
07FFFFFFFFFFFFFFFFFFFFFFFF00
0FFFFFFFFFFFFFFFFFFFFFFFFF80
0FFFFFFFFFFFFFFFFFFFFFFFFF80
1FFFFFFFFFFFFFFFFFFFFFFFFFC0
1FFFFFFFFFFFFFFFFFFFFFFFFFC0
3FFFFFF8000000000000FFFFFFE0
3FFFFFC00000000000001FFFFFE0
7FFFFF800000000000000FFFFFE0
7FFFFF0000000000000007FFFFF0
7FFFFE0000000000000003FFFFF0
7FFFFC0000000000000001FFFFF0
7FFFF80000000000000000FFFFF0
FFFFF80000000000000000FFFFF8
FFFFF80000000000000000FFFFF8
FFFFF000000000000000007FFFF8
FFFFF000000000000000007FFFF8
FFFFF000000000000000007FFFF8
FFFFF000000000000000007FFFF8
FFFFF000000000000000007FFFF8
FFFFF000000000000000007FFFF8
FFFFF000000000000000007FFFF8
FFFFF000000000000000007FFFF8
FFFFF000000000000000007FFFF8
FFFFF000000000000000007FFFF8
FFFFF000000000000000007FFFF8
FFFFF000000000000000007FFFF8
FFFFF000000000000000007FFFF8
FFFFF000000000000000007FFFF8
FFFFF000000000000000007FFFF8
FFFFF000000000000000007FFFF8
FFFFF000000000000000007FFFF8
FFFFF000000000000000007FFFF8
FFFFF000000000000000007FFFF8
FFFFF000000000000000007FFFF8
FFFFF000000000000000007FFFF8
FFFFF000000000000000007FFFF8
FFFFF000000000000000007FFFF8
FFFFF000000000000000007FFFF8
FFFFF000000000000000007FFFF8
FFFFF000000000000000007FFFF8
FFFFF000000000000000007FFFF8
FFFFF000000000000000007FFFF8
FFFFF000000000000000007FFFF8
FFFFF000000000000000007FFFF8
FFFFF000000000000000007FFFF8
FFFFF000000000000000007FFFF8
FFFFF000000000000000007FFFF8
FFFFF000000000000000007FFFF8
FFFFF000000000000000007FFFF8
FFFFF000000000000000007FFFF8
FFFFF000000000000000007FFFF8
FFFFF000000000000000007FFFF8
FFFFF000000000000000007FFFF8
FFFFF000000000000000007FFFF8
FFFFF000000000000000007FFFF8
FFFFF000000000000000007FFFF8
FFFFF000000000000000007FFFF8
FFFFF000000000000000007FFFF8
FFFFF000000000000000007FFFF8
FFFFF000000000000000007FFFF8
FFFFF80000000000000000FFFFF8
FFFFF80000000000000000FFFFF8
FFFFF80000000000000000FFFFF0
7FFFFC0000000000000001FFFFF0
7FFFFE0000000000000003FFFFF0
7FFFFF0000000000000007FFFFF0
7FFFFF800000000000000FFFFFE0
3FFFFFC00000000000001FFFFFE0
3FFFFFF8000000000000FFFFFFE0
1FFFFFFFFFFFFFFFFFFFFFFFFFC0
1FFFFFFFFFFFFFFFFFFFFFFFFFC0
0FFFFFFFFFFFFFFFFFFFFFFFFF80
0FFFFFFFFFFFFFFFFFFFFFFFFF80
07FFFFFFFFFFFFFFFFFFFFFFFF00
07FFFFFFFFFFFFFFFFFFFFFFFF00
03FFFFFFFFFFFFFFFFFFFFFFFE00
01FFFFFFFFFFFFFFFFFFFFFFFC00
00FFFFFFFFFFFFFFFFFFFFFFF800
007FFFFFFFFFFFFFFFFFFFFFF000
003FFFFFFFFFFFFFFFFFFFFFE000
001FFFFFFFFFFFFFFFFFFFFFC000
000FFFFFFFFFFFFFFFFFFFFF8000
0007FFFFFFFFFFFFFFFFFFFF0000
0003FFFFFFFFFFFFFFFFFFFE0000
0000FFFFFFFFFFFFFFFFFFF80000
00003FFFFFFFFFFFFFFFFFE00000
00000FFFFFFFFFFFFFFFFF800000
000003FFFFFFFFFFFFFFFE000000
0000001FFFFFFFFFFFFFC0000000
ENDCHAR
STARTCHAR 0050
ENCODING 80
SWIDTH 878 0
DWIDTH 123 0
BBX 112 106 0 -2
BITMAP
00000FFFFFFFFFFFFFFFF8000000
00007FFFFFFFFFFFFFFFFF800000
0003FFFFFFFFFFFFFFFFFFF00000
000FFFFFFFFFFFFFFFFFFFFC0000
001FFFFFFFFFFFFFFFFFFFFF0000
003FFFFFFFFFFFFFFFFFFFFF8000
00FFFFFFFFFFFFFFFFFFFFFFE000
01FFFFFFFFFFFFFFFFFFFFFFF000
03FFFFFFFFFFFFFFFFFFFFFFF800
03FFFFFFFFFFFFFFFFFFFFFFFC00
07FFFFFFFFFFFFFFFFFFFFFFFE00
0FFFFFFFFFFFFFFFFFFFFFFFFF00
1FFFFFFFFFFFFFFFFFFFFFFFFF80
1FFFFFFFFFFFFFFFFFFFFFFFFFC0
3FFFFFFFFFFFFFFFFFFFFFFFFFC0
3FFFFFFFFFFFFFFFFFFFFFFFFFE0
7FFFFFFFFFFFFFFFFFFFFFFFFFF0
7FFFFFFFFFFFFFFFFFFFFFFFFFF0
7FFFFFFFFFFFFFFFFFFFFFFFFFF8
7FFFFFFFFFFFFFFFFFFFFFFFFFF8
FFFFFFFFFFFFFFFFFFFFFFFFFFFC
FFFFFE000000000000003FFFFFFC
FFFFFC0000000000000007FFFFFC
FFFFF80000000000000003FFFFFE
FFFFF80000000000000001FFFFFE
FFFFF80000000000000000FFFFFE
FFFFF800000000000000007FFFFE
FFFFF800000000000000003FFFFF
FFFFF800000000000000003FFFFF
FFFFF800000000000000003FFFFF
FFFFF800000000000000001FFFFF
FFFFF800000000000000001FFFFF
FFFFF800000000000000001FFFFF
FFFFF800000000000000001FFFFF
FFFFF800000000000000001FFFFF
FFFFF800000000000000001FFFFF
FFFFF800000000000000001FFFFF
FFFFF800000000000000003FFFFF
FFFFF800000000000000003FFFFF
FFFFF800000000000000007FFFFE
FFFFF800000000000000007FFFFE
FFFFF80000000000000000FFFFFE
FFFFF80000000000000001FFFFFE
FFFFF80000000000000003FFFFFC
FFFFF8000000000000000FFFFFFC
FFFFF800000000000000FFFFFFFC
FFFFF80000000000000FFFFFFFF8
FFFFF8000000000001FFFFFFFFF8
FFFFF800000000003FFFFFFFFFF0
FFFFF80000000003FFFFFFFFFFF0
FFFFF8000000007FFFFFFFFFFFE0
FFFFF800000007FFFFFFFFFFFFC0
FFFFF8000000FFFFFFFFFFFFFFC0
FFFFF800000FFFFFFFFFFFFFFF80
FFFFF80001FFFFFFFFFFFFFFFF00
FFFFF8001FFFFFFFFFFFFFFFFE00
FFFFF803FFFFFFFFFFFFFFFFFC00
FFFFF83FFFFFFFFFFFFFFFFFF800
FFFFFFFFFFFFFFFFFFFFFFFFF000
FFFFFFFFFFFFFFFFFFFFFFFFE000
FFFFFFFFFFFFFFFFFFFFFFFFC000
FFFFFFFFFFFFFFFFFFFFFFFF0000
FFFFFFFFFFFFFFFFFFFFFFFC0000
FFFFFFFFFFFFFFFFFFFFFFF00000
FFFFFFFFFFFFFFFFFFFFFFC00000
FFFFFFFFFFFFFFFFFFFFFE000000
FFFFFFFFFFFFFFFFFFFFC0000000
FFFFFFFFFFFFFFFFFFFC00000000
FFFFFFFFFFFFFFFFFF8000000000
FFFFFFFFFFFFFFFFF80000000000
FFFFFFFFFFFFFFFF000000000000
FFFFFFFFFFFFFFF0000000000000
FFFFFFFFFFFFFE00000000000000
FFFFFFFFFFFFC000000000000000
FFFFFFFFFFFC0000000000000000
FFFFFFFFFF800000000000000000
FFFFFFFFF8000000000000000000
FFFFFFFF00000000000000000000
FFFFFFF000000000000000000000
FFFFFE0000000000000000000000
FFFFF80000000000000000000000
FFFFF80000000000000000000000
FFFFF80000000000000000000000
FFFFF80000000000000000000000
FFFFF80000000000000000000000
FFFFF80000000000000000000000
FFFFF80000000000000000000000
FFFFF80000000000000000000000
FFFFF80000000000000000000000
FFFFF80000000000000000000000
FFFFF80000000000000000000000
FFFFF80000000000000000000000
FFFFF80000000000000000000000
FFFFF80000000000000000000000
FFFFF80000000000000000000000
FFFFF80000000000000000000000
FFFFF80000000000000000000000
FFFFF80000000000000000000000
FFFFF80000000000000000000000
7FFFF00000000000000000000000
7FFFF00000000000000000000000
3FFFE00000000000000000000000
1FFFC00000000000000000000000
0FFF800000000000000000000000
07FF000000000000000000000000
01FC000000000000000000000000
ENDCHAR
STARTCHAR 0051
ENCODING 81
SWIDTH 892 0
DWIDTH 125 0
BBX 110 127 0 -23
BITMAP
0000001FFFFFFFFFFFFFE0000000
000001FFFFFFFFFFFFFFFE000000
00000FFFFFFFFFFFFFFFFFC00000
00003FFFFFFFFFFFFFFFFFF00000
0000FFFFFFFFFFFFFFFFFFFC0000
0001FFFFFFFFFFFFFFFFFFFE0000
0007FFFFFFFFFFFFFFFFFFFF8000
000FFFFFFFFFFFFFFFFFFFFFC000
001FFFFFFFFFFFFFFFFFFFFFE000
003FFFFFFFFFFFFFFFFFFFFFF000
007FFFFFFFFFFFFFFFFFFFFFF800
00FFFFFFFFFFFFFFFFFFFFFFFC00
01FFFFFFFFFFFFFFFFFFFFFFFE00
03FFFFFFFFFFFFFFFFFFFFFFFF00
03FFFFFFFFFFFFFFFFFFFFFFFF00
07FFFFFFFFFFFFFFFFFFFFFFFF80
0FFFFFFFFFFFFFFFFFFFFFFFFFC0
0FFFFFFFFFFFFFFFFFFFFFFFFFC0
1FFFFFFFFFFFFFFFFFFFFFFFFFE0
1FFFFFFFFFFFFFFFFFFFFFFFFFE0
3FFFFFFC0000000000007FFFFFF0
3FFFFFE00000000000000FFFFFF0
3FFFFFC000000000000007FFFFF0
7FFFFF8000000000000003FFFFF8
7FFFFF0000000000000001FFFFF8
7FFFFE0000000000000000FFFFF8
7FFFFC0000000000000000FFFFF8
FFFFFC00000000000000007FFFFC
FFFFFC00000000000000007FFFFC
FFFFF800000000000000003FFFFC
FFFFF800000000000000003FFFFC
FFFFF800000000000000003FFFFC
FFFFF800000000000000003FFFFC
FFFFF800000000000000003FFFFC
FFFFF800000000000000003FFFFC
FFFFF800000000000000003FFFFC
FFFFF800000000000000003FFFFC
FFFFF800000000000000003FFFFC
FFFFF800000000000000003FFFFC
FFFFF800000000000000003FFFFC
FFFFF800000000000000003FFFFC
FFFFF800000000000000003FFFFC
FFFFF800000000000000003FFFFC
FFFFF800000000000000003FFFFC
FFFFF800000000000000003FFFFC
FFFFF800000000000000003FFFFC
FFFFF800000000000000003FFFFC
FFFFF800000000000000003FFFFC
FFFFF800000000000000003FFFFC
FFFFF800000000000000003FFFFC
FFFFF800000000000000003FFFFC
FFFFF800000000000000003FFFFC
FFFFF800000000000000003FFFFC
FFFFF800000000000000003FFFFC
FFFFF800000000000000003FFFFC
FFFFF800000000000000003FFFFC
FFFFF800000000000000003FFFFC
FFFFF800000000000000003FFFFC
FFFFF800000000000000003FFFFC
FFFFF800000000000000003FFFFC
FFFFF800000000000000003FFFFC
FFFFF800000000000000003FFFFC
FFFFF800000000000000003FFFFC
FFFFF800000000000000003FFFFC
FFFFF800000000000000003FFFFC
FFFFF800000000000000003FFFFC
FFFFF800000000000000003FFFFC
FFFFF800000000000000003FFFFC
FFFFF800000000000000003FFFFC
FFFFF800000000000000003FFFFC
FFFFF800000000000000003FFFFC
FFFFF800000000000000003FFFFC
FFFFF800000000000000003FFFFC
FFFFF800000000000000003FFFFC
FFFFF800000000000000003FFFFC
FFFFF800000000000000003FFFFC
FFFFFC00000000000000007FFFFC
FFFFFC00000000000000007FFFFC
7FFFFC00000000000000007FFFF8
7FFFFE0000000000000000FFFFF8
7FFFFF0000000000000001FFFFF8
7FFFFF8000000000000003FFFFF8
3FFFFFC000000000000007FFFFF0
3FFFFFE00000000000000FFFFFF0
3FFFFFF80000000000007FFFFFF0
1FFFFFFFF0000001FFFFFFFFFFE0
1FFFFFFFFC00001FFFFFFFFFFFE0
0FFFFFFFFE00007FFFFFFFFFFFC0
0FFFFFFFFF0001FFFFFFFFFFFFC0
07FFFFFFFF8007FFFFFFFFFFFF80
03FFFFFFFFC00FFFFFFFFFFFFF00
03FFFFFFFFC01FFFFFFFFFFFFF00
01FFFFFFFFE03FFFFFFFFFFFFE00
00FFFFFFFFE07FFFFFFFFFFFFC00
007FFFFFFFE0FFFFFFFFFFFFF800
003FFFFFFFE1FFFFFFFFFFFFF000
001FFFFFFFE1FFFFFFFFFFFFE000
000FFFFFFFE3FFFFFFFFFFFFC000
0007FFFFFFC7FFFFFFFFFFFF8000
0001FFFFFFC7FFFFFFFFFFFE0000
0000FFFFFF8FFFFFFFFFFFFC0000
00003FFFFF0FFFFFFFFFFFF00000
00000FFFFE0FFFFFFFFFFFC00000
000001FFFC0FFFFFFFFFFE000000
0000001FF01FFFFFFFFFE0000000
00000000001FFFFF800000000000
00000000001FFFFF000000000000
00000000001FFFFE000000000000
00000000001FFFFE000000000000
00000000001FFFFE000000000000
00000000001FFFFE000000000000
00000000001FFFFE000000000000
00000000001FFFFE000000000000
00000000001FFFFE000000000000
00000000001FFFFE000000000000
00000000001FFFFE000000000000
00000000001FFFFE000000000000
00000000001FFFFE000000000000
00000000001FFFFE000000000000
00000000001FFFFE000000000000
00000000000FFFFC000000000000
00000000000FFFFC000000000000
000000000007FFF8000000000000
000000000007FFF8000000000000
000000000003FFF0000000000000
000000000000FFC0000000000000
0000000000003F00000000000000
ENDCHAR
STARTCHAR 0052
ENCODING 82
SWIDTH 892 0
DWIDTH 125 0
BBX 109 106 0 -2
BITMAP
00001FFFFFFFFFFFFFFFC0000000
0000FFFFFFFFFFFFFFFFFE000000
0003FFFFFFFFFFFFFFFFFF800000
000FFFFFFFFFFFFFFFFFFFE00000
003FFFFFFFFFFFFFFFFFFFF80000
007FFFFFFFFFFFFFFFFFFFFE0000
00FFFFFFFFFFFFFFFFFFFFFF0000
01FFFFFFFFFFFFFFFFFFFFFF8000
03FFFFFFFFFFFFFFFFFFFFFFC000
07FFFFFFFFFFFFFFFFFFFFFFE000
0FFFFFFFFFFFFFFFFFFFFFFFF000
0FFFFFFFFFFFFFFFFFFFFFFFF800
1FFFFFFFFFFFFFFFFFFFFFFFFC00
1FFFFFFFFFFFFFFFFFFFFFFFFE00
3FFFFFFFFFFFFFFFFFFFFFFFFE00
3FFFFFFFFFFFFFFFFFFFFFFFFF00
7FFFFFFFFFFFFFFFFFFFFFFFFF80
7FFFFFFFFFFFFFFFFFFFFFFFFF80
7FFFFFFFFFFFFFFFFFFFFFFFFFC0
FFFFFFFFFFFFFFFFFFFFFFFFFFC0
FFFFFC00000000000000FFFFFFE0
FFFFF8000000000000001FFFFFE0
FFFFF0000000000000000FFFFFE0
FFFFF00000000000000007FFFFF0
FFFFF00000000000000003FFFFF0
FFFFF00000000000000001FFFFF0
FFFFF00000000000000000FFFFF0
FFFFF00000000000000000FFFFF8
FFFFF00000000000000000FFFFF8
FFFFF000000000000000007FFFF8
FFFFF000000000000000007FFFF8
FFFFF000000000000000007FFFF8
FFFFF000000000000000007FFFF8
FFFFF000000000000000007FFFF8
FFFFF000000000000000007FFFF8
FFFFF000000000000000007FFFF8
FFFFF00000000000000000FFFFF8
FFFFF00000000000000000FFFFF8
FFFFF00000000000000001FFFFF8
FFFFF00000000000000001FFFFF0
FFFFF00000000000000003FFFFF0
FFFFF00000000000000007FFFFF0
FFFFF0000000000000001FFFFFF0
FFFFF0000000000000007FFFFFE0
FFFFF000000000000007FFFFFFE0
FFFFF00000000000007FFFFFFFC0
FFFFF000000000000FFFFFFFFFC0
FFFFF00000000000FFFFFFFFFFC0
FFFFF0000000001FFFFFFFFFFF80
FFFFF000000001FFFFFFFFFFFF00
FFFFF00000001FFFFFFFFFFFFF00
FFFFF0000001FFFFFFFFFFFFFE00
FFFFF000000FFFFFFFFFFFFFFC00
FFFFF000003FFFFFFFFFFFFFFC00
FFFFF00000FFFFFFFFFFFFFFF800
FFFFF00001FFFFFFFFFFFFFFF000
FFFFF00007FFFFFFFFFFFFFFE000
FFFFF0000FFFFFFFFFFFFFFFC000
FFFFF0001FFFFFFFFFFFFFFF8000
FFFFF0003FFFFFFFFFFFFFFE0000
FFFFF0003FFFFFFFFFFFFFFC0000
FFFFF0007FFFFFFFFFFFFFF00000
FFFFF000FFFFFFFFFFFFFFC00000
FFFFF000FFFFFFFFFFFFFF000000
FFFFF001FFFFFFFFFFFFF8000000
FFFFF001FFFFFFFFFFFF00000000
FFFFF003FFFFFFFFFFF000000000
FFFFF003FFFFFFFFFE0000000000
FFFFF007FFFFFFFFE00000000000
FFFFF007FFFFFFFE000000000000
FFFFF007FFFFFFC0000000000000
FFFFF007FFFFFC00000000000000
FFFFF00FFFFFE000000000000000
FFFFF00FFFFF8000000000000000
FFFFF00FFFFF8000000000000000
FFFFF00FFFFF0000000000000000
FFFFF00FFFFF0000000000000000
FFFFF00FFFFF0000000000000000
FFFFF00FFFFF0000000000000000
FFFFF00FFFFF0000000000000000
FFFFF00FFFFF8000000000000000
FFFFF00FFFFF8000000000000000
FFFFF00FFFFFC000000000000000
FFFFF007FFFFF000000000000000
FFFFF007FFFFFFFFFFFFFFFFE000
FFFFF007FFFFFFFFFFFFFFFFF800
FFFFF003FFFFFFFFFFFFFFFFFC00
FFFFF003FFFFFFFFFFFFFFFFFE00
FFFFF003FFFFFFFFFFFFFFFFFF00
FFFFF001FFFFFFFFFFFFFFFFFF00
FFFFF001FFFFFFFFFFFFFFFFFF80
FFFFF000FFFFFFFFFFFFFFFFFF80
FFFFF0007FFFFFFFFFFFFFFFFF80
FFFFF0007FFFFFFFFFFFFFFFFFC0
FFFFF0003FFFFFFFFFFFFFFFFFC0
FFFFF0001FFFFFFFFFFFFFFFFF80
FFFFF0000FFFFFFFFFFFFFFFFF80
FFFFF00007FFFFFFFFFFFFFFFF80
FFFFF00003FFFFFFFFFFFFFFFF00
7FFFE00000FFFFFFFFFFFFFFFF00
7FFFE000007FFFFFFFFFFFFFFE00
3FFFC000001FFFFFFFFFFFFFFC00
3FFF80000003FFFFFFFFFFFFF800
1FFF000000007FFFFFFFFFFFE000
07FE000000000000000000000000
01F8000000000000000000000000
ENDCHAR
STARTCHAR 0053
ENCODING 83
SWIDTH 892 0
DWIDTH 125 0
BBX 109 104 0 0
BITMAP
000007FFFFFFFFFFFFFFFFFFFC00
00003FFFFFFFFFFFFFFFFFFFFF80
0001FFFFFFFFFFFFFFFFFFFFFFC0
0007FFFFFFFFFFFFFFFFFFFFFFE0
000FFFFFFFFFFFFFFFFFFFFFFFF0
001FFFFFFFFFFFFFFFFFFFFFFFF0
007FFFFFFFFFFFFFFFFFFFFFFFF8
00FFFFFFFFFFFFFFFFFFFFFFFFF8
01FFFFFFFFFFFFFFFFFFFFFFFFF8
03FFFFFFFFFFFFFFFFFFFFFFFFF8
03FFFFFFFFFFFFFFFFFFFFFFFFF8
07FFFFFFFFFFFFFFFFFFFFFFFFF8
0FFFFFFFFFFFFFFFFFFFFFFFFFF8
1FFFFFFFFFFFFFFFFFFFFFFFFFF8
1FFFFFFFFFFFFFFFFFFFFFFFFFF0
3FFFFFFFFFFFFFFFFFFFFFFFFFF0
3FFFFFFFFFFFFFFFFFFFFFFFFFE0
3FFFFFFFFFFFFFFFFFFFFFFFFFC0
7FFFFFFFFFFFFFFFFFFFFFFFFF80
7FFFFFFFFFFFFFFFFFFFFFFFFC00
7FFFFF0000000000000000000000
7FFFFE0000000000000000000000
FFFFFC0000000000000000000000
FFFFF80000000000000000000000
FFFFF00000000000000000000000
FFFFF00000000000000000000000
FFFFF00000000000000000000000
FFFFF00000000000000000000000
FFFFF00000000000000000000000
FFFFF80000000000000000000000
FFFFF80000000000000000000000
7FFFFC0000000000000000000000
7FFFFF0000000000000000000000
7FFFFFC000000000000000000000
7FFFFFFC00000000000000000000
3FFFFFFF80000000000000000000
3FFFFFFFF8000000000000000000
1FFFFFFFFF000000000000000000
1FFFFFFFFFE00000000000000000
0FFFFFFFFFFE0000000000000000
0FFFFFFFFFFFC000000000000000
07FFFFFFFFFFFC00000000000000
03FFFFFFFFFFFF80000000000000
03FFFFFFFFFFFFF8000000000000
01FFFFFFFFFFFFFF000000000000
00FFFFFFFFFFFFFFE00000000000
007FFFFFFFFFFFFFFE0000000000
003FFFFFFFFFFFFFFFC000000000
000FFFFFFFFFFFFFFFFC00000000
0007FFFFFFFFFFFFFFFF80000000
0001FFFFFFFFFFFFFFFFF0000000
00003FFFFFFFFFFFFFFFFF000000
000007FFFFFFFFFFFFFFFFE00000
0000007FFFFFFFFFFFFFFFFC0000
0000000FFFFFFFFFFFFFFFFF0000
00000000FFFFFFFFFFFFFFFF8000
000000001FFFFFFFFFFFFFFFE000
0000000001FFFFFFFFFFFFFFF000
00000000003FFFFFFFFFFFFFF800
000000000007FFFFFFFFFFFFFC00
0000000000007FFFFFFFFFFFFE00
0000000000000FFFFFFFFFFFFF00
00000000000000FFFFFFFFFFFF00
000000000000001FFFFFFFFFFF80
0000000000000003FFFFFFFFFFC0
00000000000000003FFFFFFFFFC0
000000000000000007FFFFFFFFE0
0000000000000000007FFFFFFFE0
0000000000000000000FFFFFFFE0
00000000000000000000FFFFFFF0
000000000000000000001FFFFFF0
0000000000000000000003FFFFF0
0000000000000000000001FFFFF8
0000000000000000000000FFFFF8
00000000000000000000007FFFF8
00000000000000000000007FFFF8
00000000000000000000007FFFF8
00000000000000000000007FFFF8
00000000000000000000007FFFF8
00000000000000000000007FFFF8
0000000000000000000000FFFFF8
0000000000000000000000FFFFF8
0000000000000000000001FFFFF8
0000000000000000000007FFFFF8
01FFFFFFFFFFFFFFFFFFFFFFFFF0
07FFFFFFFFFFFFFFFFFFFFFFFFF0
0FFFFFFFFFFFFFFFFFFFFFFFFFF0
1FFFFFFFFFFFFFFFFFFFFFFFFFE0
3FFFFFFFFFFFFFFFFFFFFFFFFFE0
7FFFFFFFFFFFFFFFFFFFFFFFFFC0
7FFFFFFFFFFFFFFFFFFFFFFFFFC0
FFFFFFFFFFFFFFFFFFFFFFFFFF80
FFFFFFFFFFFFFFFFFFFFFFFFFF80
FFFFFFFFFFFFFFFFFFFFFFFFFF00
FFFFFFFFFFFFFFFFFFFFFFFFFE00
FFFFFFFFFFFFFFFFFFFFFFFFFC00
FFFFFFFFFFFFFFFFFFFFFFFFF800
7FFFFFFFFFFFFFFFFFFFFFFFF000
7FFFFFFFFFFFFFFFFFFFFFFFE000
3FFFFFFFFFFFFFFFFFFFFFFFC000
3FFFFFFFFFFFFFFFFFFFFFFF0000
1FFFFFFFFFFFFFFFFFFFFFFC0000
07FFFFFFFFFFFFFFFFFFFFF00000
01FFFFFFFFFFFFFFFFFFFF000000
ENDCHAR
STARTCHAR 0054
ENCODING 84
SWIDTH 878 0
DWIDTH 123 0
BBX 113 106 0 -2
BITMAP
01FFFFFFFFFFFFFFFFFFFFFFFF8000
07FFFFFFFFFFFFFFFFFFFFFFFFF000
0FFFFFFFFFFFFFFFFFFFFFFFFFF800
1FFFFFFFFFFFFFFFFFFFFFFFFFFC00
3FFFFFFFFFFFFFFFFFFFFFFFFFFE00
7FFFFFFFFFFFFFFFFFFFFFFFFFFE00
7FFFFFFFFFFFFFFFFFFFFFFFFFFF00
FFFFFFFFFFFFFFFFFFFFFFFFFFFF00
FFFFFFFFFFFFFFFFFFFFFFFFFFFF00
FFFFFFFFFFFFFFFFFFFFFFFFFFFF80
FFFFFFFFFFFFFFFFFFFFFFFFFFFF80
FFFFFFFFFFFFFFFFFFFFFFFFFFFF80
FFFFFFFFFFFFFFFFFFFFFFFFFFFF00
FFFFFFFFFFFFFFFFFFFFFFFFFFFF00
7FFFFFFFFFFFFFFFFFFFFFFFFFFF00
7FFFFFFFFFFFFFFFFFFFFFFFFFFE00
3FFFFFFFFFFFFFFFFFFFFFFFFFFE00
1FFFFFFFFFFFFFFFFFFFFFFFFFFC00
0FFFFFFFFFFFFFFFFFFFFFFFFFF800
07FFFFFFFFFFFFFFFFFFFFFFFFF000
01FFFFFFFFFFFFFFFFFFFFFFFFC000
000000000003FFFFE0000000000000
000000000003FFFFE0000000000000
000000000003FFFFE0000000000000
000000000003FFFFE0000000000000
000000000003FFFFE0000000000000
000000000003FFFFE0000000000000
000000000003FFFFE0000000000000
000000000003FFFFE0000000000000
000000000003FFFFE0000000000000
000000000003FFFFE0000000000000
000000000003FFFFE0000000000000
000000000003FFFFE0000000000000
000000000003FFFFE0000000000000
000000000003FFFFE0000000000000
000000000003FFFFE0000000000000
000000000003FFFFE0000000000000
000000000003FFFFE0000000000000
000000000003FFFFE0000000000000
000000000003FFFFE0000000000000
000000000003FFFFE0000000000000
000000000003FFFFE0000000000000
000000000003FFFFE0000000000000
000000000003FFFFE0000000000000
000000000003FFFFE0000000000000
000000000003FFFFE0000000000000
000000000003FFFFE0000000000000
000000000003FFFFE0000000000000
000000000003FFFFE0000000000000
000000000003FFFFE0000000000000
000000000003FFFFE0000000000000
000000000003FFFFE0000000000000
000000000003FFFFE0000000000000
000000000003FFFFE0000000000000
000000000003FFFFE0000000000000
000000000003FFFFE0000000000000
000000000003FFFFE0000000000000
000000000003FFFFE0000000000000
000000000003FFFFE0000000000000
000000000003FFFFE0000000000000
000000000003FFFFE0000000000000
000000000003FFFFE0000000000000
000000000003FFFFE0000000000000
000000000003FFFFE0000000000000
000000000003FFFFE0000000000000
000000000003FFFFE0000000000000
000000000003FFFFE0000000000000
000000000003FFFFE0000000000000
000000000003FFFFE0000000000000
000000000003FFFFE0000000000000
000000000003FFFFE0000000000000
000000000003FFFFE0000000000000
000000000003FFFFE0000000000000
000000000003FFFFE0000000000000
000000000003FFFFE0000000000000
000000000003FFFFE0000000000000
000000000003FFFFE0000000000000
000000000003FFFFE0000000000000
000000000003FFFFE0000000000000
000000000003FFFFE0000000000000
000000000003FFFFE0000000000000
000000000003FFFFE0000000000000
000000000003FFFFE0000000000000
000000000003FFFFE0000000000000
000000000003FFFFE0000000000000
000000000003FFFFE0000000000000
000000000003FFFFE0000000000000
000000000003FFFFE0000000000000
000000000003FFFFE0000000000000
000000000003FFFFE0000000000000
000000000003FFFFE0000000000000
000000000003FFFFE0000000000000
000000000003FFFFE0000000000000
000000000003FFFFE0000000000000
000000000003FFFFE0000000000000
000000000003FFFFE0000000000000
000000000003FFFFE0000000000000
000000000003FFFFE0000000000000
000000000003FFFFE0000000000000
000000000001FFFFC0000000000000
000000000001FFFFC0000000000000
000000000000FFFF80000000000000
0000000000007FFF00000000000000
0000000000003FFE00000000000000
0000000000001FFC00000000000000
00000000000007F000000000000000
ENDCHAR
STARTCHAR 0055
ENCODING 85
SWIDTH 892 0
DWIDTH 125 0
BBX 111 106 0 -1
BITMAP
01FC000000000000000000007F00
07FF00000000000000000001FFC0
0FFF80000000000000000003FFF0
1FFFC0000000000000000007FFF8
3FFFE000000000000000000FFFF8
7FFFF000000000000000001FFFFC
7FFFF000000000000000001FFFFC
7FFFF800000000000000001FFFFE
FFFFF800000000000000003FFFFE
FFFFF800000000000000003FFFFE
FFFFF800000000000000003FFFFE
FFFFF800000000000000003FFFFE
FFFFF800000000000000003FFFFE
FFFFF800000000000000003FFFFE
FFFFF800000000000000003FFFFE
FFFFF800000000000000003FFFFE
FFFFF800000000000000003FFFFE
FFFFF800000000000000003FFFFE
FFFFF800000000000000003FFFFE
FFFFF800000000000000003FFFFE
FFFFF800000000000000003FFFFE
FFFFF800000000000000003FFFFE
FFFFF800000000000000003FFFFE
FFFFF800000000000000003FFFFE
FFFFF800000000000000003FFFFE
FFFFF800000000000000003FFFFE
FFFFF800000000000000003FFFFE
FFFFF800000000000000003FFFFE
FFFFF800000000000000003FFFFE
FFFFF800000000000000003FFFFE
FFFFF800000000000000003FFFFE
FFFFF800000000000000003FFFFE
FFFFF800000000000000003FFFFE
FFFFF800000000000000003FFFFE
FFFFF800000000000000003FFFFE
FFFFF800000000000000003FFFFE
FFFFF800000000000000003FFFFE
FFFFF800000000000000003FFFFE
FFFFF800000000000000003FFFFE
FFFFF800000000000000003FFFFE
FFFFF800000000000000003FFFFE
FFFFF800000000000000003FFFFE
FFFFF800000000000000003FFFFE
FFFFF800000000000000003FFFFE
FFFFF800000000000000003FFFFE
FFFFF800000000000000003FFFFE
FFFFF800000000000000003FFFFE
FFFFF800000000000000003FFFFE
FFFFF800000000000000003FFFFE
FFFFF800000000000000003FFFFE
FFFFF800000000000000003FFFFE
FFFFF800000000000000003FFFFE
FFFFF800000000000000003FFFFE
FFFFF800000000000000003FFFFE
FFFFF800000000000000003FFFFE
FFFFF800000000000000003FFFFE
FFFFF800000000000000003FFFFE
FFFFF800000000000000003FFFFE
FFFFF800000000000000003FFFFE
FFFFF800000000000000003FFFFE
FFFFF800000000000000003FFFFE
FFFFF800000000000000003FFFFE
FFFFF800000000000000003FFFFE
FFFFF800000000000000003FFFFE
FFFFF800000000000000003FFFFE
FFFFF800000000000000003FFFFE
FFFFF800000000000000003FFFFE
FFFFF800000000000000003FFFFE
FFFFF800000000000000003FFFFE
FFFFF800000000000000003FFFFE
FFFFF800000000000000003FFFFE
FFFFF800000000000000003FFFFE
FFFFF800000000000000003FFFFE
FFFFF800000000000000003FFFFE
FFFFF800000000000000003FFFFE
FFFFF800000000000000003FFFFE
FFFFFC00000000000000003FFFFE
FFFFFC00000000000000007FFFFE
7FFFFE00000000000000007FFFFE
7FFFFE0000000000000000FFFFFE
7FFFFF0000000000000001FFFFFC
7FFFFF8000000000000003FFFFFC
7FFFFFC000000000000007FFFFFC
3FFFFFE00000000000000FFFFFF8
3FFFFFFC0000000000003FFFFFF8
1FFFFFFFFFFFFFFFFFFFFFFFFFF8
1FFFFFFFFFFFFFFFFFFFFFFFFFF0
1FFFFFFFFFFFFFFFFFFFFFFFFFF0
0FFFFFFFFFFFFFFFFFFFFFFFFFE0
0FFFFFFFFFFFFFFFFFFFFFFFFFE0
07FFFFFFFFFFFFFFFFFFFFFFFFC0
03FFFFFFFFFFFFFFFFFFFFFFFF80
03FFFFFFFFFFFFFFFFFFFFFFFF80
01FFFFFFFFFFFFFFFFFFFFFFFF00
00FFFFFFFFFFFFFFFFFFFFFFFE00
007FFFFFFFFFFFFFFFFFFFFFFC00
003FFFFFFFFFFFFFFFFFFFFFF800
001FFFFFFFFFFFFFFFFFFFFFF000
000FFFFFFFFFFFFFFFFFFFFFE000
0007FFFFFFFFFFFFFFFFFFFFC000
0001FFFFFFFFFFFFFFFFFFFF8000
0000FFFFFFFFFFFFFFFFFFFE0000
00003FFFFFFFFFFFFFFFFFF80000
00000FFFFFFFFFFFFFFFFFE00000
000001FFFFFFFFFFFFFFFF000000
0000001FFFFFFFFFFFFFF0000000
ENDCHAR
STARTCHAR 0056
ENCODING 86
SWIDTH 892 0
DWIDTH 125 0
BBX 119 106 0 -1
BITMAP
01FC00000000000000000000003F00
07FF0000000000000000000000FFC0
0FFF8000000000000000000003FFF0
1FFFC000000000000000000007FFF8
3FFFE00000000000000000000FFFFC
7FFFF00000000000000000000FFFFC
7FFFF00000000000000000001FFFFE
FFFFF00000000000000000001FFFFE
FFFFF80000000000000000001FFFFE
FFFFF80000000000000000001FFFFE
FFFFF80000000000000000003FFFFE
FFFFF80000000000000000003FFFFE
FFFFFC0000000000000000003FFFFE
FFFFFC0000000000000000003FFFFE
7FFFFC0000000000000000007FFFFE
7FFFFC0000000000000000007FFFFE
7FFFFC0000000000000000007FFFFC
7FFFFE0000000000000000007FFFFC
3FFFFE0000000000000000007FFFFC
3FFFFE000000000000000000FFFFFC
3FFFFE000000000000000000FFFFF8
3FFFFF000000000000000000FFFFF8
3FFFFF000000000000000000FFFFF8
1FFFFF000000000000000001FFFFF8
1FFFFF000000000000000001FFFFF0
1FFFFF000000000000000001FFFFF0
1FFFFF800000000000000001FFFFF0
0FFFFF800000000000000001FFFFF0
0FFFFF800000000000000003FFFFF0
0FFFFF800000000000000003FFFFE0
0FFFFFC00000000000000003FFFFE0
0FFFFFC00000000000000003FFFFE0
07FFFFC00000000000000007FFFFE0
07FFFFC00000000000000007FFFFC0
07FFFFC00000000000000007FFFFC0
07FFFFE00000000000000007FFFFC0
03FFFFE00000000000000007FFFFC0
03FFFFE0000000000000000FFFFFC0
03FFFFE0000000000000000FFFFF80
03FFFFF0000000000000000FFFFF80
03FFFFF0000000000000000FFFFF80
01FFFFF0000000000000001FFFFF80
01FFFFF0000000000000001FFFFF00
01FFFFF0000000000000001FFFFF00
01FFFFF8000000000000001FFFFF00
00FFFFF8000000000000001FFFFF00
00FFFFF8000000000000003FFFFF00
00FFFFF8000000000000003FFFFE00
00FFFFFC000000000000003FFFFE00
00FFFFFC000000000000003FFFFE00
007FFFFC000000000000007FFFFE00
007FFFFC000000000000007FFFFC00
007FFFFC000000000000007FFFFC00
007FFFFE000000000000007FFFFC00
003FFFFE000000000000007FFFFC00
003FFFFE00000000000000FFFFFC00
003FFFFE00000000000000FFFFF800
003FFFFF00000000000000FFFFF800
003FFFFF00000000000000FFFFF800
001FFFFF00000000000001FFFFF800
001FFFFF00000000000001FFFFF000
001FFFFF80000000000001FFFFF000
001FFFFF80000000000001FFFFF000
000FFFFF80000000000001FFFFF000
000FFFFF80000000000003FFFFF000
000FFFFF80000000000003FFFFE000
000FFFFFC0000000000003FFFFE000
000FFFFFC0000000000003FFFFE000
0007FFFFC0000000000007FFFFE000
0007FFFFC0000000000007FFFFC000
0007FFFFE0000000000007FFFFC000
0007FFFFE0000000000007FFFFC000
0003FFFFE0000000000007FFFFC000
0003FFFFE000000000000FFFFFC000
0003FFFFE000000000000FFFFF8000
0003FFFFF000000000000FFFFF8000
0003FFFFF000000000000FFFFF8000
0001FFFFF000000000001FFFFF8000
0001FFFFF800000000001FFFFF0000
0001FFFFF800000000003FFFFF0000
0001FFFFFC00000000007FFFFF0000
0000FFFFFE0000000000FFFFFF0000
0000FFFFFF0000000001FFFFFE0000
0000FFFFFF8000000003FFFFFE0000
00007FFFFFF00000001FFFFFFE0000
00007FFFFFFFFFFFFFFFFFFFFC0000
00007FFFFFFFFFFFFFFFFFFFFC0000
00003FFFFFFFFFFFFFFFFFFFFC0000
00003FFFFFFFFFFFFFFFFFFFF80000
00001FFFFFFFFFFFFFFFFFFFF00000
00000FFFFFFFFFFFFFFFFFFFF00000
00000FFFFFFFFFFFFFFFFFFFE00000
000007FFFFFFFFFFFFFFFFFFC00000
000003FFFFFFFFFFFFFFFFFFC00000
000003FFFFFFFFFFFFFFFFFF800000
000001FFFFFFFFFFFFFFFFFF000000
000000FFFFFFFFFFFFFFFFFE000000
0000007FFFFFFFFFFFFFFFFC000000
0000001FFFFFFFFFFFFFFFF8000000
0000000FFFFFFFFFFFFFFFE0000000
00000007FFFFFFFFFFFFFFC0000000
00000001FFFFFFFFFFFFFF80000000
000000007FFFFFFFFFFFFE00000000
000000001FFFFFFFFFFFF800000000
0000000007FFFFFFFFFFC000000000
00000000003FFFFFFFFC0000000000
ENDCHAR
STARTCHAR 0057
ENCODING 87
SWIDTH 1142 0
DWIDTH 160 0
BBX 152 107 0 -1
BITMAP
01FC0000000000000FC0000000000000001F80
07FF0000000000003FF8000000000000007FE0
0FFF8000000000007FFC00000000000001FFF8
1FFFC00000000000FFFE00000000000003FFFC
3FFFE00000000001FFFF00000000000007FFFC
7FFFF00000000003FFFF80000000000007FFFE
7FFFF00000000003FFFF8000000000000FFFFF
FFFFF00000000007FFFF8000000000000FFFFF
FFFFF80000000007FFFFC000000000000FFFFF
FFFFF80000000007FFFFC000000000001FFFFF
FFFFF80000000007FFFFC000000000001FFFFF
FFFFF80000000007FFFFC000000000001FFFFF
FFFFF80000000007FFFFC000000000001FFFFF
FFFFF80000000007FFFFC000000000003FFFFF
FFFFF80000000007FFFFC000000000003FFFFF
FFFFF80000000007FFFFC000000000003FFFFE
FFFFF80000000007FFFFC000000000003FFFFE
FFFFF80000000007FFFFC000000000003FFFFE
FFFFF80000000007FFFFC000000000007FFFFE
FFFFF80000000007FFFFC000000000007FFFFE
FFFFF80000000007FFFFC000000000007FFFFC
FFFFF80000000007FFFFC000000000007FFFFC
FFFFF80000000007FFFFC000000000007FFFFC
FFFFF80000000007FFFFC00000000000FFFFFC
FFFFF80000000007FFFFC00000000000FFFFF8
FFFFF80000000007FFFFC00000000000FFFFF8
FFFFF80000000007FFFFC00000000000FFFFF8
FFFFF80000000007FFFFC00000000001FFFFF8
FFFFF80000000007FFFFC00000000001FFFFF8
FFFFF80000000007FFFFC00000000001FFFFF0
FFFFF80000000007FFFFC00000000001FFFFF0
FFFFF80000000007FFFFC00000000001FFFFF0
FFFFF80000000007FFFFC00000000003FFFFF0
FFFFF80000000007FFFFC00000000003FFFFE0
FFFFF80000000007FFFFC00000000003FFFFE0
FFFFF80000000007FFFFC00000000003FFFFE0
FFFFF80000000007FFFFC00000000007FFFFE0
FFFFF80000000007FFFFC00000000007FFFFE0
FFFFF80000000007FFFFC00000000007FFFFC0
FFFFF80000000007FFFFC00000000007FFFFC0
FFFFF80000000007FFFFC00000000007FFFFC0
FFFFF80000000007FFFFC0000000000FFFFFC0
FFFFF80000000007FFFFC0000000000FFFFFC0
FFFFF80000000007FFFFC0000000000FFFFF80
FFFFF80000000007FFFFC0000000000FFFFF80
FFFFF80000000007FFFFC0000000001FFFFF80
FFFFF80000000007FFFFC0000000001FFFFF80
FFFFF80000000007FFFFC0000000001FFFFF00
FFFFF80000000007FFFFC0000000001FFFFF00
FFFFF80000000007FFFFC0000000001FFFFF00
FFFFF80000000007FFFFC0000000003FFFFF00
FFFFF80000000007FFFFC0000000003FFFFF00
FFFFF80000000007FFFFC0000000003FFFFE00
FFFFF80000000007FFFFC0000000003FFFFE00
FFFFF80000000007FFFFC0000000007FFFFE00
FFFFF80000000007FFFFC0000000007FFFFE00
FFFFF80000000007FFFFC0000000007FFFFC00
FFFFF80000000007FFFFC0000000007FFFFC00
FFFFF80000000007FFFFC0000000007FFFFC00
FFFFF80000000007FFFFC000000000FFFFFC00
FFFFF80000000007FFFFC000000000FFFFFC00
FFFFF80000000007FFFFC000000000FFFFF800
FFFFF80000000007FFFFC000000000FFFFF800
FFFFF80000000007FFFFC000000001FFFFF800
FFFFF80000000007FFFFC000000001FFFFF800
FFFFF80000000007FFFFC000000001FFFFF000
FFFFF80000000007FFFFC000000001FFFFF000
FFFFF80000000007FFFFC000000001FFFFF000
FFFFF80000000007FFFFC000000003FFFFF000
FFFFF80000000007FFFFC000000003FFFFF000
FFFFF80000000007FFFFC000000003FFFFE000
FFFFF80000000007FFFFC000000003FFFFE000
FFFFF80000000007FFFFC000000007FFFFE000
FFFFF80000000007FFFFC000000007FFFFE000
FFFFF80000000007FFFFC000000007FFFFC000
FFFFF80000000007FFFFC000000007FFFFC000
FFFFF80000000007FFFFC000000007FFFFC000
FFFFF80000000007FFFFC00000000FFFFFC000
FFFFFC0000000007FFFFC00000000FFFFFC000
FFFFFC0000000007FFFFC00000000FFFFF8000
FFFFFE0000000007FFFFC00000001FFFFF8000
7FFFFF0000000007FFFFC00000003FFFFF8000
7FFFFF0000000007FFFFC00000007FFFFF8000
7FFFFFC000000007FFFFC0000000FFFFFF0000
3FFFFFE000000007FFFFC0000001FFFFFF0000
3FFFFFF800000007FFFFC000000FFFFFFF0000
3FFFFFFFFFFFFFFFFFFFFFFFFFFFFFFFFE0000
1FFFFFFFFFFFFFFFFFFFFFFFFFFFFFFFFE0000
1FFFFFFFFFFFFFFFFFFFFFFFFFFFFFFFFC0000
0FFFFFFFFFFFFFFFFFFFFFFFFFFFFFFFFC0000
0FFFFFFFFFFFFFFFFFFFFFFFFFFFFFFFF80000
07FFFFFFFFFFFFFFFFFFFFFFFFFFFFFFF80000
03FFFFFFFFFFFFFFFFFFFFFFFFFFFFFFF00000
03FFFFFFFFFFFFFFFFFFFFFFFFFFFFFFE00000
01FFFFFFFFFFFFFFFFFFFFFFFFFFFFFFE00000
00FFFFFFFFFFFFFFFFFFFFFFFFFFFFFFC00000
007FFFFFFFFFFFFFFFFFFFFFFFFFFFFF800000
003FFFFFFFFFFFFFFFFFFFFFFFFFFFFF000000
001FFFFFFFFFFFFFFFFFFFFFFFFFFFFE000000
000FFFFFFFFFFFFFFFFFFFFFFFFFFFFC000000
0007FFFFFFFFFFFFFFFFFFFFFFFFFFF0000000
0001FFFFFFFFFFFFFFFFFFFFFFFFFFE0000000
0000FFFFFFFFFFFFFFFFFFFFFFFFFF80000000
00003FFFFFFFFFFFFFFFFFFFFFFFFF00000000
00000FFFFFFFFFFFFFFFFFFFFFFFF800000000
000001FFFFFFFFFFFFFFFFFFFFFFE000000000
0000001FFFFFFFFFFFFFFFFFFFFE0000000000
ENDCHAR
STARTCHAR 0058
ENCODING 88
SWIDTH 892 0
DWIDTH 125 0
BBX 119 107 0 -2
BITMAP
01FC00000000000000000000003F00
07FF0000000000000000000001FFC0
0FFF8000000000000000000003FFF0
1FFFC000000000000000000007FFF8
3FFFE00000000000000000000FFFF8
7FFFF00000000000000000001FFFFC
7FFFF00000000000000000001FFFFE
7FFFF80000000000000000001FFFFE
FFFFF80000000000000000003FFFFE
FFFFF80000000000000000003FFFFE
FFFFF80000000000000000003FFFFE
FFFFFC0000000000000000003FFFFE
FFFFFC0000000000000000003FFFFE
7FFFFC0000000000000000007FFFFE
7FFFFC0000000000000000007FFFFE
7FFFFC0000000000000000007FFFFC
7FFFFE0000000000000000007FFFFC
7FFFFE0000000000000000007FFFFC
3FFFFE000000000000000000FFFFFC
3FFFFE000000000000000000FFFFFC
3FFFFF000000000000000000FFFFF8
3FFFFF000000000000000000FFFFF8
1FFFFF000000000000000000FFFFF8
1FFFFF000000000000000001FFFFF8
1FFFFF000000000000000001FFFFF8
1FFFFF800000000000000001FFFFF0
1FFFFF800000000000000001FFFFF0
0FFFFF800000000000000001FFFFF0
0FFFFF800000000000000003FFFFF0
0FFFFF800000000000000003FFFFF0
0FFFFFC00000000000000003FFFFE0
0FFFFFC00000000000000003FFFFE0
07FFFFC00000000000000007FFFFE0
07FFFFE00000000000000007FFFFE0
07FFFFE0000000000000000FFFFFE0
07FFFFF0000000000000001FFFFFC0
03FFFFF8000000000000001FFFFFC0
03FFFFFC000000000000007FFFFFC0
03FFFFFF00000000000000FFFFFFC0
01FFFFFFC0000000000007FFFFFF80
01FFFFFFFFFFFFFFFFFFFFFFFFFF80
01FFFFFFFFFFFFFFFFFFFFFFFFFF00
00FFFFFFFFFFFFFFFFFFFFFFFFFF00
00FFFFFFFFFFFFFFFFFFFFFFFFFE00
007FFFFFFFFFFFFFFFFFFFFFFFFE00
003FFFFFFFFFFFFFFFFFFFFFFFFC00
003FFFFFFFFFFFFFFFFFFFFFFFF800
001FFFFFFFFFFFFFFFFFFFFFFFF800
000FFFFFFFFFFFFFFFFFFFFFFFF000
0007FFFFFFFFFFFFFFFFFFFFFFE000
0003FFFFFFFFFFFFFFFFFFFFFFC000
0003FFFFFFFFFFFFFFFFFFFFFF8000
0007FFFFFFFFFFFFFFFFFFFFFFC000
000FFFFFFFFFFFFFFFFFFFFFFFE000
001FFFFFFFFFFFFFFFFFFFFFFFF000
001FFFFFFFFFFFFFFFFFFFFFFFF000
003FFFFFFFFFFFFFFFFFFFFFFFF800
003FFFFFFFFFFFFFFFFFFFFFFFF800
007FFFFFFFFFFFFFFFFFFFFFFFFC00
007FFFFFFFFFFFFFFFFFFFFFFFFC00
00FFFFFFFFFFFFFFFFFFFFFFFFFE00
00FFFFFFF000000000000FFFFFFE00
01FFFFFF80000000000003FFFFFF00
01FFFFFF00000000000000FFFFFF00
01FFFFFE000000000000007FFFFF00
01FFFFFC000000000000003FFFFF80
03FFFFF8000000000000003FFFFF80
03FFFFF0000000000000001FFFFF80
03FFFFF0000000000000000FFFFF80
03FFFFE0000000000000000FFFFF80
07FFFFE0000000000000000FFFFFC0
07FFFFE0000000000000000FFFFFC0
07FFFFC00000000000000007FFFFC0
07FFFFC00000000000000007FFFFC0
07FFFFC00000000000000007FFFFE0
0FFFFFC00000000000000007FFFFE0
0FFFFFC00000000000000003FFFFE0
0FFFFF800000000000000003FFFFE0
0FFFFF800000000000000003FFFFF0
0FFFFF800000000000000003FFFFF0
1FFFFF800000000000000003FFFFF0
1FFFFF800000000000000001FFFFF0
1FFFFF000000000000000001FFFFF0
1FFFFF000000000000000001FFFFF8
3FFFFF000000000000000001FFFFF8
3FFFFF000000000000000000FFFFF8
3FFFFE000000000000000000FFFFF8
3FFFFE000000000000000000FFFFFC
3FFFFE000000000000000000FFFFFC
7FFFFE000000000000000000FFFFFC
7FFFFE0000000000000000007FFFFC
7FFFFC0000000000000000007FFFFC
7FFFFC0000000000000000007FFFFE
FFFFFC0000000000000000007FFFFE
FFFFFC0000000000000000003FFFFE
FFFFFC0000000000000000003FFFFE
FFFFF80000000000000000003FFFFE
FFFFF80000000000000000003FFFFE
FFFFF80000000000000000003FFFFE
7FFFF80000000000000000001FFFFE
7FFFF00000000000000000001FFFFC
7FFFF00000000000000000000FFFFC
3FFFE00000000000000000000FFFF8
1FFFE000000000000000000007FFF0
0FFFC000000000000000000003FFE0
07FF0000000000000000000001FFC0
01FC00000000000000000000003F00
ENDCHAR
STARTCHAR 0059
ENCODING 89
SWIDTH 892 0
DWIDTH 125 0
BBX 111 108 0 -2
BITMAP
01FC000000000000000000000000
07FF000000000000000000003E00
0FFF80000000000000000000FF80
1FFFC0000000000000000003FFE0
3FFFE0000000000000000007FFF0
7FFFF000000000000000000FFFF8
7FFFF000000000000000001FFFFC
FFFFF800000000000000001FFFFC
FFFFF800000000000000003FFFFE
FFFFF800000000000000003FFFFE
FFFFF800000000000000003FFFFE
FFFFF800000000000000003FFFFE
FFFFF800000000000000003FFFFE
FFFFF800000000000000003FFFFE
FFFFF800000000000000003FFFFE
FFFFF800000000000000003FFFFE
FFFFF800000000000000003FFFFE
FFFFF800000000000000003FFFFE
FFFFF800000000000000003FFFFE
FFFFF800000000000000003FFFFE
FFFFF800000000000000003FFFFE
FFFFF800000000000000003FFFFE
FFFFF800000000000000003FFFFE
FFFFF800000000000000003FFFFE
FFFFF800000000000000003FFFFE
FFFFF800000000000000003FFFFE
FFFFF800000000000000003FFFFE
FFFFF800000000000000003FFFFE
FFFFF800000000000000003FFFFE
FFFFF800000000000000003FFFFE
FFFFF800000000000000003FFFFE
FFFFF800000000000000003FFFFE
FFFFF800000000000000003FFFFE
FFFFF800000000000000003FFFFE
FFFFF800000000000000003FFFFE
FFFFF800000000000000003FFFFE
FFFFF800000000000000003FFFFE
FFFFF800000000000000003FFFFE
FFFFF800000000000000003FFFFE
FFFFFC00000000000000003FFFFE
FFFFFC00000000000000003FFFFE
FFFFFE00000000000000003FFFFE
7FFFFE00000000000000003FFFFE
7FFFFF00000000000000003FFFFE
7FFFFF80000000000000003FFFFE
7FFFFFC0000000000000003FFFFE
3FFFFFF0000000000000003FFFFE
3FFFFFFE000000000000003FFFFE
1FFFFFFFE00000000000003FFFFE
1FFFFFFFFF0000000000003FFFFE
0FFFFFFFFFF000000000003FFFFE
0FFFFFFFFFFF00000000003FFFFE
07FFFFFFFFFFF8000000003FFFFE
07FFFFFFFFFFFF800000003FFFFE
03FFFFFFFFFFFFFC0000003FFFFE
01FFFFFFFFFFFFFFC000003FFFFE
00FFFFFFFFFFFFFFFC00003FFFFE
00FFFFFFFFFFFFFFFFE0003FFFFE
007FFFFFFFFFFFFFFFFE003FFFFE
003FFFFFFFFFFFFFFFFFF03FFFFE
001FFFFFFFFFFFFFFFFFFF3FFFFE
0007FFFFFFFFFFFFFFFFFFFFFFFE
0003FFFFFFFFFFFFFFFFFFFFFFFE
0001FFFFFFFFFFFFFFFFFFFFFFFE
00007FFFFFFFFFFFFFFFFFFFFFFE
00001FFFFFFFFFFFFFFFFFFFFFFE
000003FFFFFFFFFFFFFFFFFFFFFE
0000007FFFFFFFFFFFFFFFFFFFFE
00000007FFFFFFFFFFFFFFFFFFFE
000000003FFFFFFFFFFFFFFFFFFE
0000000003FFFFFFFFFFFFFFFFFE
00000000001FFFFFFFFFFFFFFFFE
000000000001FFFFFFFFFFFFFFFE
0000000000001FFFFFFFFFFFFFFE
00000000000000FFFFFFFFFFFFFE
000000000000000FFFFFFFFFFFFE
00000000000000007FFFFFFFFFFE
000000000000000007FFFFFFFFFE
0000000000000000003FFFFFFFFE
00000000000000000003FFFFFFFE
000000000000000000001FFFFFFE
0000000000000000000001FFFFFE
00000000000000000000003FFFFE
00000000000000000000003FFFFE
00000000000000000000003FFFFE
00000000000000000000003FFFFE
00000000000000000000003FFFFE
00000000000000000000003FFFFE
00000000000000000000003FFFFE
00000000000000000000003FFFFE
00000000000000000000003FFFFE
00000000000000000000003FFFFE
00000000000000000000003FFFFE
00000000000000000000003FFFFE
00000000000000000000003FFFFE
00000000000000000000003FFFFE
00000000000000000000003FFFFE
00000000000000000000003FFFFE
00000000000000000000003FFFFE
00000000000000000000003FFFFE
00000000000000000000003FFFFE
00000000000000000000001FFFFC
00000000000000000000001FFFFC
00000000000000000000000FFFF8
000000000000000000000007FFF0
000000000000000000000003FFE0
000000000000000000000001FFC0
0000000000000000000000007F00
ENDCHAR
STARTCHAR 005A
ENCODING 90
SWIDTH 892 0
DWIDTH 125 0
BBX 109 104 0 0
BITMAP
01FFFFFFFFFFFFFFFFFFFF000000
07FFFFFFFFFFFFFFFFFFFFF00000
1FFFFFFFFFFFFFFFFFFFFFFC0000
3FFFFFFFFFFFFFFFFFFFFFFF0000
3FFFFFFFFFFFFFFFFFFFFFFF8000
7FFFFFFFFFFFFFFFFFFFFFFFE000
7FFFFFFFFFFFFFFFFFFFFFFFF000
FFFFFFFFFFFFFFFFFFFFFFFFF800
FFFFFFFFFFFFFFFFFFFFFFFFFC00
FFFFFFFFFFFFFFFFFFFFFFFFFE00
FFFFFFFFFFFFFFFFFFFFFFFFFF00
FFFFFFFFFFFFFFFFFFFFFFFFFF00
FFFFFFFFFFFFFFFFFFFFFFFFFF80
7FFFFFFFFFFFFFFFFFFFFFFFFFC0
7FFFFFFFFFFFFFFFFFFFFFFFFFC0
3FFFFFFFFFFFFFFFFFFFFFFFFFE0
3FFFFFFFFFFFFFFFFFFFFFFFFFE0
1FFFFFFFFFFFFFFFFFFFFFFFFFF0
07FFFFFFFFFFFFFFFFFFFFFFFFF0
01FFFFFFFFFFFFFFFFFFFFFFFFF0
0000000000000000000007FFFFF0
0000000000000000000003FFFFF8
0000000000000000000001FFFFF8
0000000000000000000000FFFFF8
00000000000000000000007FFFF8
00000000000000000000007FFFF8
00000000000000000000007FFFF8
00000000000000000000007FFFF8
00000000000000000000007FFFF8
0000000000000000000000FFFFF8
0000000000000000000000FFFFF8
0000000000000000000001FFFFF8
0000000000000000000003FFFFF0
000000000000000000001FFFFFF0
00000000000000000001FFFFFFF0
0000000000000000000FFFFFFFE0
0000000000000000007FFFFFFFE0
000000000000000007FFFFFFFFE0
00000000000000003FFFFFFFFFC0
0000000000000003FFFFFFFFFF80
000000000000001FFFFFFFFFFF80
00000000000001FFFFFFFFFFFF00
0000000000000FFFFFFFFFFFFE00
0000000000007FFFFFFFFFFFFE00
000000000007FFFFFFFFFFFFFC00
00000000003FFFFFFFFFFFFFF800
0000000003FFFFFFFFFFFFFFF000
000000001FFFFFFFFFFFFFFFC000
00000000FFFFFFFFFFFFFFFF8000
0000000FFFFFFFFFFFFFFFFE0000
0000007FFFFFFFFFFFFFFFF80000
000007FFFFFFFFFFFFFFFFE00000
00003FFFFFFFFFFFFFFFFF000000
0001FFFFFFFFFFFFFFFFF0000000
0007FFFFFFFFFFFFFFFF80000000
000FFFFFFFFFFFFFFFF800000000
003FFFFFFFFFFFFFFFC000000000
007FFFFFFFFFFFFFFE0000000000
00FFFFFFFFFFFFFFE00000000000
01FFFFFFFFFFFFFF000000000000
03FFFFFFFFFFFFF0000000000000
07FFFFFFFFFFFF80000000000000
07FFFFFFFFFFFC00000000000000
0FFFFFFFFFFFC000000000000000
1FFFFFFFFFFE0000000000000000
1FFFFFFFFFE00000000000000000
3FFFFFFFFF000000000000000000
3FFFFFFFF0000000000000000000
3FFFFFFF80000000000000000000
7FFFFFFC00000000000000000000
7FFFFFC000000000000000000000
7FFFFE0000000000000000000000
FFFFFC0000000000000000000000
FFFFF80000000000000000000000
FFFFF80000000000000000000000
FFFFF00000000000000000000000
FFFFF00000000000000000000000
FFFFF00000000000000000000000
FFFFF00000000000000000000000
FFFFF00000000000000000000000
FFFFF80000000000000000000000
FFFFF80000000000000000000000
FFFFFC0000000000000000000000
7FFFFF0000000000000000000000
7FFFFFFFFFFFFFFFFFFFFFFFFC00
7FFFFFFFFFFFFFFFFFFFFFFFFF00
7FFFFFFFFFFFFFFFFFFFFFFFFFC0
3FFFFFFFFFFFFFFFFFFFFFFFFFE0
3FFFFFFFFFFFFFFFFFFFFFFFFFE0
1FFFFFFFFFFFFFFFFFFFFFFFFFF0
1FFFFFFFFFFFFFFFFFFFFFFFFFF0
0FFFFFFFFFFFFFFFFFFFFFFFFFF8
07FFFFFFFFFFFFFFFFFFFFFFFFF8
07FFFFFFFFFFFFFFFFFFFFFFFFF8
03FFFFFFFFFFFFFFFFFFFFFFFFF8
01FFFFFFFFFFFFFFFFFFFFFFFFF8
00FFFFFFFFFFFFFFFFFFFFFFFFF8
007FFFFFFFFFFFFFFFFFFFFFFFF0
003FFFFFFFFFFFFFFFFFFFFFFFF0
000FFFFFFFFFFFFFFFFFFFFFFFE0
0007FFFFFFFFFFFFFFFFFFFFFFE0
0001FFFFFFFFFFFFFFFFFFFFFFC0
00007FFFFFFFFFFFFFFFFFFFFF00
000007FFFFFFFFFFFFFFFFFFFC00
ENDCHAR
STARTCHAR 005B
ENCODING 91
SWIDTH 400 0
DWIDTH 56 0
BBX 0 0 0 0
BITMAP
ENDCHAR
STARTCHAR 005C
ENCODING 92
SWIDTH 378 0
DWIDTH 53 0
BBX 42 108 0 -2
BITMAP
01FC00000000
07FF00000000
0FFF80000000
1FFFC0000000
3FFFE0000000
7FFFF0000000
7FFFF0000000
FFFFF8000000
FFFFF8000000
FFFFF8000000
FFFFF8000000
FFFFFC000000
FFFFFC000000
FFFFFC000000
7FFFFC000000
7FFFFC000000
7FFFFE000000
7FFFFE000000
3FFFFE000000
3FFFFE000000
3FFFFF000000
3FFFFF000000
1FFFFF000000
1FFFFF000000
1FFFFF800000
1FFFFF800000
1FFFFF800000
0FFFFF800000
0FFFFFC00000
0FFFFFC00000
0FFFFFC00000
07FFFFC00000
07FFFFC00000
07FFFFE00000
07FFFFE00000
03FFFFE00000
03FFFFE00000
03FFFFF00000
03FFFFF00000
01FFFFF00000
01FFFFF00000
01FFFFF80000
01FFFFF80000
00FFFFF80000
00FFFFF80000
00FFFFFC0000
00FFFFFC0000
00FFFFFC0000
007FFFFC0000
007FFFFE0000
007FFFFE0000
007FFFFE0000
003FFFFE0000
003FFFFE0000
003FFFFF0000
003FFFFF0000
001FFFFF0000
001FFFFF0000
001FFFFF8000
001FFFFF8000
000FFFFF8000
000FFFFF8000
000FFFFFC000
000FFFFFC000
000FFFFFC000
0007FFFFC000
0007FFFFE000
0007FFFFE000
0007FFFFE000
0003FFFFE000
0003FFFFE000
0003FFFFF000
0003FFFFF000
0001FFFFF000
0001FFFFF000
0001FFFFF800
0001FFFFF800
0000FFFFF800
0000FFFFF800
0000FFFFFC00
0000FFFFFC00
00007FFFFC00
00007FFFFC00
00007FFFFE00
00007FFFFE00
00007FFFFE00
00003FFFFE00
00003FFFFE00
00003FFFFF00
00003FFFFF00
00001FFFFF00
00001FFFFF00
00001FFFFF80
00001FFFFF80
00000FFFFF80
00000FFFFF80
00000FFFFF80
00000FFFFFC0
000007FFFFC0
000007FFFF80
000007FFFF80
000007FFFF80
000003FFFF00
000003FFFF00
000001FFFE00
000000FFFC00
0000003FF800
0000000FC000
ENDCHAR
STARTCHAR 005D
ENCODING 93
SWIDTH 421 0
DWIDTH 59 0
BBX 0 0 0 0
BITMAP
ENDCHAR
STARTCHAR 005E
ENCODING 94
SWIDTH 735 0
DWIDTH 103 0
BBX 0 0 0 0
BITMAP
ENDCHAR
STARTCHAR 005F
ENCODING 95
SWIDTH 878 0
DWIDTH 123 0
BBX 112 21 0 -1
BITMAP
01FFFFFFFFFFFFFFFFFFFFFFFF80
07FFFFFFFFFFFFFFFFFFFFFFFFE0
1FFFFFFFFFFFFFFFFFFFFFFFFFF0
1FFFFFFFFFFFFFFFFFFFFFFFFFF8
3FFFFFFFFFFFFFFFFFFFFFFFFFFC
7FFFFFFFFFFFFFFFFFFFFFFFFFFE
7FFFFFFFFFFFFFFFFFFFFFFFFFFE
FFFFFFFFFFFFFFFFFFFFFFFFFFFE
FFFFFFFFFFFFFFFFFFFFFFFFFFFF
FFFFFFFFFFFFFFFFFFFFFFFFFFFF
FFFFFFFFFFFFFFFFFFFFFFFFFFFF
FFFFFFFFFFFFFFFFFFFFFFFFFFFF
FFFFFFFFFFFFFFFFFFFFFFFFFFFF
FFFFFFFFFFFFFFFFFFFFFFFFFFFE
7FFFFFFFFFFFFFFFFFFFFFFFFFFE
7FFFFFFFFFFFFFFFFFFFFFFFFFFE
3FFFFFFFFFFFFFFFFFFFFFFFFFFC
1FFFFFFFFFFFFFFFFFFFFFFFFFF8
0FFFFFFFFFFFFFFFFFFFFFFFFFF0
07FFFFFFFFFFFFFFFFFFFFFFFFE0
01FFFFFFFFFFFFFFFFFFFFFFFF80
ENDCHAR
STARTCHAR 0060
ENCODING 96
SWIDTH 385 0
DWIDTH 54 0
BBX 40 20 5 82
BITMAP
FFFFFF0000
7FFFFF8000
3FFFFFC000
0FFFFFE000
07FFFFF000
03FFFFF000
01FFFFF800
007FFFFC00
003FFFFE00
001FFFFF00
0007FFFF00
0003FFFF80
0001FFFFC0
00007FFFE0
00003FFFF0
00001FFFF0
00000FFFF8
000003FFFC
000001FFFE
000000FFFF
ENDCHAR
STARTCHAR 0061
ENCODING 97
SWIDTH 892 0
DWIDTH 125 0
BBX 119 106 0 -2
BITMAP
00000000003FFFFFFFFC0000000000
0000000007FFFFFFFFFFC000000000
000000001FFFFFFFFFFFF000000000
000000007FFFFFFFFFFFFE00000000
00000001FFFFFFFFFFFFFF00000000
00000007FFFFFFFFFFFFFFC0000000
0000000FFFFFFFFFFFFFFFE0000000
0000001FFFFFFFFFFFFFFFF8000000
0000007FFFFFFFFFFFFFFFFC000000
000000FFFFFFFFFFFFFFFFFE000000
000001FFFFFFFFFFFFFFFFFF000000
000003FFFFFFFFFFFFFFFFFF800000
000003FFFFFFFFFFFFFFFFFFC00000
000007FFFFFFFFFFFFFFFFFFC00000
00000FFFFFFFFFFFFFFFFFFFE00000
00001FFFFFFFFFFFFFFFFFFFF00000
00001FFFFFFFFFFFFFFFFFFFF00000
00003FFFFFFFFFFFFFFFFFFFF80000
00003FFFFFFFFFFFFFFFFFFFF80000
00007FFFFFFFFFFFFFFFFFFFFC0000
00007FFFFFFFFFFFFFFFFFFFFC0000
0000FFFFFFF00000001FFFFFFE0000
0000FFFFFFC000000007FFFFFE0000
0000FFFFFF0000000001FFFFFE0000
0001FFFFFE0000000000FFFFFF0000
0001FFFFFC00000000007FFFFF0000
0001FFFFF800000000003FFFFF0000
0001FFFFF800000000001FFFFF0000
0001FFFFF000000000001FFFFF8000
0003FFFFF000000000001FFFFF8000
0003FFFFE000000000000FFFFF8000
0003FFFFE000000000000FFFFF8000
0003FFFFE000000000000FFFFFC000
0007FFFFE000000000000FFFFFC000
0007FFFFE0000000000007FFFFC000
0007FFFFC0000000000007FFFFC000
0007FFFFC0000000000007FFFFC000
0007FFFFC0000000000007FFFFE000
000FFFFFC0000000000007FFFFE000
000FFFFF80000000000003FFFFE000
000FFFFF80000000000003FFFFE000
000FFFFF80000000000003FFFFF000
001FFFFF80000000000003FFFFF000
001FFFFF80000000000001FFFFF000
001FFFFF00000000000001FFFFF000
001FFFFF00000000000001FFFFF000
001FFFFF00000000000001FFFFF800
003FFFFF00000000000000FFFFF800
003FFFFE00000000000000FFFFF800
003FFFFE00000000000000FFFFF800
003FFFFE00000000000000FFFFFC00
007FFFFE00000000000000FFFFFC00
007FFFFC000000000000007FFFFC00
007FFFFFFFFFFFFFFFFFFFFFFFFC00
007FFFFFFFFFFFFFFFFFFFFFFFFC00
007FFFFFFFFFFFFFFFFFFFFFFFFE00
00FFFFFFFFFFFFFFFFFFFFFFFFFE00
00FFFFFFFFFFFFFFFFFFFFFFFFFE00
00FFFFFFFFFFFFFFFFFFFFFFFFFE00
00FFFFFFFFFFFFFFFFFFFFFFFFFF00
01FFFFFFFFFFFFFFFFFFFFFFFFFF00
01FFFFFFFFFFFFFFFFFFFFFFFFFF00
01FFFFFFFFFFFFFFFFFFFFFFFFFF00
01FFFFFFFFFFFFFFFFFFFFFFFFFF00
01FFFFFFFFFFFFFFFFFFFFFFFFFF80
03FFFFFFFFFFFFFFFFFFFFFFFFFF80
03FFFFFFFFFFFFFFFFFFFFFFFFFF80
03FFFFFFFFFFFFFFFFFFFFFFFFFF80
03FFFFFFFFFFFFFFFFFFFFFFFFFFC0
07FFFFFFFFFFFFFFFFFFFFFFFFFFC0
07FFFFFFFFFFFFFFFFFFFFFFFFFFC0
07FFFFFFFFFFFFFFFFFFFFFFFFFFC0
07FFFFFFFFFFFFFFFFFFFFFFFFFFC0
07FFFFFFFFFFFFFFFFFFFFFFFFFFE0
0FFFFFC00000000000000007FFFFE0
0FFFFF800000000000000003FFFFE0
0FFFFF800000000000000003FFFFE0
0FFFFF800000000000000003FFFFF0
1FFFFF800000000000000003FFFFF0
1FFFFF000000000000000001FFFFF0
1FFFFF000000000000000001FFFFF0
1FFFFF000000000000000001FFFFF0
1FFFFF000000000000000001FFFFF8
3FFFFF000000000000000001FFFFF8
3FFFFE000000000000000000FFFFF8
3FFFFE000000000000000000FFFFF8
3FFFFE000000000000000000FFFFFC
7FFFFE000000000000000000FFFFFC
7FFFFC0000000000000000007FFFFC
7FFFFC0000000000000000007FFFFC
7FFFFC0000000000000000007FFFFC
7FFFFC0000000000000000007FFFFE
FFFFFC0000000000000000007FFFFE
FFFFF80000000000000000003FFFFE
FFFFF80000000000000000003FFFFE
FFFFF80000000000000000003FFFFE
FFFFF80000000000000000003FFFFE
FFFFF80000000000000000001FFFFE
FFFFF00000000000000000001FFFFE
7FFFF00000000000000000001FFFFE
7FFFE00000000000000000000FFFFC
3FFFE00000000000000000000FFFF8
3FFFC000000000000000000007FFF8
1FFF8000000000000000000003FFF0
07FF0000000000000000000001FFC0
01F800000000000000000000003F00
ENDCHAR
STARTCHAR 0062
ENCODING 98
SWIDTH 885 0
DWIDTH 124 0
BBX 109 105 0 -1
BITMAP
00001FFFFFFFFFFFFFFFE0000000
0000FFFFFFFFFFFFFFFFFE000000
0003FFFFFFFFFFFFFFFFFF800000
000FFFFFFFFFFFFFFFFFFFE00000
003FFFFFFFFFFFFFFFFFFFF80000
007FFFFFFFFFFFFFFFFFFFFC0000
00FFFFFFFFFFFFFFFFFFFFFF0000
01FFFFFFFFFFFFFFFFFFFFFF8000
03FFFFFFFFFFFFFFFFFFFFFFC000
07FFFFFFFFFFFFFFFFFFFFFFE000
0FFFFFFFFFFFFFFFFFFFFFFFF000
0FFFFFFFFFFFFFFFFFFFFFFFF800
1FFFFFFFFFFFFFFFFFFFFFFFF800
1FFFFFFFFFFFFFFFFFFFFFFFFC00
3FFFFFFFFFFFFFFFFFFFFFFFFE00
3FFFFFFFFFFFFFFFFFFFFFFFFE00
7FFFFFFFFFFFFFFFFFFFFFFFFF00
7FFFFFFFFFFFFFFFFFFFFFFFFF00
7FFFFFFFFFFFFFFFFFFFFFFFFF80
7FFFFFFFFFFFFFFFFFFFFFFFFF80
FFFFFFFFFFFFFFFFFFFFFFFFFFC0
FFFFFC000000000000007FFFFFC0
FFFFF8000000000000001FFFFFC0
FFFFF0000000000000000FFFFFC0
FFFFF00000000000000007FFFFE0
FFFFF00000000000000003FFFFE0
FFFFF00000000000000003FFFFE0
FFFFF00000000000000001FFFFE0
FFFFF00000000000000001FFFFE0
FFFFF00000000000000001FFFFE0
FFFFF00000000000000001FFFFE0
FFFFF00000000000000001FFFFE0
FFFFF00000000000000001FFFFE0
FFFFF00000000000000003FFFFE0
FFFFF00000000000000003FFFFE0
FFFFF00000000000000007FFFFC0
FFFFF0000000000000000FFFFFC0
FFFFF0000000000000001FFFFFC0
FFFFF0000000000000007FFFFFC0
FFFFFFFFFFFFFFFFFFFFFFFFFF80
FFFFFFFFFFFFFFFFFFFFFFFFFF80
FFFFFFFFFFFFFFFFFFFFFFFFFF80
FFFFFFFFFFFFFFFFFFFFFFFFFF00
FFFFFFFFFFFFFFFFFFFFFFFFFF00
FFFFFFFFFFFFFFFFFFFFFFFFFE00
FFFFFFFFFFFFFFFFFFFFFFFFFC00
FFFFFFFFFFFFFFFFFFFFFFFFFC00
FFFFFFFFFFFFFFFFFFFFFFFFF800
FFFFFFFFFFFFFFFFFFFFFFFFF000
FFFFFFFFFFFFFFFFFFFFFFFFF800
FFFFFFFFFFFFFFFFFFFFFFFFF800
FFFFFFFFFFFFFFFFFFFFFFFFFC00
FFFFFFFFFFFFFFFFFFFFFFFFFE00
FFFFFFFFFFFFFFFFFFFFFFFFFF00
FFFFFFFFFFFFFFFFFFFFFFFFFF00
FFFFFFFFFFFFFFFFFFFFFFFFFF80
FFFFFFFFFFFFFFFFFFFFFFFFFF80
FFFFFFFFFFFFFFFFFFFFFFFFFFC0
FFFFFFFFFFFFFFFFFFFFFFFFFFC0
FFFFFFFFFFFFFFFFFFFFFFFFFFE0
FFFFF000000000000000FFFFFFE0
FFFFF0000000000000001FFFFFE0
FFFFF0000000000000000FFFFFF0
FFFFF00000000000000007FFFFF0
FFFFF00000000000000003FFFFF0
FFFFF00000000000000001FFFFF0
FFFFF00000000000000000FFFFF8
FFFFF00000000000000000FFFFF8
FFFFF00000000000000000FFFFF8
FFFFF000000000000000007FFFF8
FFFFF000000000000000007FFFF8
FFFFF000000000000000007FFFF8
FFFFF000000000000000007FFFF8
FFFFF000000000000000007FFFF8
FFFFF000000000000000007FFFF8
FFFFF00000000000000000FFFFF8
FFFFF00000000000000000FFFFF8
FFFFF00000000000000000FFFFF8
FFFFF00000000000000001FFFFF0
FFFFF00000000000000003FFFFF0
FFFFF00000000000000007FFFFF0
FFFFF0000000000000000FFFFFF0
FFFFF8000000000000001FFFFFE0
FFFFFC000000000000007FFFFFE0
FFFFFFFFFFFFFFFFFFFFFFFFFFE0
FFFFFFFFFFFFFFFFFFFFFFFFFFC0
7FFFFFFFFFFFFFFFFFFFFFFFFFC0
7FFFFFFFFFFFFFFFFFFFFFFFFF80
7FFFFFFFFFFFFFFFFFFFFFFFFF80
3FFFFFFFFFFFFFFFFFFFFFFFFF00
3FFFFFFFFFFFFFFFFFFFFFFFFE00
3FFFFFFFFFFFFFFFFFFFFFFFFE00
1FFFFFFFFFFFFFFFFFFFFFFFFC00
0FFFFFFFFFFFFFFFFFFFFFFFF800
0FFFFFFFFFFFFFFFFFFFFFFFF000
07FFFFFFFFFFFFFFFFFFFFFFE000
03FFFFFFFFFFFFFFFFFFFFFFC000
01FFFFFFFFFFFFFFFFFFFFFF8000
00FFFFFFFFFFFFFFFFFFFFFF0000
007FFFFFFFFFFFFFFFFFFFFE0000
003FFFFFFFFFFFFFFFFFFFF80000
000FFFFFFFFFFFFFFFFFFFE00000
0007FFFFFFFFFFFFFFFFFF800000
0000FFFFFFFFFFFFFFFFFE000000
00001FFFFFFFFFFFFFFFC0000000
ENDCHAR
STARTCHAR 0063
ENCODING 99
SWIDTH 892 0
DWIDTH 125 0
BBX 109 105 0 -1
BITMAP
0000001FFFFFFFFFFFFFFFC00000
000003FFFFFFFFFFFFFFFFF80000
00000FFFFFFFFFFFFFFFFFFF0000
00003FFFFFFFFFFFFFFFFFFF8000
0000FFFFFFFFFFFFFFFFFFFFE000
0003FFFFFFFFFFFFFFFFFFFFF000
0007FFFFFFFFFFFFFFFFFFFFF800
000FFFFFFFFFFFFFFFFFFFFFFC00
001FFFFFFFFFFFFFFFFFFFFFFE00
003FFFFFFFFFFFFFFFFFFFFFFF00
007FFFFFFFFFFFFFFFFFFFFFFF80
00FFFFFFFFFFFFFFFFFFFFFFFFC0
01FFFFFFFFFFFFFFFFFFFFFFFFC0
03FFFFFFFFFFFFFFFFFFFFFFFFE0
03FFFFFFFFFFFFFFFFFFFFFFFFE0
07FFFFFFFFFFFFFFFFFFFFFFFFF0
0FFFFFFFFFFFFFFFFFFFFFFFFFF0
0FFFFFFFFFFFFFFFFFFFFFFFFFF0
1FFFFFFFFFFFFFFFFFFFFFFFFFF0
1FFFFFFFFFFFFFFFFFFFFFFFFFF8
3FFFFFF800000000000001FFFFF8
3FFFFFC000000000000000FFFFF8
3FFFFF80000000000000007FFFF8
7FFFFF00000000000000007FFFF8
7FFFFE00000000000000007FFFF8
7FFFFC00000000000000007FFFF8
7FFFF800000000000000007FFFF8
FFFFF800000000000000003FFFF0
FFFFF800000000000000003FFFF0
FFFFF000000000000000003FFFE0
FFFFF000000000000000001FFFE0
FFFFF000000000000000000FFFC0
FFFFF0000000000000000007FF00
FFFFF0000000000000000001FE00
FFFFF00000000000000000000000
FFFFF00000000000000000000000
FFFFF00000000000000000000000
FFFFF00000000000000000000000
FFFFF00000000000000000000000
FFFFF00000000000000000000000
FFFFF00000000000000000000000
FFFFF00000000000000000000000
FFFFF00000000000000000000000
FFFFF00000000000000000000000
FFFFF00000000000000000000000
FFFFF00000000000000000000000
FFFFF00000000000000000000000
FFFFF00000000000000000000000
FFFFF00000000000000000000000
FFFFF00000000000000000000000
FFFFF00000000000000000000000
FFFFF00000000000000000000000
FFFFF00000000000000000000000
FFFFF00000000000000000000000
FFFFF00000000000000000000000
FFFFF00000000000000000000000
FFFFF00000000000000000000000
FFFFF00000000000000000000000
FFFFF00000000000000000000000
FFFFF00000000000000000000000
FFFFF00000000000000000000000
FFFFF00000000000000000000000
FFFFF00000000000000000000000
FFFFF00000000000000000000000
FFFFF00000000000000000000000
FFFFF00000000000000000000000
FFFFF00000000000000000000000
FFFFF00000000000000000000000
FFFFF00000000000000000000000
FFFFF00000000000000000003000
FFFFF0000000000000000001FE00
FFFFF0000000000000000007FF80
FFFFF000000000000000000FFFC0
FFFFF000000000000000001FFFE0
FFFFF000000000000000001FFFF0
FFFFF000000000000000003FFFF0
FFFFF800000000000000003FFFF0
FFFFF800000000000000007FFFF8
7FFFF800000000000000007FFFF8
7FFFFC00000000000000007FFFF8
7FFFFE00000000000000007FFFF8
7FFFFF00000000000000007FFFF8
3FFFFF80000000000000007FFFF8
3FFFFFC000000000000000FFFFF8
3FFFFFF800000000000001FFFFF8
1FFFFFFFFFFFFFFFFFFFFFFFFFF0
1FFFFFFFFFFFFFFFFFFFFFFFFFF0
0FFFFFFFFFFFFFFFFFFFFFFFFFF0
0FFFFFFFFFFFFFFFFFFFFFFFFFF0
07FFFFFFFFFFFFFFFFFFFFFFFFE0
07FFFFFFFFFFFFFFFFFFFFFFFFE0
03FFFFFFFFFFFFFFFFFFFFFFFFC0
01FFFFFFFFFFFFFFFFFFFFFFFFC0
00FFFFFFFFFFFFFFFFFFFFFFFF80
007FFFFFFFFFFFFFFFFFFFFFFF00
003FFFFFFFFFFFFFFFFFFFFFFF00
001FFFFFFFFFFFFFFFFFFFFFFE00
000FFFFFFFFFFFFFFFFFFFFFFC00
0007FFFFFFFFFFFFFFFFFFFFF800
0003FFFFFFFFFFFFFFFFFFFFF000
0000FFFFFFFFFFFFFFFFFFFFE000
00003FFFFFFFFFFFFFFFFFFF8000
00000FFFFFFFFFFFFFFFFFFE0000
000003FFFFFFFFFFFFFFFFF80000
0000001FFFFFFFFFFFFFFFC00000
ENDCHAR
STARTCHAR 0064
ENCODING 100
SWIDTH 892 0
DWIDTH 125 0
BBX 109 105 0 -1
BITMAP
00001FFFFFFFFFFFFFC000000000
0000FFFFFFFFFFFFFFFC00000000
0003FFFFFFFFFFFFFFFF00000000
000FFFFFFFFFFFFFFFFFE0000000
003FFFFFFFFFFFFFFFFFF0000000
007FFFFFFFFFFFFFFFFFFC000000
00FFFFFFFFFFFFFFFFFFFE000000
01FFFFFFFFFFFFFFFFFFFF800000
03FFFFFFFFFFFFFFFFFFFFC00000
07FFFFFFFFFFFFFFFFFFFFE00000
0FFFFFFFFFFFFFFFFFFFFFF00000
0FFFFFFFFFFFFFFFFFFFFFF80000
1FFFFFFFFFFFFFFFFFFFFFF80000
1FFFFFFFFFFFFFFFFFFFFFFC0000
3FFFFFFFFFFFFFFFFFFFFFFE0000
3FFFFFFFFFFFFFFFFFFFFFFF0000
7FFFFFFFFFFFFFFFFFFFFFFF0000
7FFFFFFFFFFFFFFFFFFFFFFF8000
7FFFFFFFFFFFFFFFFFFFFFFF8000
7FFFFFFFFFFFFFFFFFFFFFFFC000
FFFFFC000000000000FFFFFFC000
FFFFF80000000000003FFFFFC000
FFFFF00000000000000FFFFFE000
FFFFF000000000000007FFFFE000
FFFFF000000000000003FFFFE000
FFFFF000000000000003FFFFF000
FFFFF000000000000001FFFFF000
FFFFF000000000000000FFFFF000
FFFFF000000000000000FFFFF000
FFFFF000000000000000FFFFF000
FFFFF000000000000000FFFFF800
FFFFF0000000000000007FFFF800
FFFFF0000000000000007FFFF800
FFFFF0000000000000007FFFF800
FFFFF0000000000000007FFFFC00
FFFFF0000000000000007FFFFC00
FFFFF0000000000000003FFFFC00
FFFFF0000000000000003FFFFC00
FFFFF0000000000000003FFFFC00
FFFFF0000000000000003FFFFE00
FFFFF0000000000000001FFFFE00
FFFFF0000000000000001FFFFE00
FFFFF0000000000000001FFFFE00
FFFFF0000000000000001FFFFF00
FFFFF0000000000000001FFFFF00
FFFFF0000000000000000FFFFF00
FFFFF0000000000000000FFFFF00
FFFFF0000000000000000FFFFF00
FFFFF0000000000000000FFFFF80
FFFFF00000000000000007FFFF80
FFFFF00000000000000007FFFF80
FFFFF00000000000000007FFFF80
FFFFF00000000000000007FFFFC0
FFFFF00000000000000007FFFFC0
FFFFF00000000000000003FFFFC0
FFFFF00000000000000003FFFFC0
FFFFF00000000000000003FFFFC0
FFFFF00000000000000003FFFFE0
FFFFF00000000000000003FFFFE0
FFFFF00000000000000001FFFFE0
FFFFF00000000000000001FFFFE0
FFFFF00000000000000001FFFFF0
FFFFF00000000000000001FFFFF0
FFFFF00000000000000000FFFFF0
FFFFF00000000000000000FFFFF0
FFFFF00000000000000000FFFFF0
FFFFF00000000000000000FFFFF8
FFFFF00000000000000000FFFFF8
FFFFF000000000000000007FFFF8
FFFFF000000000000000007FFFF8
FFFFF000000000000000007FFFF8
FFFFF000000000000000007FFFF8
FFFFF000000000000000007FFFF8
FFFFF000000000000000007FFFF8
FFFFF000000000000000007FFFF8
FFFFF000000000000000007FFFF8
FFFFF00000000000000000FFFFF8
FFFFF00000000000000000FFFFF8
FFFFF00000000000000000FFFFF0
FFFFF00000000000000001FFFFF0
FFFFF00000000000000003FFFFF0
FFFFF00000000000000007FFFFF0
FFFFF0000000000000000FFFFFE0
FFFFF8000000000000001FFFFFE0
FFFFFC00000000000000FFFFFFE0
7FFFFFFFFFFFFFFFFFFFFFFFFFC0
7FFFFFFFFFFFFFFFFFFFFFFFFFC0
7FFFFFFFFFFFFFFFFFFFFFFFFF80
7FFFFFFFFFFFFFFFFFFFFFFFFF80
3FFFFFFFFFFFFFFFFFFFFFFFFF00
3FFFFFFFFFFFFFFFFFFFFFFFFE00
1FFFFFFFFFFFFFFFFFFFFFFFFE00
1FFFFFFFFFFFFFFFFFFFFFFFFC00
0FFFFFFFFFFFFFFFFFFFFFFFF800
0FFFFFFFFFFFFFFFFFFFFFFFF000
07FFFFFFFFFFFFFFFFFFFFFFE000
03FFFFFFFFFFFFFFFFFFFFFFC000
01FFFFFFFFFFFFFFFFFFFFFF8000
00FFFFFFFFFFFFFFFFFFFFFF0000
007FFFFFFFFFFFFFFFFFFFFE0000
003FFFFFFFFFFFFFFFFFFFF80000
000FFFFFFFFFFFFFFFFFFFE00000
0003FFFFFFFFFFFFFFFFFF800000
0000FFFFFFFFFFFFFFFFFE000000
00001FFFFFFFFFFFFFFFC0000000
ENDCHAR
STARTCHAR 0065
ENCODING 101
SWIDTH 885 0
DWIDTH 124 0
BBX 109 104 0 0
BITMAP
0000001FFFFFFFFFFFFFFFC00000
000003FFFFFFFFFFFFFFFFF80000
00000FFFFFFFFFFFFFFFFFFE0000
00003FFFFFFFFFFFFFFFFFFF8000
0000FFFFFFFFFFFFFFFFFFFFC000
0003FFFFFFFFFFFFFFFFFFFFF000
0007FFFFFFFFFFFFFFFFFFFFF800
000FFFFFFFFFFFFFFFFFFFFFFC00
003FFFFFFFFFFFFFFFFFFFFFFE00
007FFFFFFFFFFFFFFFFFFFFFFF00
00FFFFFFFFFFFFFFFFFFFFFFFF00
00FFFFFFFFFFFFFFFFFFFFFFFF80
01FFFFFFFFFFFFFFFFFFFFFFFFC0
03FFFFFFFFFFFFFFFFFFFFFFFFC0
07FFFFFFFFFFFFFFFFFFFFFFFFE0
07FFFFFFFFFFFFFFFFFFFFFFFFE0
0FFFFFFFFFFFFFFFFFFFFFFFFFE0
1FFFFFFFFFFFFFFFFFFFFFFFFFF0
1FFFFFFFFFFFFFFFFFFFFFFFFFF0
3FFFFFFFFFFFFFFFFFFFFFFFFFF0
3FFFFFFFFFFFFFFFFFFFFFFFFFF0
3FFFFFF000000000000001FFFFF8
7FFFFFC000000000000000FFFFF8
7FFFFF00000000000000007FFFF8
7FFFFE00000000000000007FFFF8
7FFFFC00000000000000007FFFF8
FFFFFC00000000000000007FFFF8
FFFFF800000000000000007FFFF8
FFFFF800000000000000007FFFF0
FFFFF000000000000000003FFFF0
FFFFF000000000000000003FFFE0
FFFFF000000000000000001FFFE0
FFFFF000000000000000000FFFC0
FFFFF0000000000000000007FF00
FFFFF0000000000000000001FE00
FFFFF00000000000000000000000
FFFFF00000000000000000000000
FFFFF00000000000000000000000
FFFFF00000000000000000000000
FFFFFFFFFFFF8000000000000000
FFFFFFFFFFFFE000000000000000
FFFFFFFFFFFFF000000000000000
FFFFFFFFFFFFF800000000000000
FFFFFFFFFFFFFC00000000000000
FFFFFFFFFFFFFE00000000000000
FFFFFFFFFFFFFE00000000000000
FFFFFFFFFFFFFE00000000000000
FFFFFFFFFFFFFF00000000000000
FFFFFFFFFFFFFF00000000000000
FFFFFFFFFFFFFF00000000000000
FFFFFFFFFFFFFF00000000000000
FFFFFFFFFFFFFF00000000000000
FFFFFFFFFFFFFE00000000000000
FFFFFFFFFFFFFE00000000000000
FFFFFFFFFFFFFE00000000000000
FFFFFFFFFFFFFC00000000000000
FFFFFFFFFFFFF800000000000000
FFFFFFFFFFFFF000000000000000
FFFFFFFFFFFFE000000000000000
FFFFFFFFFFFF8000000000000000
FFFFF00000000000000000000000
FFFFF00000000000000000000000
FFFFF00000000000000000000000
FFFFF00000000000000000000000
FFFFF00000000000000000000000
FFFFF00000000000000000000000
FFFFF00000000000000000000000
FFFFF00000000000000000000000
FFFFF00000000000000000000000
FFFFF0000000000000000000FC00
FFFFF0000000000000000003FF00
FFFFF0000000000000000007FF80
FFFFF000000000000000000FFFC0
FFFFF000000000000000001FFFE0
FFFFF000000000000000003FFFF0
FFFFF000000000000000003FFFF0
FFFFF800000000000000007FFFF0
FFFFF800000000000000007FFFF8
7FFFFC00000000000000007FFFF8
7FFFFC00000000000000007FFFF8
7FFFFE00000000000000007FFFF8
7FFFFF00000000000000007FFFF8
3FFFFFC000000000000000FFFFF8
3FFFFFF000000000000001FFFFF8
3FFFFFFFFFFFFFFFFFFFFFFFFFF0
1FFFFFFFFFFFFFFFFFFFFFFFFFF0
1FFFFFFFFFFFFFFFFFFFFFFFFFF0
0FFFFFFFFFFFFFFFFFFFFFFFFFF0
07FFFFFFFFFFFFFFFFFFFFFFFFE0
07FFFFFFFFFFFFFFFFFFFFFFFFE0
03FFFFFFFFFFFFFFFFFFFFFFFFC0
01FFFFFFFFFFFFFFFFFFFFFFFFC0
00FFFFFFFFFFFFFFFFFFFFFFFF80
00FFFFFFFFFFFFFFFFFFFFFFFF80
007FFFFFFFFFFFFFFFFFFFFFFF00
003FFFFFFFFFFFFFFFFFFFFFFE00
000FFFFFFFFFFFFFFFFFFFFFFC00
0007FFFFFFFFFFFFFFFFFFFFF800
0003FFFFFFFFFFFFFFFFFFFFF000
0000FFFFFFFFFFFFFFFFFFFFE000
00007FFFFFFFFFFFFFFFFFFF8000
00000FFFFFFFFFFFFFFFFFFE0000
000003FFFFFFFFFFFFFFFFF80000
0000003FFFFFFFFFFFFFFFC00000
ENDCHAR
STARTCHAR 0066
ENCODING 102
SWIDTH 892 0
DWIDTH 125 0
BBX 111 106 0 -2
BITMAP
0000001FFFFFFFFFFFFFFFE00000
000001FFFFFFFFFFFFFFFFFE0000
00000FFFFFFFFFFFFFFFFFFF8000
00003FFFFFFFFFFFFFFFFFFFE000
0000FFFFFFFFFFFFFFFFFFFFF000
0001FFFFFFFFFFFFFFFFFFFFFC00
0007FFFFFFFFFFFFFFFFFFFFFE00
000FFFFFFFFFFFFFFFFFFFFFFF00
001FFFFFFFFFFFFFFFFFFFFFFF80
003FFFFFFFFFFFFFFFFFFFFFFF80
007FFFFFFFFFFFFFFFFFFFFFFFC0
00FFFFFFFFFFFFFFFFFFFFFFFFE0
01FFFFFFFFFFFFFFFFFFFFFFFFF0
03FFFFFFFFFFFFFFFFFFFFFFFFF0
03FFFFFFFFFFFFFFFFFFFFFFFFF8
07FFFFFFFFFFFFFFFFFFFFFFFFF8
0FFFFFFFFFFFFFFFFFFFFFFFFFF8
0FFFFFFFFFFFFFFFFFFFFFFFFFFC
1FFFFFFFFFFFFFFFFFFFFFFFFFFC
1FFFFFFFFFFFFFFFFFFFFFFFFFFC
1FFFFFFFFFFFFFFFFFFFFFFFFFFE
3FFFFFFFFFFFFFFFFFFFFFFFFFFE
3FFFFFFC00000000000000FFFFFE
7FFFFFE0000000000000007FFFFE
7FFFFFC0000000000000003FFFFE
7FFFFF80000000000000003FFFFE
7FFFFF00000000000000003FFFFE
7FFFFE00000000000000003FFFFE
FFFFFC00000000000000003FFFFE
FFFFFC00000000000000001FFFFE
FFFFFC00000000000000001FFFFC
FFFFF800000000000000000FFFFC
FFFFF800000000000000000FFFF8
FFFFF8000000000000000007FFF0
FFFFF8000000000000000003FFE0
FFFFF8000000000000000000FF80
FFFFF80000000000000000000000
FFFFF80000000000000000000000
FFFFF80000000000000000000000
FFFFF80000000000000000000000
FFFFF80000000000000000000000
FFFFF80000000000000000000000
FFFFF80000000000000000000000
FFFFF80000000000000000000000
FFFFF80000000000000000000000
FFFFF80000000000000000000000
FFFFFFFFFFFFFFFFE00000000000
FFFFFFFFFFFFFFFFF80000000000
FFFFFFFFFFFFFFFFFC0000000000
FFFFFFFFFFFFFFFFFE0000000000
FFFFFFFFFFFFFFFFFF0000000000
FFFFFFFFFFFFFFFFFF8000000000
FFFFFFFFFFFFFFFFFF8000000000
FFFFFFFFFFFFFFFFFFC000000000
FFFFFFFFFFFFFFFFFFC000000000
FFFFFFFFFFFFFFFFFFC000000000
FFFFFFFFFFFFFFFFFFC000000000
FFFFFFFFFFFFFFFFFFC000000000
FFFFFFFFFFFFFFFFFFC000000000
FFFFFFFFFFFFFFFFFF8000000000
FFFFFFFFFFFFFFFFFF8000000000
FFFFFFFFFFFFFFFFFF8000000000
FFFFFFFFFFFFFFFFFF0000000000
FFFFFFFFFFFFFFFFFE0000000000
FFFFFFFFFFFFFFFFFC0000000000
FFFFFFFFFFFFFFFFF00000000000
FFFFFFFFFFFFFFFFC00000000000
FFFFF80000000000000000000000
FFFFF80000000000000000000000
FFFFF80000000000000000000000
FFFFF80000000000000000000000
FFFFF80000000000000000000000
FFFFF80000000000000000000000
FFFFF80000000000000000000000
FFFFF80000000000000000000000
FFFFF80000000000000000000000
FFFFF80000000000000000000000
FFFFF80000000000000000000000
FFFFF80000000000000000000000
FFFFF80000000000000000000000
FFFFF80000000000000000000000
FFFFF80000000000000000000000
FFFFF80000000000000000000000
FFFFF80000000000000000000000
FFFFF80000000000000000000000
FFFFF80000000000000000000000
FFFFF80000000000000000000000
FFFFF80000000000000000000000
FFFFF80000000000000000000000
FFFFF80000000000000000000000
FFFFF80000000000000000000000
FFFFF80000000000000000000000
FFFFF80000000000000000000000
FFFFF80000000000000000000000
FFFFF80000000000000000000000
FFFFF80000000000000000000000
FFFFF80000000000000000000000
FFFFF80000000000000000000000
FFFFF80000000000000000000000
7FFFF00000000000000000000000
7FFFF00000000000000000000000
3FFFE00000000000000000000000
1FFFE00000000000000000000000
0FFFC00000000000000000000000
07FF000000000000000000000000
01FC000000000000000000000000
ENDCHAR
STARTCHAR 0067
ENCODING 103
SWIDTH 892 0
DWIDTH 125 0
BBX 109 104 0 0
BITMAP
0000001FFFFFFFFFFFFFFFC00000
000003FFFFFFFFFFFFFFFFF80000
00000FFFFFFFFFFFFFFFFFFE0000
00003FFFFFFFFFFFFFFFFFFF8000
0000FFFFFFFFFFFFFFFFFFFFE000
0003FFFFFFFFFFFFFFFFFFFFF000
0007FFFFFFFFFFFFFFFFFFFFF800
000FFFFFFFFFFFFFFFFFFFFFFC00
003FFFFFFFFFFFFFFFFFFFFFFE00
007FFFFFFFFFFFFFFFFFFFFFFF00
00FFFFFFFFFFFFFFFFFFFFFFFF80
00FFFFFFFFFFFFFFFFFFFFFFFF80
01FFFFFFFFFFFFFFFFFFFFFFFFC0
03FFFFFFFFFFFFFFFFFFFFFFFFC0
07FFFFFFFFFFFFFFFFFFFFFFFFE0
07FFFFFFFFFFFFFFFFFFFFFFFFE0
0FFFFFFFFFFFFFFFFFFFFFFFFFF0
1FFFFFFFFFFFFFFFFFFFFFFFFFF0
1FFFFFFFFFFFFFFFFFFFFFFFFFF0
3FFFFFFFFFFFFFFFFFFFFFFFFFF0
3FFFFFF000000000000001FFFFF8
3FFFFFC000000000000000FFFFF8
7FFFFF80000000000000007FFFF8
7FFFFE00000000000000007FFFF8
7FFFFE00000000000000007FFFF8
7FFFFC00000000000000007FFFF8
FFFFF800000000000000007FFFF8
FFFFF800000000000000007FFFF0
FFFFF000000000000000003FFFF0
FFFFF000000000000000003FFFE0
FFFFF000000000000000001FFFE0
FFFFF000000000000000000FFFC0
FFFFF0000000000000000007FF00
FFFFF0000000000000000001FE00
FFFFF00000000000000000000000
FFFFF00000000000000000000000
FFFFF00000000000000000000000
FFFFF00000000000000000000000
FFFFF00000000000000000000000
FFFFF00000000000000000000000
FFFFF00000000000000000000000
FFFFF00000000000000000000000
FFFFF00000000000000000000000
FFFFF00000000000000000000000
FFFFF00000000000000000000000
FFFFF00000000000000000000000
FFFFF00000000000000000000000
FFFFF00000000000000000000000
FFFFF00000000000000000000000
FFFFF00000000000000000000000
FFFFF00000000000000000000000
FFFFF00000000000000000000000
FFFFF0000000000000007FE00000
FFFFF000000000000000FFFC0000
FFFFF000000000000003FFFE0000
FFFFF000000000000007FFFF8000
FFFFF000000000000007FFFFC000
FFFFF00000000000000FFFFFE000
FFFFF00000000000000FFFFFF000
FFFFF00000000000001FFFFFF800
FFFFF00000000000001FFFFFFC00
FFFFF00000000000001FFFFFFE00
FFFFF00000000000001FFFFFFF00
FFFFF00000000000001FFFFFFF00
FFFFF00000000000000FFFFFFF80
FFFFF00000000000000FFFFFFFC0
FFFFF00000000000000FFFFFFFC0
FFFFF000000000000007FFFFFFE0
FFFFF000000000000003FFFFFFE0
FFFFF000000000000001FFFFFFE0
FFFFF000000000000000FFFFFFF0
FFFFF0000000000000001FFFFFF0
FFFFF00000000000000003FFFFF0
FFFFF00000000000000001FFFFF0
FFFFF00000000000000000FFFFF8
FFFFF000000000000000007FFFF8
FFFFF800000000000000007FFFF8
FFFFF800000000000000007FFFF8
7FFFFC00000000000000007FFFF8
7FFFFE00000000000000007FFFF8
7FFFFF0000000000000000FFFFF8
7FFFFF8000000000000000FFFFF8
3FFFFFC000000000000001FFFFF0
3FFFFFF000000000000007FFFFF0
3FFFFFFFFFFFFFFFFFFFFFFFFFF0
1FFFFFFFFFFFFFFFFFFFFFFFFFF0
1FFFFFFFFFFFFFFFFFFFFFFFFFE0
0FFFFFFFFFFFFFFFFFFFFFFFFFE0
07FFFFFFFFFFFFFFFFFFFFFFFFE0
07FFFFFFFFFFFFFFFFFFFFFFFFC0
03FFFFFFFFFFFFFFFFFFFFFFFFC0
01FFFFFFFFFFFFFFFFFFFFFFFF80
00FFFFFFFFFFFFFFFFFFFFFFFF00
00FFFFFFFFFFFFFFFFFFFFFFFF00
007FFFFFFFFFFFFFFFFFFFFFFE00
003FFFFFFFFFFFFFFFFFFFFFFC00
000FFFFFFFFFFFFFFFFFFFFFF800
0007FFFFFFFFFFFFFFFFFFFFF000
0003FFFFFFFFFFFFFFFFFFFFE000
0000FFFFFFFFFFFFFFFFFFFF8000
00003FFFFFFFFFFFFFFFFFFF0000
00000FFFFFFFFFFFFFFFFFFC0000
000003FFFFFFFFFFFFFFFFE00000
0000001FFFFFFFFFFFFFFF000000
ENDCHAR
STARTCHAR 0068
ENCODING 104
SWIDTH 892 0
DWIDTH 125 0
BBX 112 107 0 -2
BITMAP
01FC000000000000000000003F80
07FF00000000000000000000FFE0
0FFF80000000000000000001FFF0
1FFFC0000000000000000003FFF8
3FFFE0000000000000000007FFFC
7FFFF000000000000000000FFFFE
7FFFF000000000000000000FFFFE
FFFFF800000000000000001FFFFF
FFFFF800000000000000001FFFFF
FFFFF800000000000000001FFFFF
FFFFF800000000000000001FFFFF
FFFFF800000000000000001FFFFF
FFFFF800000000000000001FFFFF
FFFFF800000000000000001FFFFF
FFFFF800000000000000001FFFFF
FFFFF800000000000000001FFFFF
FFFFF800000000000000001FFFFF
FFFFF800000000000000001FFFFF
FFFFF800000000000000001FFFFF
FFFFF800000000000000001FFFFF
FFFFF800000000000000001FFFFF
FFFFF800000000000000001FFFFF
FFFFF800000000000000001FFFFF
FFFFF800000000000000001FFFFF
FFFFF800000000000000001FFFFF
FFFFF800000000000000001FFFFF
FFFFF800000000000000001FFFFF
FFFFF800000000000000001FFFFF
FFFFF800000000000000001FFFFF
FFFFF800000000000000001FFFFF
FFFFF800000000000000001FFFFF
FFFFF800000000000000001FFFFF
FFFFF800000000000000001FFFFF
FFFFF800000000000000001FFFFF
FFFFF800000000000000001FFFFF
FFFFF800000000000000001FFFFF
FFFFF800000000000000001FFFFF
FFFFF800000000000000001FFFFF
FFFFF800000000000000001FFFFF
FFFFF800000000000000001FFFFF
FFFFF800000000000000001FFFFF
FFFFF800000000000000001FFFFF
FFFFF800000000000000001FFFFF
FFFFF800000000000000001FFFFF
FFFFF800000000000000001FFFFF
FFFFF800000000000000001FFFFF
FFFFF800000000000000001FFFFF
FFFFFFFFFFFFFFFFFFFFFFFFFFFF
FFFFFFFFFFFFFFFFFFFFFFFFFFFF
FFFFFFFFFFFFFFFFFFFFFFFFFFFF
FFFFFFFFFFFFFFFFFFFFFFFFFFFF
FFFFFFFFFFFFFFFFFFFFFFFFFFFF
FFFFFFFFFFFFFFFFFFFFFFFFFFFF
FFFFFFFFFFFFFFFFFFFFFFFFFFFF
FFFFFFFFFFFFFFFFFFFFFFFFFFFF
FFFFFFFFFFFFFFFFFFFFFFFFFFFF
FFFFFFFFFFFFFFFFFFFFFFFFFFFF
FFFFFFFFFFFFFFFFFFFFFFFFFFFF
FFFFFFFFFFFFFFFFFFFFFFFFFFFF
FFFFFFFFFFFFFFFFFFFFFFFFFFFF
FFFFFFFFFFFFFFFFFFFFFFFFFFFF
FFFFFFFFFFFFFFFFFFFFFFFFFFFF
FFFFFFFFFFFFFFFFFFFFFFFFFFFF
FFFFFFFFFFFFFFFFFFFFFFFFFFFF
FFFFFFFFFFFFFFFFFFFFFFFFFFFF
FFFFFFFFFFFFFFFFFFFFFFFFFFFF
FFFFFFFFFFFFFFFFFFFFFFFFFFFF
FFFFFFFFFFFFFFFFFFFFFFFFFFFF
FFFFF800000000000000001FFFFF
FFFFF800000000000000001FFFFF
FFFFF800000000000000001FFFFF
FFFFF800000000000000001FFFFF
FFFFF800000000000000001FFFFF
FFFFF800000000000000001FFFFF
FFFFF800000000000000001FFFFF
FFFFF800000000000000001FFFFF
FFFFF800000000000000001FFFFF
FFFFF800000000000000001FFFFF
FFFFF800000000000000001FFFFF
FFFFF800000000000000001FFFFF
FFFFF800000000000000001FFFFF
FFFFF800000000000000001FFFFF
FFFFF800000000000000001FFFFF
FFFFF800000000000000001FFFFF
FFFFF800000000000000001FFFFF
FFFFF800000000000000001FFFFF
FFFFF800000000000000001FFFFF
FFFFF800000000000000001FFFFF
FFFFF800000000000000001FFFFF
FFFFF800000000000000001FFFFF
FFFFF800000000000000001FFFFF
FFFFF800000000000000001FFFFF
FFFFF800000000000000001FFFFF
FFFFF800000000000000001FFFFF
FFFFF800000000000000001FFFFF
FFFFF800000000000000001FFFFF
FFFFF800000000000000001FFFFF
FFFFF800000000000000001FFFFF
FFFFF800000000000000001FFFFF
FFFFF800000000000000001FFFFF
7FFFF000000000000000000FFFFE
7FFFF000000000000000000FFFFE
3FFFE0000000000000000007FFFC
1FFFC0000000000000000003FFF8
0FFF80000000000000000001FFF0
07FF00000000000000000000FFE0
01FC000000000000000000003F80
ENDCHAR
STARTCHAR 0069
ENCODING 105
SWIDTH 257 0
DWIDTH 36 0
BBX 21 107 0 -2
BITMAP
01FC00
07FF00
0FFF80
1FFFC0
3FFFE0
7FFFF0
7FFFF0
FFFFF8
FFFFF8
FFFFF8
FFFFF8
FFFFF8
FFFFF8
FFFFF8
FFFFF8
FFFFF8
FFFFF8
FFFFF8
FFFFF8
FFFFF8
FFFFF8
FFFFF8
FFFFF8
FFFFF8
FFFFF8
FFFFF8
FFFFF8
FFFFF8
FFFFF8
FFFFF8
FFFFF8
FFFFF8
FFFFF8
FFFFF8
FFFFF8
FFFFF8
FFFFF8
FFFFF8
FFFFF8
FFFFF8
FFFFF8
FFFFF8
FFFFF8
FFFFF8
FFFFF8
FFFFF8
FFFFF8
FFFFF8
FFFFF8
FFFFF8
FFFFF8
FFFFF8
FFFFF8
FFFFF8
FFFFF8
FFFFF8
FFFFF8
FFFFF8
FFFFF8
FFFFF8
FFFFF8
FFFFF8
FFFFF8
FFFFF8
FFFFF8
FFFFF8
FFFFF8
FFFFF8
FFFFF8
FFFFF8
FFFFF8
FFFFF8
FFFFF8
FFFFF8
FFFFF8
FFFFF8
FFFFF8
FFFFF8
FFFFF8
FFFFF8
FFFFF8
FFFFF8
FFFFF8
FFFFF8
FFFFF8
FFFFF8
FFFFF8
FFFFF8
FFFFF8
FFFFF8
FFFFF8
FFFFF8
FFFFF8
FFFFF8
FFFFF8
FFFFF8
FFFFF8
FFFFF8
FFFFF8
FFFFF8
7FFFF0
7FFFF0
3FFFE0
1FFFC0
0FFF80
07FF00
01FC00
ENDCHAR
STARTCHAR 006A
ENCODING 106
SWIDTH 892 0
DWIDTH 125 0
BBX 111 106 0 -1
BITMAP
0000000000000000000000007F00
000000000000000000000001FFC0
000000000000000000000007FFE0
00000000000000000000000FFFF0
00000000000000000000000FFFF8
00000000000000000000001FFFFC
00000000000000000000001FFFFC
00000000000000000000003FFFFC
00000000000000000000003FFFFE
00000000000000000000003FFFFE
00000000000000000000003FFFFE
00000000000000000000003FFFFE
00000000000000000000003FFFFE
00000000000000000000003FFFFE
00000000000000000000003FFFFE
00000000000000000000003FFFFE
00000000000000000000003FFFFE
00000000000000000000003FFFFE
00000000000000000000003FFFFE
00000000000000000000003FFFFE
00000000000000000000003FFFFE
00000000000000000000003FFFFE
00000000000000000000003FFFFE
00000000000000000000003FFFFE
00000000000000000000003FFFFE
00000000000000000000003FFFFE
00000000000000000000003FFFFE
00000000000000000000003FFFFE
00000000000000000000003FFFFE
00000000000000000000003FFFFE
00000000000000000000003FFFFE
00000000000000000000003FFFFE
00000000000000000000003FFFFE
00000000000000000000003FFFFE
00000000000000000000003FFFFE
00000000000000000000003FFFFE
00000000000000000000003FFFFE
00000000000000000000003FFFFE
00000000000000000000003FFFFE
00000000000000000000003FFFFE
00000000000000000000003FFFFE
00000000000000000000003FFFFE
00000000000000000000003FFFFE
00000000000000000000003FFFFE
00000000000000000000003FFFFE
00000000000000000000003FFFFE
00000000000000000000003FFFFE
00000000000000000000003FFFFE
00000000000000000000003FFFFE
00000000000000000000003FFFFE
00000000000000000000003FFFFE
00000000000000000000003FFFFE
00000000000000000000003FFFFE
00000000000000000000003FFFFE
00000000000000000000003FFFFE
00000000000000000000003FFFFE
00000000000000000000003FFFFE
00000000000000000000003FFFFE
00000000000000000000003FFFFE
00000000000000000000003FFFFE
00000000000000000000003FFFFE
00000000000000000000003FFFFE
00000000000000000000003FFFFE
00000000000000000000003FFFFE
00000000000000000000003FFFFE
00000000000000000000003FFFFE
00000000000000000000003FFFFE
00000000000000000000003FFFFE
00000000000000000000003FFFFE
00000000000000000000003FFFFE
03FC0000000000000000003FFFFE
0FFF0000000000000000003FFFFE
1FFF8000000000000000003FFFFE
3FFFC000000000000000003FFFFE
3FFFE000000000000000003FFFFE
7FFFF000000000000000003FFFFE
7FFFF000000000000000007FFFFE
FFFFF000000000000000007FFFFE
FFFFF80000000000000000FFFFFC
FFFFF80000000000000000FFFFFC
FFFFF80000000000000001FFFFFC
FFFFF80000000000000003FFFFFC
FFFFF80000000000000007FFFFFC
FFFFFC000000000000000FFFFFF8
FFFFFE000000000000007FFFFFF8
FFFFFFFFFFFFFFFFFFFFFFFFFFF0
FFFFFFFFFFFFFFFFFFFFFFFFFFF0
7FFFFFFFFFFFFFFFFFFFFFFFFFF0
7FFFFFFFFFFFFFFFFFFFFFFFFFE0
7FFFFFFFFFFFFFFFFFFFFFFFFFC0
3FFFFFFFFFFFFFFFFFFFFFFFFFC0
3FFFFFFFFFFFFFFFFFFFFFFFFF80
1FFFFFFFFFFFFFFFFFFFFFFFFF00
1FFFFFFFFFFFFFFFFFFFFFFFFF00
0FFFFFFFFFFFFFFFFFFFFFFFFE00
07FFFFFFFFFFFFFFFFFFFFFFFC00
07FFFFFFFFFFFFFFFFFFFFFFF800
03FFFFFFFFFFFFFFFFFFFFFFF000
01FFFFFFFFFFFFFFFFFFFFFFE000
00FFFFFFFFFFFFFFFFFFFFFFC000
007FFFFFFFFFFFFFFFFFFFFF0000
003FFFFFFFFFFFFFFFFFFFFE0000
000FFFFFFFFFFFFFFFFFFFF80000
0003FFFFFFFFFFFFFFFFFFE00000
0000FFFFFFFFFFFFFFFFFF000000
00001FFFFFFFFFFFFFFFF0000000
ENDCHAR
STARTCHAR 006B
ENCODING 107
SWIDTH 892 0
DWIDTH 125 0
BBX 116 108 0 -2
BITMAP
01FC00000000000000000007E00000
07FF0000000000000000003FF80000
0FFF8000000000000000007FFE0000
1FFFC00000000000000000FFFF0000
3FFFE00000000000000001FFFF0000
7FFFF00000000000000001FFFF8000
7FFFF00000000000000003FFFF8000
FFFFF80000000000000003FFFFC000
FFFFF80000000000000003FFFFC000
FFFFF80000000000000007FFFFC000
FFFFF80000000000000007FFFFC000
FFFFF80000000000000007FFFFC000
FFFFF80000000000000007FFFFC000
FFFFF8000000000000000FFFFFC000
FFFFF8000000000000000FFFFFC000
FFFFF8000000000000000FFFFF8000
FFFFF8000000000000000FFFFF8000
FFFFF8000000000000000FFFFF8000
FFFFF8000000000000001FFFFF8000
FFFFF8000000000000001FFFFF0000
FFFFF8000000000000001FFFFF0000
FFFFF8000000000000001FFFFF0000
FFFFF8000000000000003FFFFF0000
FFFFF8000000000000003FFFFF0000
FFFFF8000000000000003FFFFE0000
FFFFF8000000000000003FFFFE0000
FFFFF8000000000000007FFFFE0000
FFFFF8000000000000007FFFFE0000
FFFFF8000000000000007FFFFC0000
FFFFF8000000000000007FFFFC0000
FFFFF800000000000000FFFFFC0000
FFFFF800000000000000FFFFFC0000
FFFFF800000000000001FFFFFC0000
FFFFF800000000000003FFFFF80000
FFFFF800000000000007FFFFF80000
FFFFF80000000000000FFFFFF80000
FFFFF80000000000003FFFFFF00000
FFFFF8000000000000FFFFFFF00000
FFFFFFFFFFFFFFFFFFFFFFFFF00000
FFFFFFFFFFFFFFFFFFFFFFFFE00000
FFFFFFFFFFFFFFFFFFFFFFFFE00000
FFFFFFFFFFFFFFFFFFFFFFFFC00000
FFFFFFFFFFFFFFFFFFFFFFFFC00000
FFFFFFFFFFFFFFFFFFFFFFFF800000
FFFFFFFFFFFFFFFFFFFFFFFF000000
FFFFFFFFFFFFFFFFFFFFFFFF800000
FFFFFFFFFFFFFFFFFFFFFFFFC00000
FFFFFFFFFFFFFFFFFFFFFFFFE00000
FFFFFFFFFFFFFFFFFFFFFFFFF00000
FFFFFFFFFFFFFFFFFFFFFFFFF80000
FFFFFFFFFFFFFFFFFFFFFFFFFC0000
FFFFFFFFFFFFFFFFFFFFFFFFFC0000
FFFFFFFFFFFFFFFFFFFFFFFFFE0000
FFFFFFFFFFFFFFFFFFFFFFFFFF0000
FFFFFFFFFFFFFFFFFFFFFFFFFF0000
FFFFFFFFFFFFFFFFFFFFFFFFFF8000
FFFFFFFFFFFFFFFFFFFFFFFFFF8000
FFFFFFFFFFFFFFFFFFFFFFFFFFC000
FFFFFFFFFFFFFFFFFFFFFFFFFFC000
FFFFF800000000000003FFFFFFE000
FFFFF8000000000000007FFFFFE000
FFFFF8000000000000001FFFFFE000
FFFFF8000000000000000FFFFFF000
FFFFF80000000000000007FFFFF000
FFFFF80000000000000003FFFFF000
FFFFF80000000000000001FFFFF800
FFFFF80000000000000001FFFFF800
FFFFF80000000000000001FFFFF800
FFFFF80000000000000000FFFFF800
FFFFF80000000000000000FFFFF800
FFFFF80000000000000000FFFFFC00
FFFFF80000000000000000FFFFFC00
FFFFF800000000000000007FFFFC00
FFFFF800000000000000007FFFFC00
FFFFF800000000000000007FFFFE00
FFFFF800000000000000007FFFFE00
FFFFF800000000000000003FFFFE00
FFFFF800000000000000003FFFFE00
FFFFF800000000000000003FFFFF00
FFFFF800000000000000003FFFFF00
FFFFF800000000000000003FFFFF00
FFFFF800000000000000001FFFFF00
FFFFF800000000000000001FFFFF00
FFFFF800000000000000001FFFFF80
FFFFF800000000000000001FFFFF80
FFFFF800000000000000000FFFFF80
FFFFF800000000000000000FFFFF80
FFFFF800000000000000000FFFFFC0
FFFFF800000000000000000FFFFFC0
FFFFF8000000000000000007FFFFC0
FFFFF8000000000000000007FFFFC0
FFFFF8000000000000000007FFFFE0
FFFFF8000000000000000007FFFFE0
FFFFF8000000000000000007FFFFE0
FFFFF8000000000000000003FFFFE0
FFFFF8000000000000000003FFFFE0
FFFFF8000000000000000003FFFFF0
FFFFF8000000000000000003FFFFF0
FFFFF8000000000000000001FFFFF0
FFFFF8000000000000000001FFFFE0
FFFFF8000000000000000001FFFFE0
7FFFF0000000000000000001FFFFE0
7FFFF0000000000000000000FFFFC0
3FFFE0000000000000000000FFFFC0
1FFFC00000000000000000007FFF80
0FFF800000000000000000003FFF00
07FF000000000000000000000FFE00
01FC0000000000000000000003F000
ENDCHAR
STARTCHAR 006C
ENCODING 108
SWIDTH 892 0
DWIDTH 125 0
BBX 111 106 0 -1
BITMAP
01FC000000000000000000000000
07FF000000000000000000000000
0FFF800000000000000000000000
1FFFC00000000000000000000000
3FFFE00000000000000000000000
7FFFF00000000000000000000000
7FFFF00000000000000000000000
7FFFF80000000000000000000000
FFFFF80000000000000000000000
FFFFF80000000000000000000000
FFFFF80000000000000000000000
FFFFF80000000000000000000000
FFFFF80000000000000000000000
FFFFF80000000000000000000000
FFFFF80000000000000000000000
FFFFF80000000000000000000000
FFFFF80000000000000000000000
FFFFF80000000000000000000000
FFFFF80000000000000000000000
FFFFF80000000000000000000000
FFFFF80000000000000000000000
FFFFF80000000000000000000000
FFFFF80000000000000000000000
FFFFF80000000000000000000000
FFFFF80000000000000000000000
FFFFF80000000000000000000000
FFFFF80000000000000000000000
FFFFF80000000000000000000000
FFFFF80000000000000000000000
FFFFF80000000000000000000000
FFFFF80000000000000000000000
FFFFF80000000000000000000000
FFFFF80000000000000000000000
FFFFF80000000000000000000000
FFFFF80000000000000000000000
FFFFF80000000000000000000000
FFFFF80000000000000000000000
FFFFF80000000000000000000000
FFFFF80000000000000000000000
FFFFF80000000000000000000000
FFFFF80000000000000000000000
FFFFF80000000000000000000000
FFFFF80000000000000000000000
FFFFF80000000000000000000000
FFFFF80000000000000000000000
FFFFF80000000000000000000000
FFFFF80000000000000000000000
FFFFF80000000000000000000000
FFFFF80000000000000000000000
FFFFF80000000000000000000000
FFFFF80000000000000000000000
FFFFF80000000000000000000000
FFFFF80000000000000000000000
FFFFF80000000000000000000000
FFFFF80000000000000000000000
FFFFF80000000000000000000000
FFFFF80000000000000000000000
FFFFF80000000000000000000000
FFFFF80000000000000000000000
FFFFF80000000000000000000000
FFFFF80000000000000000000000
FFFFF80000000000000000000000
FFFFF80000000000000000000000
FFFFF80000000000000000000000
FFFFF80000000000000000000000
FFFFF80000000000000000000000
FFFFF80000000000000000000000
FFFFF80000000000000000000000
FFFFF80000000000000000000000
FFFFF80000000000000000000000
FFFFF80000000000000000007F80
FFFFF8000000000000000001FFE0
FFFFF8000000000000000003FFF0
FFFFF8000000000000000007FFF8
FFFFF800000000000000000FFFF8
FFFFF800000000000000001FFFFC
FFFFFC00000000000000001FFFFC
FFFFFC00000000000000001FFFFE
7FFFFC00000000000000003FFFFE
7FFFFE00000000000000003FFFFE
7FFFFF00000000000000003FFFFE
7FFFFF80000000000000003FFFFE
7FFFFFC0000000000000003FFFFE
3FFFFFE0000000000000007FFFFE
3FFFFFFC00000000000000FFFFFE
1FFFFFFFFFFFFFFFFFFFFFFFFFFE
1FFFFFFFFFFFFFFFFFFFFFFFFFFC
1FFFFFFFFFFFFFFFFFFFFFFFFFFC
0FFFFFFFFFFFFFFFFFFFFFFFFFFC
0FFFFFFFFFFFFFFFFFFFFFFFFFFC
07FFFFFFFFFFFFFFFFFFFFFFFFF8
03FFFFFFFFFFFFFFFFFFFFFFFFF8
03FFFFFFFFFFFFFFFFFFFFFFFFF0
01FFFFFFFFFFFFFFFFFFFFFFFFF0
00FFFFFFFFFFFFFFFFFFFFFFFFE0
007FFFFFFFFFFFFFFFFFFFFFFFC0
003FFFFFFFFFFFFFFFFFFFFFFFC0
001FFFFFFFFFFFFFFFFFFFFFFF80
000FFFFFFFFFFFFFFFFFFFFFFF00
0007FFFFFFFFFFFFFFFFFFFFFE00
0001FFFFFFFFFFFFFFFFFFFFFC00
0000FFFFFFFFFFFFFFFFFFFFF000
00003FFFFFFFFFFFFFFFFFFFE000
00000FFFFFFFFFFFFFFFFFFF8000
000001FFFFFFFFFFFFFFFFFE0000
0000001FFFFFFFFFFFFFFFE00000
ENDCHAR
STARTCHAR 006D
ENCODING 109
SWIDTH 1142 0
DWIDTH 160 0
BBX 152 106 0 -2
BITMAP
0000001FFFFFFFFFFFFFFFFFFFFE0000000000
000001FFFFFFFFFFFFFFFFFFFFFFE000000000
00000FFFFFFFFFFFFFFFFFFFFFFFF800000000
00003FFFFFFFFFFFFFFFFFFFFFFFFF00000000
0000FFFFFFFFFFFFFFFFFFFFFFFFFF80000000
0001FFFFFFFFFFFFFFFFFFFFFFFFFFE0000000
0007FFFFFFFFFFFFFFFFFFFFFFFFFFF0000000
000FFFFFFFFFFFFFFFFFFFFFFFFFFFFC000000
001FFFFFFFFFFFFFFFFFFFFFFFFFFFFE000000
003FFFFFFFFFFFFFFFFFFFFFFFFFFFFF000000
007FFFFFFFFFFFFFFFFFFFFFFFFFFFFF800000
00FFFFFFFFFFFFFFFFFFFFFFFFFFFFFFC00000
01FFFFFFFFFFFFFFFFFFFFFFFFFFFFFFE00000
03FFFFFFFFFFFFFFFFFFFFFFFFFFFFFFE00000
03FFFFFFFFFFFFFFFFFFFFFFFFFFFFFFF00000
07FFFFFFFFFFFFFFFFFFFFFFFFFFFFFFF80000
0FFFFFFFFFFFFFFFFFFFFFFFFFFFFFFFF80000
0FFFFFFFFFFFFFFFFFFFFFFFFFFFFFFFFC0000
1FFFFFFFFFFFFFFFFFFFFFFFFFFFFFFFFC0000
1FFFFFFFFFFFFFFFFFFFFFFFFFFFFFFFFE0000
3FFFFFFFFFFFFFFFFFFFFFFFFFFFFFFFFE0000
3FFFFFF800000007FFFFC000000FFFFFFF0000
7FFFFFE000000007FFFFC0000003FFFFFF0000
7FFFFFC000000007FFFFC0000000FFFFFF0000
7FFFFF0000000007FFFFC00000007FFFFF8000
7FFFFF0000000007FFFFC00000003FFFFF8000
FFFFFE0000000007FFFFC00000001FFFFF8000
FFFFFC0000000007FFFFC00000000FFFFF8000
FFFFFC0000000007FFFFC00000000FFFFFC000
FFFFF80000000007FFFFC00000000FFFFFC000
FFFFF80000000007FFFFC000000007FFFFC000
FFFFF80000000007FFFFC000000007FFFFC000
FFFFF80000000007FFFFC000000007FFFFE000
FFFFF80000000007FFFFC000000007FFFFE000
FFFFF80000000007FFFFC000000007FFFFE000
FFFFF80000000007FFFFC000000003FFFFE000
FFFFF80000000007FFFFC000000003FFFFE000
FFFFF80000000007FFFFC000000003FFFFF000
FFFFF80000000007FFFFC000000003FFFFF000
FFFFF80000000007FFFFC000000001FFFFF000
FFFFF80000000007FFFFC000000001FFFFF000
FFFFF80000000007FFFFC000000001FFFFF800
FFFFF80000000007FFFFC000000001FFFFF800
FFFFF80000000007FFFFC000000000FFFFF800
FFFFF80000000007FFFFC000000000FFFFF800
FFFFF80000000007FFFFC000000000FFFFF800
FFFFF80000000007FFFFC000000000FFFFFC00
FFFFF80000000007FFFFC000000000FFFFFC00
FFFFF80000000007FFFFC0000000007FFFFC00
FFFFF80000000007FFFFC0000000007FFFFC00
FFFFF80000000007FFFFC0000000007FFFFE00
FFFFF80000000007FFFFC0000000007FFFFE00
FFFFF80000000007FFFFC0000000003FFFFE00
FFFFF80000000007FFFFC0000000003FFFFE00
FFFFF80000000007FFFFC0000000003FFFFE00
FFFFF80000000007FFFFC0000000003FFFFF00
FFFFF80000000007FFFFC0000000003FFFFF00
FFFFF80000000007FFFFC0000000001FFFFF00
FFFFF80000000007FFFFC0000000001FFFFF00
FFFFF80000000007FFFFC0000000001FFFFF80
FFFFF80000000007FFFFC0000000001FFFFF80
FFFFF80000000007FFFFC0000000000FFFFF80
FFFFF80000000007FFFFC0000000000FFFFF80
FFFFF80000000007FFFFC0000000000FFFFF80
FFFFF80000000007FFFFC0000000000FFFFFC0
FFFFF80000000007FFFFC0000000000FFFFFC0
FFFFF80000000007FFFFC00000000007FFFFC0
FFFFF80000000007FFFFC00000000007FFFFC0
FFFFF80000000007FFFFC00000000007FFFFE0
FFFFF80000000007FFFFC00000000007FFFFE0
FFFFF80000000007FFFFC00000000003FFFFE0
FFFFF80000000007FFFFC00000000003FFFFE0
FFFFF80000000007FFFFC00000000003FFFFE0
FFFFF80000000007FFFFC00000000003FFFFF0
FFFFF80000000007FFFFC00000000003FFFFF0
FFFFF80000000007FFFFC00000000001FFFFF0
FFFFF80000000007FFFFC00000000001FFFFF0
FFFFF80000000007FFFFC00000000001FFFFF8
FFFFF80000000007FFFFC00000000001FFFFF8
FFFFF80000000007FFFFC00000000000FFFFF8
FFFFF80000000007FFFFC00000000000FFFFF8
FFFFF80000000007FFFFC00000000000FFFFF8
FFFFF80000000007FFFFC00000000000FFFFFC
FFFFF80000000007FFFFC00000000000FFFFFC
FFFFF80000000007FFFFC000000000007FFFFC
FFFFF80000000007FFFFC000000000007FFFFC
FFFFF80000000007FFFFC000000000007FFFFE
FFFFF80000000007FFFFC000000000007FFFFE
FFFFF80000000007FFFFC000000000003FFFFE
FFFFF80000000007FFFFC000000000003FFFFE
FFFFF80000000007FFFFC000000000003FFFFE
FFFFF80000000007FFFFC000000000003FFFFF
FFFFF80000000007FFFFC000000000003FFFFF
FFFFF80000000007FFFFC000000000001FFFFF
FFFFF80000000007FFFFC000000000001FFFFF
FFFFF80000000007FFFFC000000000001FFFFF
FFFFF80000000007FFFFC000000000001FFFFF
FFFFF80000000007FFFFC000000000000FFFFF
FFFFF00000000007FFFF8000000000000FFFFF
7FFFF00000000003FFFF8000000000000FFFFF
7FFFF00000000003FFFF80000000000007FFFE
3FFFE00000000001FFFF00000000000007FFFC
3FFFC00000000001FFFE00000000000003FFFC
1FFF800000000000FFFC00000000000001FFF8
07FF0000000000003FF800000000000000FFE0
01FC0000000000000FE0000000000000001F80
ENDCHAR
STARTCHAR 006E
ENCODING 110
SWIDTH 892 0
DWIDTH 125 0
BBX 118 106 0 -2
BITMAP
0000001FFFFFFFFFFFF80000000000
000001FFFFFFFFFFFFFF8000000000
00000FFFFFFFFFFFFFFFE000000000
00003FFFFFFFFFFFFFFFF800000000
0000FFFFFFFFFFFFFFFFFE00000000
0001FFFFFFFFFFFFFFFFFF80000000
0007FFFFFFFFFFFFFFFFFFC0000000
000FFFFFFFFFFFFFFFFFFFF0000000
001FFFFFFFFFFFFFFFFFFFF8000000
003FFFFFFFFFFFFFFFFFFFFC000000
007FFFFFFFFFFFFFFFFFFFFE000000
00FFFFFFFFFFFFFFFFFFFFFF000000
01FFFFFFFFFFFFFFFFFFFFFF800000
03FFFFFFFFFFFFFFFFFFFFFF800000
03FFFFFFFFFFFFFFFFFFFFFFC00000
07FFFFFFFFFFFFFFFFFFFFFFE00000
0FFFFFFFFFFFFFFFFFFFFFFFE00000
0FFFFFFFFFFFFFFFFFFFFFFFF00000
1FFFFFFFFFFFFFFFFFFFFFFFF00000
1FFFFFFFFFFFFFFFFFFFFFFFF80000
3FFFFFFFFFFFFFFFFFFFFFFFF80000
3FFFFFFC00000000003FFFFFFC0000
3FFFFFE0000000000007FFFFFC0000
7FFFFFC0000000000003FFFFFC0000
7FFFFF80000000000001FFFFFE0000
7FFFFF00000000000000FFFFFE0000
7FFFFE000000000000007FFFFE0000
FFFFFC000000000000003FFFFE0000
FFFFFC000000000000003FFFFF0000
FFFFFC000000000000003FFFFF0000
FFFFF8000000000000001FFFFF0000
FFFFF8000000000000001FFFFF0000
FFFFF8000000000000001FFFFF8000
FFFFF8000000000000001FFFFF8000
FFFFF8000000000000000FFFFF8000
FFFFF8000000000000000FFFFF8000
FFFFF8000000000000000FFFFF8000
FFFFF8000000000000000FFFFFC000
FFFFF8000000000000000FFFFFC000
FFFFF80000000000000007FFFFC000
FFFFF80000000000000007FFFFC000
FFFFF80000000000000007FFFFE000
FFFFF80000000000000007FFFFE000
FFFFF80000000000000003FFFFE000
FFFFF80000000000000003FFFFE000
FFFFF80000000000000003FFFFE000
FFFFF80000000000000003FFFFF000
FFFFF80000000000000001FFFFF000
FFFFF80000000000000001FFFFF000
FFFFF80000000000000001FFFFF000
FFFFF80000000000000001FFFFF800
FFFFF80000000000000001FFFFF800
FFFFF80000000000000000FFFFF800
FFFFF80000000000000000FFFFF800
FFFFF80000000000000000FFFFF800
FFFFF80000000000000000FFFFFC00
FFFFF800000000000000007FFFFC00
FFFFF800000000000000007FFFFC00
FFFFF800000000000000007FFFFC00
FFFFF800000000000000007FFFFE00
FFFFF800000000000000007FFFFE00
FFFFF800000000000000003FFFFE00
FFFFF800000000000000003FFFFE00
FFFFF800000000000000003FFFFE00
FFFFF800000000000000003FFFFF00
FFFFF800000000000000001FFFFF00
FFFFF800000000000000001FFFFF00
FFFFF800000000000000001FFFFF00
FFFFF800000000000000001FFFFF80
FFFFF800000000000000001FFFFF80
FFFFF800000000000000000FFFFF80
FFFFF800000000000000000FFFFF80
FFFFF800000000000000000FFFFF80
FFFFF800000000000000000FFFFFC0
FFFFF8000000000000000007FFFFC0
FFFFF8000000000000000007FFFFC0
FFFFF8000000000000000007FFFFC0
FFFFF8000000000000000007FFFFE0
FFFFF8000000000000000007FFFFE0
FFFFF8000000000000000003FFFFE0
FFFFF8000000000000000003FFFFE0
FFFFF8000000000000000003FFFFE0
FFFFF8000000000000000003FFFFF0
FFFFF8000000000000000001FFFFF0
FFFFF8000000000000000001FFFFF0
FFFFF8000000000000000001FFFFF0
FFFFF8000000000000000001FFFFF8
FFFFF8000000000000000001FFFFF8
FFFFF8000000000000000000FFFFF8
FFFFF8000000000000000000FFFFF8
FFFFF8000000000000000000FFFFF8
FFFFF8000000000000000000FFFFFC
FFFFF80000000000000000007FFFFC
FFFFF80000000000000000007FFFFC
FFFFF80000000000000000007FFFFC
FFFFF80000000000000000007FFFFC
FFFFF80000000000000000007FFFFC
FFFFF80000000000000000003FFFFC
FFFFF80000000000000000003FFFFC
7FFFF00000000000000000003FFFFC
7FFFF00000000000000000001FFFF8
3FFFE00000000000000000001FFFF0
1FFFC00000000000000000000FFFF0
0FFF8000000000000000000007FFE0
07FF0000000000000000000003FF80
01FC00000000000000000000007E00
ENDCHAR
STARTCHAR 006F
ENCODING 111
SWIDTH 892 0
DWIDTH 125 0
BBX 109 104 0 0
BITMAP
0000001FFFFFFFFFFFFFC0000000
000003FFFFFFFFFFFFFFFE000000
00000FFFFFFFFFFFFFFFFF800000
00003FFFFFFFFFFFFFFFFFE00000
0000FFFFFFFFFFFFFFFFFFF80000
0003FFFFFFFFFFFFFFFFFFFE0000
0007FFFFFFFFFFFFFFFFFFFF0000
000FFFFFFFFFFFFFFFFFFFFF8000
001FFFFFFFFFFFFFFFFFFFFFC000
003FFFFFFFFFFFFFFFFFFFFFE000
007FFFFFFFFFFFFFFFFFFFFFF000
00FFFFFFFFFFFFFFFFFFFFFFF800
01FFFFFFFFFFFFFFFFFFFFFFFC00
03FFFFFFFFFFFFFFFFFFFFFFFE00
07FFFFFFFFFFFFFFFFFFFFFFFF00
07FFFFFFFFFFFFFFFFFFFFFFFF00
0FFFFFFFFFFFFFFFFFFFFFFFFF80
0FFFFFFFFFFFFFFFFFFFFFFFFF80
1FFFFFFFFFFFFFFFFFFFFFFFFFC0
1FFFFFFFFFFFFFFFFFFFFFFFFFC0
3FFFFFF8000000000000FFFFFFE0
3FFFFFC00000000000001FFFFFE0
7FFFFF800000000000000FFFFFE0
7FFFFF0000000000000007FFFFF0
7FFFFE0000000000000003FFFFF0
7FFFFC0000000000000001FFFFF0
7FFFF80000000000000000FFFFF0
FFFFF80000000000000000FFFFF8
FFFFF80000000000000000FFFFF8
FFFFF000000000000000007FFFF8
FFFFF000000000000000007FFFF8
FFFFF000000000000000007FFFF8
FFFFF000000000000000007FFFF8
FFFFF000000000000000007FFFF8
FFFFF000000000000000007FFFF8
FFFFF000000000000000007FFFF8
FFFFF000000000000000007FFFF8
FFFFF000000000000000007FFFF8
FFFFF000000000000000007FFFF8
FFFFF000000000000000007FFFF8
FFFFF000000000000000007FFFF8
FFFFF000000000000000007FFFF8
FFFFF000000000000000007FFFF8
FFFFF000000000000000007FFFF8
FFFFF000000000000000007FFFF8
FFFFF000000000000000007FFFF8
FFFFF000000000000000007FFFF8
FFFFF000000000000000007FFFF8
FFFFF000000000000000007FFFF8
FFFFF000000000000000007FFFF8
FFFFF000000000000000007FFFF8
FFFFF000000000000000007FFFF8
FFFFF000000000000000007FFFF8
FFFFF000000000000000007FFFF8
FFFFF000000000000000007FFFF8
FFFFF000000000000000007FFFF8
FFFFF000000000000000007FFFF8
FFFFF000000000000000007FFFF8
FFFFF000000000000000007FFFF8
FFFFF000000000000000007FFFF8
FFFFF000000000000000007FFFF8
FFFFF000000000000000007FFFF8
FFFFF000000000000000007FFFF8
FFFFF000000000000000007FFFF8
FFFFF000000000000000007FFFF8
FFFFF000000000000000007FFFF8
FFFFF000000000000000007FFFF8
FFFFF000000000000000007FFFF8
FFFFF000000000000000007FFFF8
FFFFF000000000000000007FFFF8
FFFFF000000000000000007FFFF8
FFFFF000000000000000007FFFF8
FFFFF000000000000000007FFFF8
FFFFF000000000000000007FFFF8
FFFFF000000000000000007FFFF8
FFFFF80000000000000000FFFFF8
FFFFF80000000000000000FFFFF8
FFFFF80000000000000000FFFFF0
7FFFFC0000000000000001FFFFF0
7FFFFE0000000000000003FFFFF0
7FFFFF0000000000000007FFFFF0
7FFFFF800000000000000FFFFFE0
3FFFFFC00000000000001FFFFFE0
3FFFFFF8000000000000FFFFFFE0
1FFFFFFFFFFFFFFFFFFFFFFFFFC0
1FFFFFFFFFFFFFFFFFFFFFFFFFC0
0FFFFFFFFFFFFFFFFFFFFFFFFF80
0FFFFFFFFFFFFFFFFFFFFFFFFF80
07FFFFFFFFFFFFFFFFFFFFFFFF00
07FFFFFFFFFFFFFFFFFFFFFFFF00
03FFFFFFFFFFFFFFFFFFFFFFFE00
01FFFFFFFFFFFFFFFFFFFFFFFC00
00FFFFFFFFFFFFFFFFFFFFFFF800
007FFFFFFFFFFFFFFFFFFFFFF000
003FFFFFFFFFFFFFFFFFFFFFE000
001FFFFFFFFFFFFFFFFFFFFFC000
000FFFFFFFFFFFFFFFFFFFFF8000
0007FFFFFFFFFFFFFFFFFFFF0000
0003FFFFFFFFFFFFFFFFFFFE0000
0000FFFFFFFFFFFFFFFFFFF80000
00003FFFFFFFFFFFFFFFFFE00000
00000FFFFFFFFFFFFFFFFF800000
000003FFFFFFFFFFFFFFFE000000
0000001FFFFFFFFFFFFFC0000000
ENDCHAR
STARTCHAR 0070
ENCODING 112
SWIDTH 878 0
DWIDTH 123 0
BBX 112 106 0 -2
BITMAP
00000FFFFFFFFFFFFFFFF8000000
00007FFFFFFFFFFFFFFFFF800000
0003FFFFFFFFFFFFFFFFFFF00000
000FFFFFFFFFFFFFFFFFFFFC0000
001FFFFFFFFFFFFFFFFFFFFF0000
003FFFFFFFFFFFFFFFFFFFFF8000
00FFFFFFFFFFFFFFFFFFFFFFE000
01FFFFFFFFFFFFFFFFFFFFFFF000
03FFFFFFFFFFFFFFFFFFFFFFF800
03FFFFFFFFFFFFFFFFFFFFFFFC00
07FFFFFFFFFFFFFFFFFFFFFFFE00
0FFFFFFFFFFFFFFFFFFFFFFFFF00
1FFFFFFFFFFFFFFFFFFFFFFFFF80
1FFFFFFFFFFFFFFFFFFFFFFFFFC0
3FFFFFFFFFFFFFFFFFFFFFFFFFC0
3FFFFFFFFFFFFFFFFFFFFFFFFFE0
7FFFFFFFFFFFFFFFFFFFFFFFFFF0
7FFFFFFFFFFFFFFFFFFFFFFFFFF0
7FFFFFFFFFFFFFFFFFFFFFFFFFF8
7FFFFFFFFFFFFFFFFFFFFFFFFFF8
FFFFFFFFFFFFFFFFFFFFFFFFFFFC
FFFFFE000000000000003FFFFFFC
FFFFFC0000000000000007FFFFFC
FFFFF80000000000000003FFFFFE
FFFFF80000000000000001FFFFFE
FFFFF80000000000000000FFFFFE
FFFFF800000000000000007FFFFE
FFFFF800000000000000003FFFFF
FFFFF800000000000000003FFFFF
FFFFF800000000000000003FFFFF
FFFFF800000000000000001FFFFF
FFFFF800000000000000001FFFFF
FFFFF800000000000000001FFFFF
FFFFF800000000000000001FFFFF
FFFFF800000000000000001FFFFF
FFFFF800000000000000001FFFFF
FFFFF800000000000000001FFFFF
FFFFF800000000000000003FFFFF
FFFFF800000000000000003FFFFF
FFFFF800000000000000007FFFFE
FFFFF800000000000000007FFFFE
FFFFF80000000000000000FFFFFE
FFFFF80000000000000001FFFFFE
FFFFF80000000000000003FFFFFC
FFFFF8000000000000000FFFFFFC
FFFFF800000000000000FFFFFFFC
FFFFF80000000000000FFFFFFFF8
FFFFF8000000000001FFFFFFFFF8
FFFFF800000000003FFFFFFFFFF0
FFFFF80000000003FFFFFFFFFFF0
FFFFF8000000007FFFFFFFFFFFE0
FFFFF800000007FFFFFFFFFFFFC0
FFFFF8000000FFFFFFFFFFFFFFC0
FFFFF800000FFFFFFFFFFFFFFF80
FFFFF80001FFFFFFFFFFFFFFFF00
FFFFF8001FFFFFFFFFFFFFFFFE00
FFFFF803FFFFFFFFFFFFFFFFFC00
FFFFF83FFFFFFFFFFFFFFFFFF800
FFFFFFFFFFFFFFFFFFFFFFFFF000
FFFFFFFFFFFFFFFFFFFFFFFFE000
FFFFFFFFFFFFFFFFFFFFFFFFC000
FFFFFFFFFFFFFFFFFFFFFFFF0000
FFFFFFFFFFFFFFFFFFFFFFFC0000
FFFFFFFFFFFFFFFFFFFFFFF00000
FFFFFFFFFFFFFFFFFFFFFFC00000
FFFFFFFFFFFFFFFFFFFFFE000000
FFFFFFFFFFFFFFFFFFFFC0000000
FFFFFFFFFFFFFFFFFFFC00000000
FFFFFFFFFFFFFFFFFF8000000000
FFFFFFFFFFFFFFFFF80000000000
FFFFFFFFFFFFFFFF000000000000
FFFFFFFFFFFFFFF0000000000000
FFFFFFFFFFFFFE00000000000000
FFFFFFFFFFFFC000000000000000
FFFFFFFFFFFC0000000000000000
FFFFFFFFFF800000000000000000
FFFFFFFFF8000000000000000000
FFFFFFFF00000000000000000000
FFFFFFF000000000000000000000
FFFFFE0000000000000000000000
FFFFF80000000000000000000000
FFFFF80000000000000000000000
FFFFF80000000000000000000000
FFFFF80000000000000000000000
FFFFF80000000000000000000000
FFFFF80000000000000000000000
FFFFF80000000000000000000000
FFFFF80000000000000000000000
FFFFF80000000000000000000000
FFFFF80000000000000000000000
FFFFF80000000000000000000000
FFFFF80000000000000000000000
FFFFF80000000000000000000000
FFFFF80000000000000000000000
FFFFF80000000000000000000000
FFFFF80000000000000000000000
FFFFF80000000000000000000000
FFFFF80000000000000000000000
FFFFF80000000000000000000000
7FFFF00000000000000000000000
7FFFF00000000000000000000000
3FFFE00000000000000000000000
1FFFC00000000000000000000000
0FFF800000000000000000000000
07FF000000000000000000000000
01FC000000000000000000000000
ENDCHAR
STARTCHAR 0071
ENCODING 113
SWIDTH 892 0
DWIDTH 125 0
BBX 110 127 0 -23
BITMAP
0000001FFFFFFFFFFFFFE0000000
000001FFFFFFFFFFFFFFFE000000
00000FFFFFFFFFFFFFFFFFC00000
00003FFFFFFFFFFFFFFFFFF00000
0000FFFFFFFFFFFFFFFFFFFC0000
0001FFFFFFFFFFFFFFFFFFFE0000
0007FFFFFFFFFFFFFFFFFFFF8000
000FFFFFFFFFFFFFFFFFFFFFC000
001FFFFFFFFFFFFFFFFFFFFFE000
003FFFFFFFFFFFFFFFFFFFFFF000
007FFFFFFFFFFFFFFFFFFFFFF800
00FFFFFFFFFFFFFFFFFFFFFFFC00
01FFFFFFFFFFFFFFFFFFFFFFFE00
03FFFFFFFFFFFFFFFFFFFFFFFF00
03FFFFFFFFFFFFFFFFFFFFFFFF00
07FFFFFFFFFFFFFFFFFFFFFFFF80
0FFFFFFFFFFFFFFFFFFFFFFFFFC0
0FFFFFFFFFFFFFFFFFFFFFFFFFC0
1FFFFFFFFFFFFFFFFFFFFFFFFFE0
1FFFFFFFFFFFFFFFFFFFFFFFFFE0
3FFFFFFC0000000000007FFFFFF0
3FFFFFE00000000000000FFFFFF0
3FFFFFC000000000000007FFFFF0
7FFFFF8000000000000003FFFFF8
7FFFFF0000000000000001FFFFF8
7FFFFE0000000000000000FFFFF8
7FFFFC0000000000000000FFFFF8
FFFFFC00000000000000007FFFFC
FFFFFC00000000000000007FFFFC
FFFFF800000000000000003FFFFC
FFFFF800000000000000003FFFFC
FFFFF800000000000000003FFFFC
FFFFF800000000000000003FFFFC
FFFFF800000000000000003FFFFC
FFFFF800000000000000003FFFFC
FFFFF800000000000000003FFFFC
FFFFF800000000000000003FFFFC
FFFFF800000000000000003FFFFC
FFFFF800000000000000003FFFFC
FFFFF800000000000000003FFFFC
FFFFF800000000000000003FFFFC
FFFFF800000000000000003FFFFC
FFFFF800000000000000003FFFFC
FFFFF800000000000000003FFFFC
FFFFF800000000000000003FFFFC
FFFFF800000000000000003FFFFC
FFFFF800000000000000003FFFFC
FFFFF800000000000000003FFFFC
FFFFF800000000000000003FFFFC
FFFFF800000000000000003FFFFC
FFFFF800000000000000003FFFFC
FFFFF800000000000000003FFFFC
FFFFF800000000000000003FFFFC
FFFFF800000000000000003FFFFC
FFFFF800000000000000003FFFFC
FFFFF800000000000000003FFFFC
FFFFF800000000000000003FFFFC
FFFFF800000000000000003FFFFC
FFFFF800000000000000003FFFFC
FFFFF800000000000000003FFFFC
FFFFF800000000000000003FFFFC
FFFFF800000000000000003FFFFC
FFFFF800000000000000003FFFFC
FFFFF800000000000000003FFFFC
FFFFF800000000000000003FFFFC
FFFFF800000000000000003FFFFC
FFFFF800000000000000003FFFFC
FFFFF800000000000000003FFFFC
FFFFF800000000000000003FFFFC
FFFFF800000000000000003FFFFC
FFFFF800000000000000003FFFFC
FFFFF800000000000000003FFFFC
FFFFF800000000000000003FFFFC
FFFFF800000000000000003FFFFC
FFFFF800000000000000003FFFFC
FFFFF800000000000000003FFFFC
FFFFFC00000000000000007FFFFC
FFFFFC00000000000000007FFFFC
7FFFFC00000000000000007FFFF8
7FFFFE0000000000000000FFFFF8
7FFFFF0000000000000001FFFFF8
7FFFFF8000000000000003FFFFF8
3FFFFFC000000000000007FFFFF0
3FFFFFE00000000000000FFFFFF0
3FFFFFF80000000000007FFFFFF0
1FFFFFFFF0000001FFFFFFFFFFE0
1FFFFFFFFC00001FFFFFFFFFFFE0
0FFFFFFFFE00007FFFFFFFFFFFC0
0FFFFFFFFF0001FFFFFFFFFFFFC0
07FFFFFFFF8007FFFFFFFFFFFF80
03FFFFFFFFC00FFFFFFFFFFFFF00
03FFFFFFFFC01FFFFFFFFFFFFF00
01FFFFFFFFE03FFFFFFFFFFFFE00
00FFFFFFFFE07FFFFFFFFFFFFC00
007FFFFFFFE0FFFFFFFFFFFFF800
003FFFFFFFE1FFFFFFFFFFFFF000
001FFFFFFFE1FFFFFFFFFFFFE000
000FFFFFFFE3FFFFFFFFFFFFC000
0007FFFFFFC7FFFFFFFFFFFF8000
0001FFFFFFC7FFFFFFFFFFFE0000
0000FFFFFF8FFFFFFFFFFFFC0000
00003FFFFF0FFFFFFFFFFFF00000
00000FFFFE0FFFFFFFFFFFC00000
000001FFFC0FFFFFFFFFFE000000
0000001FF01FFFFFFFFFE0000000
00000000001FFFFF800000000000
00000000001FFFFF000000000000
00000000001FFFFE000000000000
00000000001FFFFE000000000000
00000000001FFFFE000000000000
00000000001FFFFE000000000000
00000000001FFFFE000000000000
00000000001FFFFE000000000000
00000000001FFFFE000000000000
00000000001FFFFE000000000000
00000000001FFFFE000000000000
00000000001FFFFE000000000000
00000000001FFFFE000000000000
00000000001FFFFE000000000000
00000000001FFFFE000000000000
00000000000FFFFC000000000000
00000000000FFFFC000000000000
000000000007FFF8000000000000
000000000007FFF8000000000000
000000000003FFF0000000000000
000000000000FFC0000000000000
0000000000003F00000000000000
ENDCHAR
STARTCHAR 0072
ENCODING 114
SWIDTH 892 0
DWIDTH 125 0
BBX 109 106 0 -2
BITMAP
00001FFFFFFFFFFFFFFFC0000000
0000FFFFFFFFFFFFFFFFFE000000
0003FFFFFFFFFFFFFFFFFF800000
000FFFFFFFFFFFFFFFFFFFE00000
003FFFFFFFFFFFFFFFFFFFF80000
007FFFFFFFFFFFFFFFFFFFFE0000
00FFFFFFFFFFFFFFFFFFFFFF0000
01FFFFFFFFFFFFFFFFFFFFFF8000
03FFFFFFFFFFFFFFFFFFFFFFC000
07FFFFFFFFFFFFFFFFFFFFFFE000
0FFFFFFFFFFFFFFFFFFFFFFFF000
0FFFFFFFFFFFFFFFFFFFFFFFF800
1FFFFFFFFFFFFFFFFFFFFFFFFC00
1FFFFFFFFFFFFFFFFFFFFFFFFE00
3FFFFFFFFFFFFFFFFFFFFFFFFE00
3FFFFFFFFFFFFFFFFFFFFFFFFF00
7FFFFFFFFFFFFFFFFFFFFFFFFF80
7FFFFFFFFFFFFFFFFFFFFFFFFF80
7FFFFFFFFFFFFFFFFFFFFFFFFFC0
FFFFFFFFFFFFFFFFFFFFFFFFFFC0
FFFFFC00000000000000FFFFFFE0
FFFFF8000000000000001FFFFFE0
FFFFF0000000000000000FFFFFE0
FFFFF00000000000000007FFFFF0
FFFFF00000000000000003FFFFF0
FFFFF00000000000000001FFFFF0
FFFFF00000000000000000FFFFF0
FFFFF00000000000000000FFFFF8
FFFFF00000000000000000FFFFF8
FFFFF000000000000000007FFFF8
FFFFF000000000000000007FFFF8
FFFFF000000000000000007FFFF8
FFFFF000000000000000007FFFF8
FFFFF000000000000000007FFFF8
FFFFF000000000000000007FFFF8
FFFFF000000000000000007FFFF8
FFFFF00000000000000000FFFFF8
FFFFF00000000000000000FFFFF8
FFFFF00000000000000001FFFFF8
FFFFF00000000000000001FFFFF0
FFFFF00000000000000003FFFFF0
FFFFF00000000000000007FFFFF0
FFFFF0000000000000001FFFFFF0
FFFFF0000000000000007FFFFFE0
FFFFF000000000000007FFFFFFE0
FFFFF00000000000007FFFFFFFC0
FFFFF000000000000FFFFFFFFFC0
FFFFF00000000000FFFFFFFFFFC0
FFFFF0000000001FFFFFFFFFFF80
FFFFF000000001FFFFFFFFFFFF00
FFFFF00000001FFFFFFFFFFFFF00
FFFFF0000001FFFFFFFFFFFFFE00
FFFFF000000FFFFFFFFFFFFFFC00
FFFFF000003FFFFFFFFFFFFFFC00
FFFFF00000FFFFFFFFFFFFFFF800
FFFFF00001FFFFFFFFFFFFFFF000
FFFFF00007FFFFFFFFFFFFFFE000
FFFFF0000FFFFFFFFFFFFFFFC000
FFFFF0001FFFFFFFFFFFFFFF8000
FFFFF0003FFFFFFFFFFFFFFE0000
FFFFF0003FFFFFFFFFFFFFFC0000
FFFFF0007FFFFFFFFFFFFFF00000
FFFFF000FFFFFFFFFFFFFFC00000
FFFFF000FFFFFFFFFFFFFF000000
FFFFF001FFFFFFFFFFFFF8000000
FFFFF001FFFFFFFFFFFF00000000
FFFFF003FFFFFFFFFFF000000000
FFFFF003FFFFFFFFFE0000000000
FFFFF007FFFFFFFFE00000000000
FFFFF007FFFFFFFE000000000000
FFFFF007FFFFFFC0000000000000
FFFFF007FFFFFC00000000000000
FFFFF00FFFFFE000000000000000
FFFFF00FFFFF8000000000000000
FFFFF00FFFFF8000000000000000
FFFFF00FFFFF0000000000000000
FFFFF00FFFFF0000000000000000
FFFFF00FFFFF0000000000000000
FFFFF00FFFFF0000000000000000
FFFFF00FFFFF0000000000000000
FFFFF00FFFFF8000000000000000
FFFFF00FFFFF8000000000000000
FFFFF00FFFFFC000000000000000
FFFFF007FFFFF000000000000000
FFFFF007FFFFFFFFFFFFFFFFE000
FFFFF007FFFFFFFFFFFFFFFFF800
FFFFF003FFFFFFFFFFFFFFFFFC00
FFFFF003FFFFFFFFFFFFFFFFFE00
FFFFF003FFFFFFFFFFFFFFFFFF00
FFFFF001FFFFFFFFFFFFFFFFFF00
FFFFF001FFFFFFFFFFFFFFFFFF80
FFFFF000FFFFFFFFFFFFFFFFFF80
FFFFF0007FFFFFFFFFFFFFFFFF80
FFFFF0007FFFFFFFFFFFFFFFFFC0
FFFFF0003FFFFFFFFFFFFFFFFFC0
FFFFF0001FFFFFFFFFFFFFFFFF80
FFFFF0000FFFFFFFFFFFFFFFFF80
FFFFF00007FFFFFFFFFFFFFFFF80
FFFFF00003FFFFFFFFFFFFFFFF00
7FFFE00000FFFFFFFFFFFFFFFF00
7FFFE000007FFFFFFFFFFFFFFE00
3FFFC000001FFFFFFFFFFFFFFC00
3FFF80000003FFFFFFFFFFFFF800
1FFF000000007FFFFFFFFFFFE000
07FE000000000000000000000000
01F8000000000000000000000000
ENDCHAR
STARTCHAR 0073
ENCODING 115
SWIDTH 892 0
DWIDTH 125 0
BBX 109 104 0 0
BITMAP
000007FFFFFFFFFFFFFFFFFFFC00
00003FFFFFFFFFFFFFFFFFFFFF80
0001FFFFFFFFFFFFFFFFFFFFFFC0
0007FFFFFFFFFFFFFFFFFFFFFFE0
000FFFFFFFFFFFFFFFFFFFFFFFF0
001FFFFFFFFFFFFFFFFFFFFFFFF0
007FFFFFFFFFFFFFFFFFFFFFFFF8
00FFFFFFFFFFFFFFFFFFFFFFFFF8
01FFFFFFFFFFFFFFFFFFFFFFFFF8
03FFFFFFFFFFFFFFFFFFFFFFFFF8
03FFFFFFFFFFFFFFFFFFFFFFFFF8
07FFFFFFFFFFFFFFFFFFFFFFFFF8
0FFFFFFFFFFFFFFFFFFFFFFFFFF8
1FFFFFFFFFFFFFFFFFFFFFFFFFF8
1FFFFFFFFFFFFFFFFFFFFFFFFFF0
3FFFFFFFFFFFFFFFFFFFFFFFFFF0
3FFFFFFFFFFFFFFFFFFFFFFFFFE0
3FFFFFFFFFFFFFFFFFFFFFFFFFC0
7FFFFFFFFFFFFFFFFFFFFFFFFF80
7FFFFFFFFFFFFFFFFFFFFFFFFC00
7FFFFF0000000000000000000000
7FFFFE0000000000000000000000
FFFFFC0000000000000000000000
FFFFF80000000000000000000000
FFFFF00000000000000000000000
FFFFF00000000000000000000000
FFFFF00000000000000000000000
FFFFF00000000000000000000000
FFFFF00000000000000000000000
FFFFF80000000000000000000000
FFFFF80000000000000000000000
7FFFFC0000000000000000000000
7FFFFF0000000000000000000000
7FFFFFC000000000000000000000
7FFFFFFC00000000000000000000
3FFFFFFF80000000000000000000
3FFFFFFFF8000000000000000000
1FFFFFFFFF000000000000000000
1FFFFFFFFFE00000000000000000
0FFFFFFFFFFE0000000000000000
0FFFFFFFFFFFC000000000000000
07FFFFFFFFFFFC00000000000000
03FFFFFFFFFFFF80000000000000
03FFFFFFFFFFFFF8000000000000
01FFFFFFFFFFFFFF000000000000
00FFFFFFFFFFFFFFE00000000000
007FFFFFFFFFFFFFFE0000000000
003FFFFFFFFFFFFFFFC000000000
000FFFFFFFFFFFFFFFFC00000000
0007FFFFFFFFFFFFFFFF80000000
0001FFFFFFFFFFFFFFFFF0000000
00003FFFFFFFFFFFFFFFFF000000
000007FFFFFFFFFFFFFFFFE00000
0000007FFFFFFFFFFFFFFFFC0000
0000000FFFFFFFFFFFFFFFFF0000
00000000FFFFFFFFFFFFFFFF8000
000000001FFFFFFFFFFFFFFFE000
0000000001FFFFFFFFFFFFFFF000
00000000003FFFFFFFFFFFFFF800
000000000007FFFFFFFFFFFFFC00
0000000000007FFFFFFFFFFFFE00
0000000000000FFFFFFFFFFFFF00
00000000000000FFFFFFFFFFFF00
000000000000001FFFFFFFFFFF80
0000000000000003FFFFFFFFFFC0
00000000000000003FFFFFFFFFC0
000000000000000007FFFFFFFFE0
0000000000000000007FFFFFFFE0
0000000000000000000FFFFFFFE0
00000000000000000000FFFFFFF0
000000000000000000001FFFFFF0
0000000000000000000003FFFFF0
0000000000000000000001FFFFF8
0000000000000000000000FFFFF8
00000000000000000000007FFFF8
00000000000000000000007FFFF8
00000000000000000000007FFFF8
00000000000000000000007FFFF8
00000000000000000000007FFFF8
00000000000000000000007FFFF8
0000000000000000000000FFFFF8
0000000000000000000000FFFFF8
0000000000000000000001FFFFF8
0000000000000000000007FFFFF8
01FFFFFFFFFFFFFFFFFFFFFFFFF0
07FFFFFFFFFFFFFFFFFFFFFFFFF0
0FFFFFFFFFFFFFFFFFFFFFFFFFF0
1FFFFFFFFFFFFFFFFFFFFFFFFFE0
3FFFFFFFFFFFFFFFFFFFFFFFFFE0
7FFFFFFFFFFFFFFFFFFFFFFFFFC0
7FFFFFFFFFFFFFFFFFFFFFFFFFC0
FFFFFFFFFFFFFFFFFFFFFFFFFF80
FFFFFFFFFFFFFFFFFFFFFFFFFF80
FFFFFFFFFFFFFFFFFFFFFFFFFF00
FFFFFFFFFFFFFFFFFFFFFFFFFE00
FFFFFFFFFFFFFFFFFFFFFFFFFC00
FFFFFFFFFFFFFFFFFFFFFFFFF800
7FFFFFFFFFFFFFFFFFFFFFFFF000
7FFFFFFFFFFFFFFFFFFFFFFFE000
3FFFFFFFFFFFFFFFFFFFFFFFC000
3FFFFFFFFFFFFFFFFFFFFFFF0000
1FFFFFFFFFFFFFFFFFFFFFFC0000
07FFFFFFFFFFFFFFFFFFFFF00000
01FFFFFFFFFFFFFFFFFFFF000000
ENDCHAR
STARTCHAR 0074
ENCODING 116
SWIDTH 878 0
DWIDTH 123 0
BBX 113 106 0 -2
BITMAP
01FFFFFFFFFFFFFFFFFFFFFFFF8000
07FFFFFFFFFFFFFFFFFFFFFFFFF000
0FFFFFFFFFFFFFFFFFFFFFFFFFF800
1FFFFFFFFFFFFFFFFFFFFFFFFFFC00
3FFFFFFFFFFFFFFFFFFFFFFFFFFE00
7FFFFFFFFFFFFFFFFFFFFFFFFFFE00
7FFFFFFFFFFFFFFFFFFFFFFFFFFF00
FFFFFFFFFFFFFFFFFFFFFFFFFFFF00
FFFFFFFFFFFFFFFFFFFFFFFFFFFF00
FFFFFFFFFFFFFFFFFFFFFFFFFFFF80
FFFFFFFFFFFFFFFFFFFFFFFFFFFF80
FFFFFFFFFFFFFFFFFFFFFFFFFFFF80
FFFFFFFFFFFFFFFFFFFFFFFFFFFF00
FFFFFFFFFFFFFFFFFFFFFFFFFFFF00
7FFFFFFFFFFFFFFFFFFFFFFFFFFF00
7FFFFFFFFFFFFFFFFFFFFFFFFFFE00
3FFFFFFFFFFFFFFFFFFFFFFFFFFE00
1FFFFFFFFFFFFFFFFFFFFFFFFFFC00
0FFFFFFFFFFFFFFFFFFFFFFFFFF800
07FFFFFFFFFFFFFFFFFFFFFFFFF000
01FFFFFFFFFFFFFFFFFFFFFFFFC000
000000000003FFFFE0000000000000
000000000003FFFFE0000000000000
000000000003FFFFE0000000000000
000000000003FFFFE0000000000000
000000000003FFFFE0000000000000
000000000003FFFFE0000000000000
000000000003FFFFE0000000000000
000000000003FFFFE0000000000000
000000000003FFFFE0000000000000
000000000003FFFFE0000000000000
000000000003FFFFE0000000000000
000000000003FFFFE0000000000000
000000000003FFFFE0000000000000
000000000003FFFFE0000000000000
000000000003FFFFE0000000000000
000000000003FFFFE0000000000000
000000000003FFFFE0000000000000
000000000003FFFFE0000000000000
000000000003FFFFE0000000000000
000000000003FFFFE0000000000000
000000000003FFFFE0000000000000
000000000003FFFFE0000000000000
000000000003FFFFE0000000000000
000000000003FFFFE0000000000000
000000000003FFFFE0000000000000
000000000003FFFFE0000000000000
000000000003FFFFE0000000000000
000000000003FFFFE0000000000000
000000000003FFFFE0000000000000
000000000003FFFFE0000000000000
000000000003FFFFE0000000000000
000000000003FFFFE0000000000000
000000000003FFFFE0000000000000
000000000003FFFFE0000000000000
000000000003FFFFE0000000000000
000000000003FFFFE0000000000000
000000000003FFFFE0000000000000
000000000003FFFFE0000000000000
000000000003FFFFE0000000000000
000000000003FFFFE0000000000000
000000000003FFFFE0000000000000
000000000003FFFFE0000000000000
000000000003FFFFE0000000000000
000000000003FFFFE0000000000000
000000000003FFFFE0000000000000
000000000003FFFFE0000000000000
000000000003FFFFE0000000000000
000000000003FFFFE0000000000000
000000000003FFFFE0000000000000
000000000003FFFFE0000000000000
000000000003FFFFE0000000000000
000000000003FFFFE0000000000000
000000000003FFFFE0000000000000
000000000003FFFFE0000000000000
000000000003FFFFE0000000000000
000000000003FFFFE0000000000000
000000000003FFFFE0000000000000
000000000003FFFFE0000000000000
000000000003FFFFE0000000000000
000000000003FFFFE0000000000000
000000000003FFFFE0000000000000
000000000003FFFFE0000000000000
000000000003FFFFE0000000000000
000000000003FFFFE0000000000000
000000000003FFFFE0000000000000
000000000003FFFFE0000000000000
000000000003FFFFE0000000000000
000000000003FFFFE0000000000000
000000000003FFFFE0000000000000
000000000003FFFFE0000000000000
000000000003FFFFE0000000000000
000000000003FFFFE0000000000000
000000000003FFFFE0000000000000
000000000003FFFFE0000000000000
000000000003FFFFE0000000000000
000000000003FFFFE0000000000000
000000000003FFFFE0000000000000
000000000003FFFFE0000000000000
000000000001FFFFC0000000000000
000000000001FFFFC0000000000000
000000000000FFFF80000000000000
0000000000007FFF00000000000000
0000000000003FFE00000000000000
0000000000001FFC00000000000000
00000000000007F000000000000000
ENDCHAR
ENDFONT
